<svg width="278" height="84" viewBox="0 0 278 84" fill="none" xmlns="http://www.w3.org/2000/svg">
<path d="M0.833333 26.0102C0.833333 31.9012 5.60896 36.6769 11.5 36.6769C17.391 36.6769 22.1667 31.9012 22.1667 26.0102C22.1667 20.1192 17.391 15.3435 11.5 15.3435C5.60896 15.3435 0.833333 20.1192 0.833333 26.0102ZM278 44L254.956 45.516L267.791 64.7148L278 44ZM12.3045 27.8412C14.2797 26.9734 16.2258 26.1325 18.1431 25.3179L16.579 21.6364C14.6463 22.4575 12.6853 23.3049 10.6955 24.1791L12.3045 27.8412ZM29.3059 20.7432C33.2749 19.1791 37.1094 17.7379 40.8146 16.4143L39.4689 12.6474C35.7209 13.9864 31.8461 15.4428 27.8394 17.0217L29.3059 20.7432ZM52.1595 12.597C56.2096 11.3234 60.087 10.2052 63.8005 9.23337L62.7878 5.36369C59.0072 6.35309 55.0672 7.48952 50.9596 8.78125L52.1595 12.597ZM75.6728 6.50623C79.881 5.68483 83.8447 5.07796 87.5814 4.66731L87.1444 0.691245C83.2881 1.11505 79.2142 1.73949 74.9065 2.58032L75.6728 6.50623ZM99.513 4.00076C103.784 4.01832 107.692 4.34028 111.278 4.92344L111.92 0.975304C108.109 0.355635 103.991 0.0191355 99.5294 0.000791907L99.513 4.00076ZM122.662 7.99445C126.497 9.50634 129.87 11.3972 132.873 13.5797L135.225 10.344C131.953 7.96648 128.284 5.91109 124.128 4.27312L122.662 7.99445ZM141.441 21.5826C144.002 24.5909 146.243 27.8587 148.278 31.2817L151.716 29.2379C149.595 25.67 147.227 22.208 144.487 18.9896L141.441 21.5826ZM153.892 41.9386C155.676 45.6611 157.321 49.338 159.031 53.0001L162.656 51.3073C160.988 47.7375 159.287 43.9414 157.5 40.2103L153.892 41.9386ZM164.663 64.0471C166.849 67.8163 169.277 71.3092 172.153 74.2771L175.025 71.4935C172.45 68.8363 170.21 65.6381 168.123 62.0405L164.663 64.0471ZM182.853 81.5747C186.557 83.0479 190.755 83.8342 195.572 83.8093L195.552 79.8094C191.192 79.8318 187.509 79.1219 184.331 77.8578L182.853 81.5747ZM207.983 82.2268C211.666 81.3737 215.64 80.1624 219.94 78.5611L218.544 74.8126C214.379 76.3637 210.571 77.5215 207.08 78.3299L207.983 82.2268ZM231.325 73.7563C234.783 72.1421 238.426 70.3153 242.265 68.2633L240.38 64.7356C236.597 66.7573 233.02 68.5511 229.633 70.1316L231.325 73.7563ZM252.966 62.2556C256.38 60.2539 259.932 58.0952 263.631 55.7724L261.503 52.385C257.836 54.688 254.319 56.8255 250.943 58.805L252.966 62.2556Z" fill="#0E51A0"/>
<rect x="120" y="2" width="64" height="64" rx="32" fill="white"/>
<rect x="120.5" y="2.5" width="63" height="63" rx="31.5" stroke="#2C5AA2" stroke-opacity="0.4"/>
<path d="M162 26.6667C162 26.9614 161.883 27.244 161.675 27.4523C161.466 27.6607 161.184 27.7778 160.889 27.7778H156.424C156.436 27.9611 156.444 28.1458 156.444 28.3333C156.442 30.5427 155.563 32.6608 154.001 34.223C152.439 35.7853 150.32 36.6641 148.111 36.6667H145.985L156.081 45.8444C156.191 45.942 156.28 46.0605 156.344 46.1929C156.408 46.3253 156.445 46.4691 156.453 46.6159C156.461 46.7628 156.439 46.9097 156.39 47.0482C156.341 47.1867 156.264 47.3141 156.165 47.4229C156.067 47.5317 155.947 47.6198 155.814 47.6821C155.681 47.7444 155.536 47.7796 155.39 47.7858C155.243 47.7919 155.096 47.7688 154.958 47.7179C154.82 47.6669 154.694 47.5891 154.586 47.4889L142.364 36.3778C142.198 36.2269 142.082 36.0294 142.03 35.8112C141.978 35.5929 141.994 35.3642 142.075 35.155C142.156 34.9458 142.298 34.766 142.483 34.6392C142.668 34.5124 142.887 34.4445 143.111 34.4444H148.111C149.731 34.4426 151.285 33.7982 152.43 32.6525C153.576 31.5069 154.22 29.9535 154.222 28.3333C154.222 28.1458 154.213 27.9611 154.196 27.7778H143.111C142.816 27.7778 142.534 27.6607 142.325 27.4523C142.117 27.244 142 26.9614 142 26.6667C142 26.372 142.117 26.0894 142.325 25.881C142.534 25.6726 142.816 25.5556 143.111 25.5556H153.551C153.04 24.5527 152.261 23.7108 151.301 23.1226C150.341 22.5343 149.237 22.2228 148.111 22.2222H143.111C142.816 22.2222 142.534 22.1052 142.325 21.8968C142.117 21.6884 142 21.4058 142 21.1111C142 20.8164 142.117 20.5338 142.325 20.3254C142.534 20.1171 142.816 20 143.111 20H160.889C161.184 20 161.466 20.1171 161.675 20.3254C161.883 20.5338 162 20.8164 162 21.1111C162 21.4058 161.883 21.6884 161.675 21.8968C161.466 22.1052 161.184 22.2222 160.889 22.2222H153.769C154.761 23.1394 155.515 24.2831 155.967 25.5556H160.889C161.184 25.5556 161.466 25.6726 161.675 25.881C161.883 26.0894 162 26.372 162 26.6667Z" fill="#0E51A0"/>
</svg>
