<svg width="366" height="311" viewBox="0 0 366 311" fill="none" xmlns="http://www.w3.org/2000/svg">
<g clip-path="url(#clip0_1947_22972)">
<path d="M55.0051 103.905V103.857C55.0024 103.865 54.9998 103.873 54.9984 103.881C54.9958 103.873 54.9931 103.865 54.9918 103.857V103.905C54.3638 106.184 52.9118 107.813 50.6358 108.793C52.9118 109.773 54.3638 111.403 54.9918 113.681V113.729C54.9944 113.721 54.9971 113.713 54.9984 113.705C55.0011 113.713 55.0038 113.721 55.0051 113.729V113.681C55.6331 111.403 57.0851 109.773 59.3611 108.793C57.0851 107.813 55.6331 106.184 55.0051 103.905ZM312.986 65.7853V65.7373C312.984 65.7453 312.981 65.7533 312.98 65.7613C312.977 65.7533 312.974 65.7453 312.973 65.7373V65.7853C312.345 68.064 310.893 69.6933 308.617 70.6733C310.893 71.6533 312.345 73.2827 312.973 75.5613V75.6093C312.976 75.6013 312.978 75.5933 312.98 75.5853C312.982 75.5933 312.985 75.6013 312.986 75.6093V75.5613C313.614 73.2827 315.066 71.6533 317.342 70.6733C315.066 69.6933 313.614 68.064 312.986 65.7853ZM256.638 28.5253V28.4773C256.636 28.4853 256.633 28.4933 256.632 28.5013C256.629 28.4933 256.626 28.4853 256.625 28.4773V28.5253C255.997 30.804 254.545 32.4333 252.269 33.4133C254.545 34.3933 255.997 36.0227 256.625 38.3013V38.3493C256.628 38.3413 256.63 38.3333 256.632 38.3253C256.634 38.3333 256.637 38.3413 256.638 38.3493V38.3013C257.266 36.0227 258.718 34.3933 260.994 33.4133C258.718 32.4333 257.266 30.804 256.638 28.5253ZM123.714 7.57867V7.53067C123.712 7.53867 123.709 7.54667 123.708 7.55467C123.705 7.54667 123.702 7.53867 123.701 7.53067V7.57867C123.073 9.85734 121.621 11.4867 119.345 12.4667C121.621 13.4467 123.073 15.076 123.701 17.3547V17.4027C123.704 17.3947 123.706 17.3867 123.708 17.3787C123.71 17.3867 123.713 17.3947 123.714 17.4027V17.3547C124.342 15.076 125.794 13.4467 128.07 12.4667C125.794 11.4867 124.342 9.85734 123.714 7.57867ZM308.63 0.494674V0.397339C308.626 0.414672 308.621 0.42934 308.617 0.446674C308.613 0.42934 308.608 0.414672 308.604 0.397339V0.494674C307.348 5.05067 304.444 8.31067 299.892 10.2707C304.444 12.2307 307.346 15.4907 308.604 20.0467V20.144C308.608 20.1267 308.613 20.112 308.617 20.0947C308.621 20.112 308.626 20.1267 308.63 20.144V20.0467C309.886 15.4907 312.79 12.2307 317.342 10.2707C312.79 8.31067 309.888 5.05067 308.63 0.494674ZM32.0678 29.3533V29.256C32.0638 29.2733 32.0584 29.288 32.0544 29.3053C32.0504 29.288 32.0451 29.2733 32.0411 29.256V29.3533C30.7851 33.9093 27.8811 37.1693 23.3291 39.1293C27.8811 41.0893 30.7838 44.3493 32.0411 48.9053V49.0027C32.0451 48.9853 32.0504 48.9707 32.0544 48.9533C32.0584 48.9707 32.0638 48.9853 32.0678 49.0027V48.9053C33.3238 44.3493 36.2278 41.0893 40.7798 39.1293C36.2278 37.1693 33.3251 33.9093 32.0678 29.3533Z" fill="#E31D1C"/>
<path d="M153.024 104.213C168.725 104.213 181.453 91.4851 181.453 75.784C181.453 60.0829 168.725 47.3547 153.024 47.3547C137.323 47.3547 124.595 60.0829 124.595 75.784C124.595 91.4851 137.323 104.213 153.024 104.213Z" fill="#0E51A0"/>
<path d="M109.985 101.081C107.438 101.081 105.946 100.515 105.437 99.3586C104.713 97.7133 106.241 95.3666 110.108 92.1853C113.534 89.3666 118.742 85.956 125.168 82.3253C125.488 82.144 125.894 82.2573 126.076 82.5773C126.257 82.8973 126.144 83.304 125.824 83.4853C109.441 92.744 106.068 97.4813 106.657 98.8213C107.188 100.028 111.597 100.437 122.276 97.6226C131.929 95.0786 144.282 90.5826 157.06 84.9626C169.837 79.3426 181.5 73.2773 189.898 67.8826C193.958 65.2746 197.025 62.972 199.012 61.0386C201.556 58.564 201.486 57.516 201.338 57.18C200.756 55.8546 195.064 55.132 177.429 60.828C177.078 60.9413 176.702 60.7493 176.59 60.3986C176.477 60.048 176.669 59.672 177.02 59.56C183.948 57.3213 189.898 55.8213 194.226 55.2226C199.116 54.5453 201.841 55.0107 202.56 56.644C203.141 57.9653 202.285 59.716 199.942 61.9947C197.892 63.9893 194.756 66.348 190.62 69.004C182.164 74.436 170.436 80.536 157.597 86.1826C144.758 91.8293 132.334 96.3493 122.617 98.9106C117.864 100.164 114.006 100.881 111.15 101.044C110.74 101.068 110.352 101.079 109.985 101.079V101.081Z" fill="#E31D1C"/>
<path d="M209.1 310.383C215.112 297.289 218.467 282.723 218.467 267.372C218.467 210.388 172.272 164.193 115.288 164.193C58.304 164.193 12.1094 210.388 12.1094 267.372C12.1094 282.723 15.464 297.289 21.476 310.383H209.099H209.1Z" fill="#E31D1C"/>
<path d="M201.688 210.953C192.791 213.427 179.843 215.209 161.667 213.976C125.999 211.555 83.2643 191.055 49.6803 187.736C28.831 204.933 14.851 230.16 12.4736 258.683C22.6016 250.239 37.4403 241.123 57.9523 235.832C103.66 224.043 154.622 237.517 181.586 235.832C193.064 235.115 203.056 231.761 210.748 228.147C208.264 222.107 205.223 216.355 201.688 210.953ZM192.402 276.997C175.5 276.248 115.996 245.776 67.6256 257.617C40.587 264.236 23.0496 273.123 12.8376 279.673C14.1256 290.515 17.095 300.84 21.4776 310.383H209.1C214.947 297.651 218.28 283.525 218.459 268.64C210.494 273.107 200.626 277.363 192.402 276.997Z" fill="#0E51A0"/>
<path d="M54.999 192.976C67.6714 192.976 77.9444 182.703 77.9444 170.031C77.9444 157.358 67.6714 147.085 54.999 147.085C42.3267 147.085 32.0537 157.358 32.0537 170.031C32.0537 182.703 42.3267 192.976 54.999 192.976Z" fill="#E31D1C"/>
<path d="M297.018 235.352L329.74 222.323C334.522 220.419 338.615 217.109 341.478 212.832L364.407 178.568C366.051 176.112 365.072 172.765 362.363 171.583L343.574 163.376C341.75 162.579 339.622 163.007 338.246 164.445L322.546 180.869L299.836 184.5L297.018 235.353V235.352ZM217.151 200.467L204.472 167.607C202.619 162.804 202.266 157.553 203.459 152.547L213.014 112.44C213.699 109.564 216.818 108.009 219.527 109.192L238.316 117.399C240.14 118.196 241.274 120.047 241.152 122.033L239.774 144.712L252.542 163.84L217.151 200.467Z" fill="#0E51A0"/>
<path d="M272.255 111.052L325.168 134.164C328.09 135.44 329.192 139.015 327.496 141.715L313.378 164.195L258.236 140.109L265.134 114.475C265.962 111.397 269.334 109.776 272.255 111.052Z" fill="#E31D1C"/>
<path d="M249.053 310.383C252.149 307.396 255.351 304.063 258.716 300.348C283.331 273.169 310.547 221.783 318.592 166.472L285.807 152.152L253.021 137.832C217.913 181.323 198.709 236.209 195.499 272.736C194.127 288.34 194.397 300.259 196.8 310.384H249.053V310.383Z" fill="#EAEAEA"/>
<path d="M240.846 280.891C255.098 280.891 266.652 269.337 266.652 255.085C266.652 240.833 255.098 229.28 240.846 229.28C226.594 229.28 215.041 240.833 215.041 255.085C215.041 269.337 226.594 280.891 240.846 280.891Z" fill="#87B9F4"/>
<path d="M240.847 271.495C249.909 271.495 257.256 264.148 257.256 255.085C257.256 246.023 249.909 238.676 240.847 238.676C231.784 238.676 224.438 246.023 224.438 255.085C224.438 264.148 231.784 271.495 240.847 271.495Z" fill="#001A3F"/>
<path d="M257.107 217.892L257.108 217.892C259.857 219.093 263.06 217.838 264.261 215.089L293.779 147.525C294.98 144.776 293.725 141.574 290.976 140.373L290.974 140.372C288.225 139.171 285.023 140.426 283.822 143.175L254.304 210.739C253.103 213.489 254.358 216.691 257.107 217.892Z" fill="#87B9F4"/>
<path d="M249.053 310.383C250.02 309.451 250.997 308.484 251.985 307.483C236.381 292.167 217.327 283.944 194.823 282.816C194.359 293.659 194.941 302.556 196.799 310.381H249.053V310.383Z" fill="#E31D1C"/>
<path d="M355.409 311.049H1.19206C0.824057 311.049 0.525391 310.751 0.525391 310.383C0.525391 310.015 0.824057 309.716 1.19206 309.716H355.408C355.776 309.716 356.075 310.015 356.075 310.383C356.075 310.751 355.776 311.049 355.408 311.049H355.409Z" fill="#89D5EF"/>
</g>
<defs>
<clipPath id="clip0_1947_22972">
<rect width="366" height="312" fill="white"/>
</clipPath>
</defs>
</svg>
