<svg width="360" height="44" viewBox="0 0 360 44" fill="none" xmlns="http://www.w3.org/2000/svg">
<g clip-path="url(#clip0_1253_18011)">
<path d="M23.0293 17.4319C23.0293 15.602 22.216 12.3996 18.7079 12.3996C15.4039 12.3996 14.0823 15.3987 13.879 17.4319H23.0293ZM13.9298 22.719C14.184 25.9729 17.3362 27.4979 20.9452 27.4979C23.5884 27.4979 25.7233 27.142 27.8081 26.4304L28.8247 31.666C26.2824 32.7327 23.1818 33.2418 19.8269 33.2418C11.3882 33.2418 6.55859 28.362 6.55859 20.5333C6.55859 14.2295 10.5241 7.26569 19.1153 7.26569C27.1473 7.26569 30.1971 13.5179 30.1971 19.6692C30.1971 20.9908 30.0446 22.1599 29.943 22.7699L13.9298 22.719Z" fill="#2C5AA2"/>
<path d="M64.0035 1.11293V7.87417H69.5448V13.5672H64.0035V22.6173C64.0035 25.6163 64.766 26.9881 67.0534 26.9881C68.1216 26.9881 68.6299 26.9379 69.3415 26.7854L69.3923 32.6317C68.4266 32.9868 66.5458 33.2918 64.4102 33.2918C61.9195 33.2918 59.8354 32.427 58.5639 31.1562C57.1407 29.6821 56.429 27.2937 56.429 23.7857V13.5672H53.125V7.87417H56.429V3.19771L64.0035 1.11293Z" fill="#2C5AA2"/>
<path d="M74.0607 16.0587C74.0607 12.3982 74.0099 10.0091 73.8574 7.8735H80.4662L80.7711 12.4998H80.9745C82.2452 8.83999 85.2443 7.31507 87.6849 7.31507C88.3965 7.31507 88.7523 7.36519 89.3115 7.46685V14.7364C88.6507 14.6347 88.0407 14.5338 87.1766 14.5338C84.3293 14.5338 82.3977 16.0079 81.8894 18.4478C81.7878 18.9561 81.7369 19.5152 81.7369 20.176V32.732H74.0099L74.0607 16.0587Z" fill="#2C5AA2"/>
<path d="M105.984 20.99C101.918 20.99 98.7653 21.9558 98.7653 24.9047C98.7653 26.8871 100.087 27.8529 101.816 27.8529C103.697 27.8529 105.323 26.5814 105.831 25.0064C105.933 24.599 105.984 24.1422 105.984 23.684V20.99ZM113.457 26.7346C113.457 29.0728 113.559 31.3602 113.864 32.732H106.899L106.441 30.2419H106.289C104.662 32.2251 102.121 33.2918 99.1726 33.2918C94.1397 33.2918 91.1406 29.6313 91.1406 25.6672C91.1406 19.2109 96.9354 16.1603 105.73 16.1603V15.8554C105.73 14.5337 105.018 12.653 101.205 12.653C98.6636 12.653 95.9696 13.5171 94.343 14.4829L92.9197 9.55231C94.648 8.58581 98.0536 7.31574 102.578 7.31574C110.864 7.31574 113.457 12.1955 113.457 18.0418V26.7346Z" fill="#2C5AA2"/>
<path d="M124.378 7.87421L127.733 19.4143C128.343 21.4983 128.75 23.4807 129.157 25.4632H129.309C129.716 23.4299 130.123 21.5492 130.682 19.4143L133.884 7.87421H142.018L132.766 32.732H125.039L115.99 7.87421H124.378Z" fill="#2C5AA2"/>
<path d="M159.666 17.4319C159.666 15.602 158.853 12.3996 155.345 12.3996C152.041 12.3996 150.719 15.3987 150.516 17.4319H159.666ZM150.567 22.719C150.821 25.9729 153.973 27.4979 157.582 27.4979C160.225 27.4979 162.36 27.142 164.444 26.4304L165.461 31.666C162.919 32.7327 159.818 33.2418 156.464 33.2418C148.025 33.2418 143.195 28.362 143.195 20.5333C143.195 14.2295 147.161 7.26569 155.752 7.26569C163.784 7.26569 166.834 13.5179 166.834 19.6692C166.834 20.9908 166.682 22.1599 166.58 22.7699L150.567 22.719Z" fill="#2C5AA2"/>
<path d="M171.457 -3.36001H179.183V32.7328H171.457V-3.36001Z" fill="#2C5AA2"/>
<path d="M258.184 15.804C258.184 12.7033 258.081 10.1109 257.98 7.87436H264.691L265.047 11.3309H265.198C266.216 9.70357 268.707 7.31451 272.875 7.31451C277.958 7.31451 281.772 10.7209 281.772 18.0413V32.7328H274.044V18.9562C274.044 15.7539 272.926 13.5674 270.13 13.5674C267.995 13.5674 266.724 15.0415 266.165 16.4648C265.962 16.9731 265.91 17.6855 265.91 18.3971V32.7328H258.184V15.804Z" fill="#2C5AA2"/>
<path d="M303.023 17.4326C303.023 15.6027 302.21 12.3996 298.703 12.3996C295.398 12.3996 294.076 15.3994 293.873 17.4326H303.023ZM293.924 22.719C294.178 25.9729 297.33 27.4979 300.939 27.4979C303.583 27.4979 305.717 27.142 307.802 26.4304L308.819 31.6674C306.277 32.7342 303.176 33.2418 299.821 33.2418C291.382 33.2418 286.553 28.3627 286.553 20.534C286.553 14.2302 290.518 7.26569 299.109 7.26569C307.141 7.26569 310.191 13.5179 310.191 19.6692C310.191 20.9908 310.039 22.1599 309.937 22.7706L293.924 22.719Z" fill="#2C5AA2"/>
<path d="M319.947 7.8742L323.658 20.0744C324.065 21.5485 324.573 23.3791 324.878 24.7007H325.03C325.386 23.3791 325.793 21.4983 326.149 20.0744L329.199 7.8742H337.485L331.69 24.2432C328.132 34.1051 325.742 38.0198 322.946 40.5098C320.303 42.8488 317.457 43.7129 315.473 43.9169L313.846 37.4106C314.813 37.2058 316.033 36.7483 317.202 36.0875C318.372 35.4783 319.693 34.2068 320.404 32.9868C320.659 32.5802 320.811 32.2244 320.811 31.8686C320.811 31.6151 320.76 31.2078 320.506 30.5971L311.355 7.8742H319.947Z" fill="#2C5AA2"/>
<path fill-rule="evenodd" clip-rule="evenodd" d="M248.166 20.7929C248.166 25.6339 244.689 29.5591 240.401 29.5591C236.112 29.5591 232.635 25.6339 232.635 20.7929C232.635 15.952 236.112 12.0267 240.401 12.0267C244.689 12.0267 248.166 15.952 248.166 20.7929Z" fill="#E3373A"/>
<path d="M48.3026 21.9567L55.6675 32.7328H47.0778L44.623 28.4369" fill="#2C5AA2"/>
<path d="M39.8476 20.1642L31.2578 32.7328H39.8476L47.0296 20.1642L40.1419 7.8094H31.6108L39.8476 20.1642Z" fill="#E3373A"/>
<path d="M240.596 21.4419V21.7094C240.858 21.6727 240.831 21.4468 240.596 21.4419ZM240.592 21.9756V22.1627H240.323V21.9728C240.169 21.9509 239.885 21.8068 239.869 21.4976H240.152C240.17 21.576 240.194 21.6713 240.323 21.7073V21.3967C240.145 21.3727 239.89 21.2978 239.89 21.0218C239.89 20.7133 240.244 20.6166 240.323 20.6166V20.4295H240.589V20.6166C240.769 20.6264 241.03 20.7719 241.03 21.0479H240.75C240.743 20.9653 240.676 20.8862 240.592 20.8799V21.1651C240.807 21.1863 241.059 21.2654 241.059 21.5442C241.059 21.7878 240.806 21.9643 240.592 21.9756ZM240.46 20.2607C239.859 20.2607 239.373 20.7309 239.373 21.3112C239.373 21.8923 239.859 22.3618 240.46 22.3618C241.059 22.3618 241.546 21.8923 241.546 21.3112C241.546 20.7316 241.059 20.2607 240.46 20.2607ZM240.324 21.1192V20.8827C240.131 20.9159 240.135 21.1164 240.324 21.1192Z" fill="#C1343E"/>
<path d="M242.663 21.1411H242.911V21.367H242.709C242.734 21.5746 242.61 21.6614 242.603 21.7313H242.794H243.276V21.9565H242.269V21.7313C242.385 21.6565 242.444 21.4701 242.407 21.3691H242.197V21.1383H242.365C242.32 21.0345 242.32 20.9999 242.32 20.9088C242.32 20.8171 242.398 20.5184 242.805 20.5205C243.18 20.5227 243.289 20.8213 243.289 21.0345H243.003C242.984 20.906 242.931 20.7994 242.808 20.7994C242.619 20.7994 242.618 20.9152 242.618 20.954C242.618 20.9928 242.624 21.0896 242.663 21.1411ZM242.774 20.2607C242.175 20.2607 241.688 20.7316 241.688 21.3112C241.688 21.8923 242.175 22.3618 242.774 22.3618C243.374 22.3618 243.861 21.8923 243.861 21.3112C243.861 20.7316 243.374 20.2607 242.774 20.2607Z" fill="#C1343E"/>
<path d="M238.613 21.4729V21.7292H238.275V22.0885H237.986V21.7292H237.625V21.4779H237.991L237.514 20.6667H237.83L238.123 21.1658L238.44 20.6667H238.732L238.26 21.4722H238.613V21.4729ZM238.126 20.2607C237.526 20.2607 237.039 20.7316 237.039 21.3112C237.039 21.8923 237.526 22.3618 238.126 22.3618C238.725 22.3618 239.212 21.8923 239.212 21.3112C239.212 20.7316 238.725 20.2607 238.126 20.2607Z" fill="#C1343E"/>
<path fill-rule="evenodd" clip-rule="evenodd" d="M238.029 19.3125L243.278 17.2658L239.114 16.6975L237.032 17.5454L238.029 19.3125ZM235.053 21.0817L237.52 20.118L238.247 19.8349L243.866 17.6442L244.961 17.2171L246.435 16.6432C247.088 16.3876 249.315 16.2111 249.553 16.9658C249.792 17.7191 247.955 19.1289 247.301 19.3831L244.949 20.3016C245.046 20.0326 245.309 19.3019 245.413 18.9793L244.751 19.1946C243.66 22.2642 242.209 24.6526 240.394 27.1376C239.569 27.473 239.384 27.5563 238.557 27.8909L238.555 22.7958L234.606 24.3335C233.203 24.8827 231.568 20.435 231.229 19.8907L232.896 19.2405L235.053 21.0817Z" fill="white"/>
<path d="M185.212 15.8917C185.212 12.7903 185.109 10.198 185.008 7.96139H191.566L191.871 11.3169H192.023C193.091 9.68965 195.327 7.35142 199.547 7.35142C202.801 7.35142 205.291 9.02884 206.358 11.6219H206.461C207.426 10.2996 208.494 9.283 209.715 8.57137C211.086 7.8089 212.611 7.35142 214.441 7.35142C219.221 7.35142 222.829 10.7063 222.829 18.1791V32.8199H215.306V19.2974C215.306 15.6884 214.137 13.6043 211.645 13.6043C209.815 13.6043 208.595 14.8243 208.036 16.2984C207.883 16.8575 207.783 17.62 207.783 18.2808V32.8199H200.258V18.8399C200.258 15.7392 199.14 13.6043 196.65 13.6043C194.666 13.6043 193.497 15.1293 193.04 16.3492C192.786 16.9592 192.735 17.6708 192.735 18.3316V32.8199H185.212V15.8917Z" fill="#2C5AA2"/>
<path d="M241.17 7.03449C233.138 7.03449 227.852 12.1684 227.852 20.2004C227.852 28.2324 233.443 33.0106 240.713 33.0106H240.763C247.372 33.0106 253.828 28.8431 253.828 19.7938C253.828 12.2701 248.745 7.03449 241.17 7.03449Z" fill="#E3373A"/>
<path d="M243.519 16.8434L239.355 16.2751L237.273 17.123L238.27 18.8901L243.519 16.8434Z" fill="white"/>
<path d="M247.185 16.0912L247.184 16.0919C246.975 16.1286 246.793 16.1724 246.672 16.2204L245.198 16.7944L244.102 17.2215L238.484 19.4122L237.757 19.6946L235.289 20.659L233.132 18.8177L231.465 19.468L234.709 23.958L238.791 22.479V22.3724L238.794 27.4682L240.631 26.7149L244.866 18.9928L245.65 18.5565L244.987 20.008L245.951 19.5802L247.415 19.0077L247.537 18.9596L251.004 17.5823C251.004 17.5823 249.378 15.3083 247.185 16.0912Z" fill="white"/>
</g>
<defs>
<clipPath id="clip0_1253_18011">
<rect width="360" height="43.2" fill="white" transform="translate(0 0.635193)"/>
</clipPath>
</defs>
</svg>
