<svg width="883" height="883" viewBox="0 0 883 883" fill="none" xmlns="http://www.w3.org/2000/svg">
<g opacity="0.4">
<path d="M785.5 441.5C785.5 631.486 631.486 785.5 441.5 785.5C251.514 785.5 97.5 631.486 97.5 441.5C97.5 251.514 251.514 97.5 441.5 97.5C631.486 97.5 785.5 251.514 785.5 441.5Z" stroke="url(#paint0_linear_1565_22618)" stroke-opacity="0.4"/>
<path d="M684.5 441C684.5 574.929 575.929 683.5 442 683.5C308.071 683.5 199.5 574.929 199.5 441C199.5 307.071 308.071 198.5 442 198.5C575.929 198.5 684.5 307.071 684.5 441Z" stroke="url(#paint1_linear_1565_22618)" stroke-opacity="0.4"/>
<path d="M882.5 441.5C882.5 685.058 685.058 882.5 441.5 882.5C197.942 882.5 0.5 685.058 0.5 441.5C0.5 197.942 197.942 0.5 441.5 0.5C685.058 0.5 882.5 197.942 882.5 441.5Z" stroke="url(#paint2_linear_1565_22618)" stroke-opacity="0.4"/>
<rect x="653" y="30" width="64" height="64" rx="32" fill="white"/>
<rect x="653.681" y="30.6809" width="62.6383" height="62.6383" rx="31.3191" stroke="black" stroke-opacity="0.1" stroke-width="1.3617"/>
<rect x="653.681" y="30.6809" width="62.6383" height="62.6383" rx="31.3191" stroke="url(#paint3_linear_1565_22618)" stroke-opacity="0.6" stroke-width="1.3617"/>
<path d="M693.937 67.1069C693.935 68.6638 693.315 70.1562 692.215 71.2571C691.114 72.3579 689.621 72.9773 688.064 72.9793H685.767V75.2772C685.767 75.4803 685.686 75.6751 685.542 75.8188C685.399 75.9624 685.204 76.0431 685.001 76.0431C684.797 76.0431 684.603 75.9624 684.459 75.8188C684.315 75.6751 684.235 75.4803 684.235 75.2772V72.9793H681.937C680.38 72.9773 678.887 72.3579 677.787 71.2571C676.686 70.1562 676.066 68.6638 676.064 67.1069C676.064 66.9038 676.145 66.709 676.289 66.5653C676.432 66.4217 676.627 66.341 676.83 66.341C677.034 66.341 677.228 66.4217 677.372 66.5653C677.516 66.709 677.596 66.9038 677.596 67.1069C677.596 68.2581 678.054 69.3621 678.868 70.1761C679.682 70.9901 680.786 71.4474 681.937 71.4474H688.064C689.216 71.4474 690.32 70.9901 691.134 70.1761C691.948 69.3621 692.405 68.2581 692.405 67.1069C692.405 65.9558 691.948 64.8518 691.134 64.0378C690.32 63.2238 689.216 62.7665 688.064 62.7665H682.958C681.401 62.7665 679.907 62.1478 678.806 61.0465C677.704 59.9453 677.086 58.4516 677.086 56.8942C677.086 55.3367 677.704 53.8431 678.806 52.7418C679.907 51.6405 681.401 51.0218 682.958 51.0218H684.235V48.724C684.235 48.5208 684.315 48.326 684.459 48.1824C684.603 48.0387 684.797 47.958 685.001 47.958C685.204 47.958 685.399 48.0387 685.542 48.1824C685.686 48.326 685.767 48.5208 685.767 48.724V51.0218H687.043C688.6 51.0239 690.092 51.6432 691.193 52.744C692.294 53.8449 692.913 55.3374 692.916 56.8942C692.916 57.0973 692.835 57.2921 692.691 57.4358C692.548 57.5794 692.353 57.6601 692.15 57.6601C691.946 57.6601 691.752 57.5794 691.608 57.4358C691.464 57.2921 691.384 57.0973 691.384 56.8942C691.384 55.743 690.926 54.639 690.112 53.825C689.298 53.011 688.194 52.5538 687.043 52.5538H682.958C681.807 52.5538 680.703 53.011 679.889 53.825C679.075 54.639 678.618 55.743 678.618 56.8942C678.618 58.0453 679.075 59.1493 679.889 59.9633C680.703 60.7773 681.807 61.2346 682.958 61.2346H688.064C689.621 61.2366 691.114 61.856 692.215 62.9568C693.315 64.0576 693.935 65.5501 693.937 67.1069Z" fill="#0E51A0" fill-opacity="0.6"/>
<path d="M693.937 67.1069C693.935 68.6638 693.315 70.1562 692.215 71.2571C691.114 72.3579 689.621 72.9773 688.064 72.9793H685.767V75.2772C685.767 75.4803 685.686 75.6751 685.542 75.8188C685.399 75.9624 685.204 76.0431 685.001 76.0431C684.797 76.0431 684.603 75.9624 684.459 75.8188C684.315 75.6751 684.235 75.4803 684.235 75.2772V72.9793H681.937C680.38 72.9773 678.887 72.3579 677.787 71.2571C676.686 70.1562 676.066 68.6638 676.064 67.1069C676.064 66.9038 676.145 66.709 676.289 66.5653C676.432 66.4217 676.627 66.341 676.83 66.341C677.034 66.341 677.228 66.4217 677.372 66.5653C677.516 66.709 677.596 66.9038 677.596 67.1069C677.596 68.2581 678.054 69.3621 678.868 70.1761C679.682 70.9901 680.786 71.4474 681.937 71.4474H688.064C689.216 71.4474 690.32 70.9901 691.134 70.1761C691.948 69.3621 692.405 68.2581 692.405 67.1069C692.405 65.9558 691.948 64.8518 691.134 64.0378C690.32 63.2238 689.216 62.7665 688.064 62.7665H682.958C681.401 62.7665 679.907 62.1478 678.806 61.0465C677.704 59.9453 677.086 58.4516 677.086 56.8942C677.086 55.3367 677.704 53.8431 678.806 52.7418C679.907 51.6405 681.401 51.0218 682.958 51.0218H684.235V48.724C684.235 48.5208 684.315 48.326 684.459 48.1824C684.603 48.0387 684.797 47.958 685.001 47.958C685.204 47.958 685.399 48.0387 685.542 48.1824C685.686 48.326 685.767 48.5208 685.767 48.724V51.0218H687.043C688.6 51.0239 690.092 51.6432 691.193 52.744C692.294 53.8449 692.913 55.3374 692.916 56.8942C692.916 57.0973 692.835 57.2921 692.691 57.4358C692.548 57.5794 692.353 57.6601 692.15 57.6601C691.946 57.6601 691.752 57.5794 691.608 57.4358C691.464 57.2921 691.384 57.0973 691.384 56.8942C691.384 55.743 690.926 54.639 690.112 53.825C689.298 53.011 688.194 52.5538 687.043 52.5538H682.958C681.807 52.5538 680.703 53.011 679.889 53.825C679.075 54.639 678.618 55.743 678.618 56.8942C678.618 58.0453 679.075 59.1493 679.889 59.9633C680.703 60.7773 681.807 61.2346 682.958 61.2346H688.064C689.621 61.2366 691.114 61.856 692.215 62.9568C693.315 64.0576 693.935 65.5501 693.937 67.1069Z" fill="url(#paint4_linear_1565_22618)" fill-opacity="0.6"/>
<rect x="188" y="22" width="64" height="64" rx="32" fill="white"/>
<rect x="188.681" y="22.6809" width="62.6383" height="62.6383" rx="31.3191" stroke="url(#paint5_linear_1565_22618)" stroke-opacity="0.6" stroke-width="1.3617"/>
<path d="M229.276 47.1909C229.276 47.394 229.196 47.5889 229.052 47.7325C228.908 47.8761 228.714 47.9568 228.511 47.9568H224.131C224.157 48.2113 224.17 48.467 224.17 48.7228C224.168 50.6858 223.387 52.5677 221.999 53.9558C220.611 55.3438 218.729 56.1247 216.766 56.1271H214.151L223.915 65.0071C224.065 65.1438 224.155 65.3347 224.164 65.5378C224.174 65.7408 224.103 65.9393 223.966 66.0896C223.829 66.2399 223.638 66.3298 223.435 66.3393C223.232 66.3489 223.034 66.2775 222.883 66.1407L211.649 55.9279C211.534 55.8236 211.454 55.6869 211.419 55.5359C211.383 55.3849 211.395 55.2267 211.451 55.0823C211.507 54.9378 211.606 54.8139 211.735 54.7269C211.863 54.6399 212.015 54.594 212.17 54.5951H216.766C218.323 54.5931 219.815 53.9738 220.916 52.8729C222.017 51.7721 222.636 50.2796 222.638 48.7228C222.637 48.4667 222.62 48.2108 222.587 47.9568H212.17C211.967 47.9568 211.772 47.8761 211.628 47.7325C211.485 47.5889 211.404 47.394 211.404 47.1909C211.404 46.9877 211.485 46.7929 211.628 46.6493C211.772 46.5056 211.967 46.4249 212.17 46.4249H222.17C221.718 45.3655 220.965 44.4621 220.004 43.8267C219.044 43.1913 217.918 42.8518 216.766 42.8505H212.17C211.967 42.8505 211.772 42.7698 211.628 42.6261C211.485 42.4825 211.404 42.2876 211.404 42.0845C211.404 41.8814 211.485 41.6865 211.628 41.5429C211.772 41.3992 211.967 41.3185 212.17 41.3185H228.511C228.714 41.3185 228.908 41.3992 229.052 41.5429C229.196 41.6865 229.276 41.8814 229.276 42.0845C229.276 42.2876 229.196 42.4825 229.052 42.6261C228.908 42.7698 228.714 42.8505 228.511 42.8505H221.268C222.453 43.7602 223.337 45.0058 223.804 46.4249H228.511C228.714 46.4249 228.908 46.5056 229.052 46.6493C229.196 46.7929 229.276 46.9877 229.276 47.1909Z" fill="#0E51A0" fill-opacity="0.6"/>
<path d="M229.276 47.1909C229.276 47.394 229.196 47.5889 229.052 47.7325C228.908 47.8761 228.714 47.9568 228.511 47.9568H224.131C224.157 48.2113 224.17 48.467 224.17 48.7228C224.168 50.6858 223.387 52.5677 221.999 53.9558C220.611 55.3438 218.729 56.1247 216.766 56.1271H214.151L223.915 65.0071C224.065 65.1438 224.155 65.3347 224.164 65.5378C224.174 65.7408 224.103 65.9393 223.966 66.0896C223.829 66.2399 223.638 66.3298 223.435 66.3393C223.232 66.3489 223.034 66.2775 222.883 66.1407L211.649 55.9279C211.534 55.8236 211.454 55.6869 211.419 55.5359C211.383 55.3849 211.395 55.2267 211.451 55.0823C211.507 54.9378 211.606 54.8139 211.735 54.7269C211.863 54.6399 212.015 54.594 212.17 54.5951H216.766C218.323 54.5931 219.815 53.9738 220.916 52.8729C222.017 51.7721 222.636 50.2796 222.638 48.7228C222.637 48.4667 222.62 48.2108 222.587 47.9568H212.17C211.967 47.9568 211.772 47.8761 211.628 47.7325C211.485 47.5889 211.404 47.394 211.404 47.1909C211.404 46.9877 211.485 46.7929 211.628 46.6493C211.772 46.5056 211.967 46.4249 212.17 46.4249H222.17C221.718 45.3655 220.965 44.4621 220.004 43.8267C219.044 43.1913 217.918 42.8518 216.766 42.8505H212.17C211.967 42.8505 211.772 42.7698 211.628 42.6261C211.485 42.4825 211.404 42.2876 211.404 42.0845C211.404 41.8814 211.485 41.6865 211.628 41.5429C211.772 41.3992 211.967 41.3185 212.17 41.3185H228.511C228.714 41.3185 228.908 41.3992 229.052 41.5429C229.196 41.6865 229.276 41.8814 229.276 42.0845C229.276 42.2876 229.196 42.4825 229.052 42.6261C228.908 42.7698 228.714 42.8505 228.511 42.8505H221.268C222.453 43.7602 223.337 45.0058 223.804 46.4249H228.511C228.714 46.4249 228.908 46.5056 229.052 46.6493C229.196 46.7929 229.276 46.9877 229.276 47.1909Z" fill="url(#paint6_linear_1565_22618)" fill-opacity="0.6"/>
<rect x="612" y="801" width="64" height="64" rx="32" fill="white"/>
<rect x="612.681" y="801.681" width="62.6383" height="62.6383" rx="31.3191" stroke="black" stroke-opacity="0.1" stroke-width="1.3617"/>
<rect x="612.681" y="801.681" width="62.6383" height="62.6383" rx="31.3191" stroke="url(#paint7_linear_1565_22618)" stroke-opacity="0.6" stroke-width="1.3617"/>
<path d="M651.038 840.701C651.105 840.776 651.157 840.863 651.19 840.958C651.224 841.053 651.238 841.154 651.232 841.255C651.227 841.355 651.202 841.454 651.158 841.544C651.114 841.635 651.053 841.716 650.978 841.783C649.594 843.021 647.891 843.846 646.062 844.167C644.234 844.488 642.352 844.291 640.629 843.599C638.906 842.907 637.411 841.747 636.313 840.25C635.215 838.753 634.557 836.978 634.414 835.127H632.084C631.881 835.127 631.686 835.047 631.543 834.903C631.399 834.759 631.318 834.565 631.318 834.361C631.318 834.158 631.399 833.963 631.543 833.82C631.686 833.676 631.881 833.595 632.084 833.595H634.382V831.042H632.084C631.881 831.042 631.686 830.962 631.543 830.818C631.399 830.674 631.318 830.479 631.318 830.276C631.318 830.073 631.399 829.878 631.543 829.735C631.686 829.591 631.881 829.51 632.084 829.51H634.414C634.557 827.659 635.215 825.885 636.313 824.388C637.411 822.891 638.906 821.731 640.629 821.039C642.352 820.346 644.234 820.15 646.062 820.47C647.891 820.791 649.594 821.617 650.978 822.854C651.13 822.99 651.223 823.18 651.235 823.383C651.247 823.587 651.177 823.787 651.042 823.939C650.906 824.092 650.716 824.184 650.512 824.196C650.309 824.208 650.109 824.138 649.957 824.003C648.793 822.963 647.364 822.266 645.828 821.991C644.292 821.716 642.71 821.872 641.258 822.443C639.806 823.014 638.54 823.977 637.603 825.225C636.667 826.473 636.094 827.956 635.951 829.51H644.34C644.543 829.51 644.738 829.591 644.881 829.735C645.025 829.878 645.106 830.073 645.106 830.276C645.106 830.479 645.025 830.674 644.881 830.818C644.738 830.962 644.543 831.042 644.34 831.042H635.914V833.595H642.297C642.5 833.595 642.695 833.676 642.839 833.82C642.982 833.963 643.063 834.158 643.063 834.361C643.063 834.565 642.982 834.759 642.839 834.903C642.695 835.047 642.5 835.127 642.297 835.127H635.951C636.093 836.682 636.664 838.166 637.601 839.415C638.537 840.664 639.802 841.628 641.255 842.2C642.707 842.772 644.29 842.929 645.826 842.654C647.363 842.379 648.793 841.682 649.957 840.642C650.108 840.507 650.307 840.437 650.509 840.448C650.712 840.459 650.902 840.55 651.038 840.701Z" fill="#0E51A0" fill-opacity="0.6"/>
<path d="M651.038 840.701C651.105 840.776 651.157 840.863 651.19 840.958C651.224 841.053 651.238 841.154 651.232 841.255C651.227 841.355 651.202 841.454 651.158 841.544C651.114 841.635 651.053 841.716 650.978 841.783C649.594 843.021 647.891 843.846 646.062 844.167C644.234 844.488 642.352 844.291 640.629 843.599C638.906 842.907 637.411 841.747 636.313 840.25C635.215 838.753 634.557 836.978 634.414 835.127H632.084C631.881 835.127 631.686 835.047 631.543 834.903C631.399 834.759 631.318 834.565 631.318 834.361C631.318 834.158 631.399 833.963 631.543 833.82C631.686 833.676 631.881 833.595 632.084 833.595H634.382V831.042H632.084C631.881 831.042 631.686 830.962 631.543 830.818C631.399 830.674 631.318 830.479 631.318 830.276C631.318 830.073 631.399 829.878 631.543 829.735C631.686 829.591 631.881 829.51 632.084 829.51H634.414C634.557 827.659 635.215 825.885 636.313 824.388C637.411 822.891 638.906 821.731 640.629 821.039C642.352 820.346 644.234 820.15 646.062 820.47C647.891 820.791 649.594 821.617 650.978 822.854C651.13 822.99 651.223 823.18 651.235 823.383C651.247 823.587 651.177 823.787 651.042 823.939C650.906 824.092 650.716 824.184 650.512 824.196C650.309 824.208 650.109 824.138 649.957 824.003C648.793 822.963 647.364 822.266 645.828 821.991C644.292 821.716 642.71 821.872 641.258 822.443C639.806 823.014 638.54 823.977 637.603 825.225C636.667 826.473 636.094 827.956 635.951 829.51H644.34C644.543 829.51 644.738 829.591 644.881 829.735C645.025 829.878 645.106 830.073 645.106 830.276C645.106 830.479 645.025 830.674 644.881 830.818C644.738 830.962 644.543 831.042 644.34 831.042H635.914V833.595H642.297C642.5 833.595 642.695 833.676 642.839 833.82C642.982 833.963 643.063 834.158 643.063 834.361C643.063 834.565 642.982 834.759 642.839 834.903C642.695 835.047 642.5 835.127 642.297 835.127H635.951C636.093 836.682 636.664 838.166 637.601 839.415C638.537 840.664 639.802 841.628 641.255 842.2C642.707 842.772 644.29 842.929 645.826 842.654C647.363 842.379 648.793 841.682 649.957 840.642C650.108 840.507 650.307 840.437 650.509 840.448C650.712 840.459 650.902 840.55 651.038 840.701Z" fill="url(#paint8_linear_1565_22618)" fill-opacity="0.6"/>
</g>
<defs>
<linearGradient id="paint0_linear_1565_22618" x1="38.3351" y1="-154.011" x2="893.707" y2="1057.47" gradientUnits="userSpaceOnUse">
<stop stop-color="#0E51A0"/>
<stop offset="1" stop-color="#E31D1C"/>
</linearGradient>
<linearGradient id="paint1_linear_1565_22618" x1="157.62" y1="20.9442" x2="760.973" y2="875.484" gradientUnits="userSpaceOnUse">
<stop stop-color="#0E51A0"/>
<stop offset="1" stop-color="#E31D1C"/>
</linearGradient>
<linearGradient id="paint2_linear_1565_22618" x1="-75.183" y1="-321.688" x2="1021.03" y2="1230.9" gradientUnits="userSpaceOnUse">
<stop stop-color="#0E51A0"/>
<stop offset="1" stop-color="#E31D1C"/>
</linearGradient>
<linearGradient id="paint3_linear_1565_22618" x1="647.551" y1="6.68402" x2="727.005" y2="119.216" gradientUnits="userSpaceOnUse">
<stop stop-color="#0E51A0"/>
<stop offset="1" stop-color="#E31D1C"/>
</linearGradient>
<linearGradient id="paint4_linear_1565_22618" x1="674.543" y1="37.7263" x2="711.344" y2="70.895" gradientUnits="userSpaceOnUse">
<stop stop-color="#0E51A0"/>
<stop offset="1" stop-color="#E31D1C"/>
</linearGradient>
<linearGradient id="paint5_linear_1565_22618" x1="182.551" y1="-1.31598" x2="262.005" y2="111.216" gradientUnits="userSpaceOnUse">
<stop stop-color="#0E51A0"/>
<stop offset="1" stop-color="#E31D1C"/>
</linearGradient>
<linearGradient id="paint6_linear_1565_22618" x1="209.876" y1="32.2028" x2="242.838" y2="65.5591" gradientUnits="userSpaceOnUse">
<stop stop-color="#0E51A0"/>
<stop offset="1" stop-color="#E31D1C"/>
</linearGradient>
<linearGradient id="paint7_linear_1565_22618" x1="606.551" y1="777.684" x2="686.005" y2="890.216" gradientUnits="userSpaceOnUse">
<stop stop-color="#0E51A0"/>
<stop offset="1" stop-color="#E31D1C"/>
</linearGradient>
<linearGradient id="paint8_linear_1565_22618" x1="629.622" y1="811.578" x2="660.827" y2="848.262" gradientUnits="userSpaceOnUse">
<stop stop-color="#0E51A0"/>
<stop offset="1" stop-color="#E31D1C"/>
</linearGradient>
</defs>
</svg>
