<svg width="110" height="100" viewBox="0 0 110 100" fill="none" xmlns="http://www.w3.org/2000/svg">
<g clip-path="url(#clip0_3298_11252)">
<path d="M76.6811 85.0973L76.8125 85.9838C76.9839 87.1395 77.9258 88.0472 79.1249 88.2125L80.0447 88.3391L79.1249 88.4654C77.9258 88.6309 76.9839 89.5388 76.8125 90.6941L76.6811 91.5811L76.55 90.6941C76.3786 89.5388 75.4363 88.6309 74.2376 88.4654L73.3174 88.3391L74.2376 88.2125C75.4363 88.0472 76.3786 87.1395 76.55 85.9838L76.6811 85.0973Z" fill="#EE2441"/>
<path d="M80.1537 104.503C80.1537 109.048 59.266 112.732 33.5002 112.732C7.73405 112.732 -13.1533 109.048 -13.1533 104.503C-13.1533 99.9575 7.73405 96.273 33.5002 96.273C59.266 96.273 80.1537 99.9575 80.1537 104.503Z" fill="#5CCAE2"/>
<path d="M69.82 35.7272C69.6711 33.5906 68.2639 31.7104 66.2565 30.792C56.2396 26.2093 51.9518 20.7538 51.9518 20.7538C51.2262 21.1789 50.5272 21.6348 49.8535 22.1173C51.3986 23.0436 53.1542 23.9851 55.1374 24.8925C57.1445 25.811 58.6599 27.6867 58.7009 29.8278C58.9631 43.6098 33.4663 50.8236 33.4663 50.8236C33.1756 52.1932 33.0591 52.999 33.0591 52.999C65.6666 49.7386 70.1823 40.9204 69.82 35.7272Z" fill="#F9A819"/>
<path d="M69.8219 35.7263C69.673 33.5896 68.2659 31.7094 66.2584 30.791C56.2415 26.2083 51.9537 20.7528 51.9537 20.7528C51.2281 21.1779 50.5291 21.6339 49.8555 22.1163C51.4005 23.0426 53.1561 23.9841 55.1393 24.8916C57.1464 25.81 58.6619 27.6857 58.7028 29.8268C58.7345 31.4983 58.3851 33.0725 57.7502 34.5499C59.949 34.6766 61.784 35.7651 62.7013 38.013C63.5759 40.1558 63.1502 42.3632 61.7206 44.1767C59.996 46.3649 57.3833 47.9574 54.5736 49.0859C67.8373 45.0214 70.0813 39.4447 69.8219 35.7263Z" fill="#F8A015"/>
<path d="M66.2565 30.792C66.0574 30.701 65.8643 30.6089 65.6694 30.5169C65.5679 30.4692 65.4642 30.4218 65.3638 30.3741C65.0503 30.2237 64.7421 30.073 64.4407 29.9216C64.4286 29.9157 64.4179 29.9099 64.4062 29.904C64.1165 29.7588 63.8326 29.6125 63.5537 29.4663C63.4568 29.4155 63.3631 29.3643 63.2673 29.3131C63.0774 29.2119 62.8871 29.1109 62.7026 29.0096C62.5904 28.9482 62.4824 28.8867 62.372 28.8253C62.2088 28.7343 62.0457 28.6436 61.8868 28.5526C61.7721 28.4871 61.6613 28.4218 61.5487 28.3566C61.3991 28.2694 61.2488 28.1822 61.1027 28.0949C60.9912 28.0283 60.8826 27.9624 60.7735 27.8961C60.6321 27.8107 60.4917 27.7255 60.3542 27.64C60.2452 27.5727 60.1387 27.5058 60.0325 27.4388C59.9004 27.3554 59.7689 27.2719 59.6403 27.1892C59.5352 27.1216 59.4319 27.0543 59.3293 26.987C59.2039 26.9052 59.0807 26.8235 58.9588 26.7418C58.8594 26.6756 58.7604 26.6089 58.6631 26.543C58.5431 26.4613 58.4252 26.3803 58.3087 26.2992C58.2153 26.235 58.1231 26.1705 58.0322 26.1066C57.9165 26.0252 57.8032 25.9442 57.6909 25.8635C57.604 25.801 57.5175 25.7389 57.4327 25.6771C57.3215 25.5961 57.2139 25.5157 57.1064 25.4361C57.0255 25.376 56.945 25.3162 56.8662 25.2568C56.7594 25.1761 56.6561 25.0968 56.5527 25.0172C56.4794 24.9609 56.4045 24.9035 56.3329 24.8476C56.2275 24.7655 56.1267 24.6848 56.0255 24.6045C55.9607 24.5533 55.8944 24.5011 55.8317 24.4507C55.7213 24.3614 55.6155 24.2745 55.51 24.1876C55.4619 24.1475 55.411 24.1066 55.3636 24.0671C55.0619 23.8158 54.7808 23.5741 54.5207 23.3437C54.4741 23.3028 54.4317 23.2637 54.3864 23.2235C54.3048 23.1504 54.2222 23.0769 54.1445 23.0059C54.0957 22.9612 54.0501 22.9186 54.0027 22.8747C53.9343 22.8115 53.8659 22.7487 53.8011 22.6879C53.7527 22.6422 53.7074 22.5986 53.6607 22.5543C53.6016 22.4984 53.5425 22.4417 53.4865 22.3878C53.4424 22.3452 53.4007 22.3044 53.3586 22.2632C53.3052 22.2106 53.2518 22.1585 53.2012 22.108C53.1613 22.0682 53.1235 22.0304 53.0854 21.9919C53.038 21.9442 52.9917 21.8975 52.9475 21.8522C52.9112 21.8151 52.8774 21.7797 52.8432 21.7444C52.8015 21.7015 52.7612 21.6599 52.7231 21.6194C52.6914 21.5861 52.6608 21.5538 52.6312 21.5222C52.5945 21.4827 52.5596 21.4457 52.5254 21.4089C52.4994 21.3808 52.4741 21.3533 52.4495 21.3265C52.4185 21.2922 52.3893 21.2603 52.3605 21.2287C52.3377 21.2029 52.3152 21.1779 52.2938 21.1542C52.2689 21.126 52.2461 21.1006 52.224 21.0752C52.2055 21.0539 52.1866 21.033 52.1702 21.0137C52.1485 20.989 52.13 20.9674 52.1114 20.9458C52.099 20.931 52.0858 20.9155 52.0747 20.9025C52.0559 20.8805 52.0413 20.863 52.027 20.8455C52.0202 20.8376 52.0124 20.8283 52.0063 20.8211C51.9935 20.8053 51.985 20.7947 51.9764 20.7844C51.9729 20.7796 51.9679 20.7737 51.965 20.7703C51.9565 20.7597 51.9518 20.7538 51.9518 20.7538C36.4046 29.8584 33.0591 52.999 33.0591 52.999C50.757 30.7762 63.8244 30.9362 67.4624 31.524C67.0908 31.2424 66.6911 30.9907 66.2565 30.792Z" fill="#FABA26"/>
<path d="M47.0764 24.397C45.1459 26.1738 43.4577 28.1628 42.001 30.2541C42.1798 30.4107 48.6083 36.0268 49.7261 36.958C51.0058 36.1048 52.2298 35.3803 53.3987 34.7599C53.025 34.0935 47.8131 25.427 47.0764 24.397Z" fill="#FBC138"/>
<path d="M45.3677 26.1052C44.4746 27.06 43.6349 28.0543 42.8594 29.084C44.1201 30.2593 49.84 34.808 51.4777 35.8477C51.5881 35.7814 51.6957 35.721 51.8054 35.6561C49.3908 32.6346 47.0096 29.5874 45.3677 26.1052Z" fill="#FBCA54"/>
<path d="M3.90266 38.5938C4.02699 36.8119 5.20082 35.2438 6.87482 34.4778C15.2291 30.6553 18.8055 26.1056 18.8055 26.1056C19.4104 26.4603 19.9936 26.8404 20.5554 27.2428C19.2665 28.0156 17.8026 28.8009 16.1486 29.5576C14.4742 30.3236 13.2106 31.8879 13.1764 33.6733C12.9581 45.1683 34.2227 51.1844 34.2227 51.1844C34.4649 52.3271 34.5626 52.999 34.5626 52.999C7.36715 50.28 3.60057 42.9252 3.90266 38.5938Z" fill="#F9A819"/>
<path d="M3.90264 38.593C4.02697 36.811 5.2008 35.243 6.8748 34.477C15.2291 30.6545 18.8054 26.1048 18.8054 26.1048C19.4103 26.4594 19.9935 26.8395 20.5553 27.2419C19.2664 28.0148 17.8026 28.8 16.1486 29.5568C14.4742 30.3228 13.2106 31.8871 13.1764 33.6725C13.1501 35.0668 13.4415 36.3798 13.9708 37.6121C12.1369 37.7175 10.6065 38.6253 9.8416 40.5003C9.11237 42.2874 9.46719 44.1285 10.6592 45.6409C12.0977 47.4658 14.2769 48.7942 16.6206 49.7354C5.55811 46.3455 3.6864 41.6941 3.90264 38.593Z" fill="#F8A015"/>
<path d="M6.8758 34.4778C7.04217 34.4019 7.20319 34.325 7.36564 34.2484C7.45007 34.2086 7.53699 34.1691 7.62035 34.1289C7.88183 34.004 8.13869 33.8783 8.39055 33.752C8.40017 33.7471 8.40944 33.742 8.41905 33.7372C8.66059 33.616 8.89749 33.4941 9.12976 33.3722C9.21099 33.3296 9.28901 33.2871 9.36881 33.2441C9.52733 33.16 9.68586 33.0756 9.83976 32.9911C9.93345 32.9399 10.0236 32.8888 10.1155 32.8376C10.2516 32.7617 10.388 32.6859 10.5205 32.61C10.6157 32.5554 10.7083 32.5011 10.802 32.4465C10.927 32.3738 11.0524 32.301 11.1743 32.2282C11.2672 32.1729 11.3577 32.118 11.4489 32.0627C11.5665 31.9913 11.6837 31.9198 11.7988 31.8488C11.8892 31.7928 11.9779 31.7368 12.0667 31.6809C12.1771 31.6115 12.2865 31.5422 12.394 31.4728C12.4817 31.4165 12.5675 31.3605 12.6534 31.3042C12.7578 31.2359 12.8607 31.1679 12.9623 31.0999C13.0456 31.0443 13.1275 30.989 13.2088 30.9338C13.3089 30.8658 13.4076 30.7981 13.5048 30.7308C13.5825 30.6769 13.6594 30.6234 13.7349 30.5698C13.8318 30.5022 13.9259 30.4345 14.0199 30.3672C14.0923 30.3154 14.1646 30.2632 14.2351 30.2117C14.3277 30.1441 14.4179 30.0774 14.5076 30.0105C14.5746 29.9607 14.6423 29.9106 14.7075 29.8615C14.7969 29.7942 14.8828 29.7279 14.969 29.6616C15.0303 29.6143 15.0926 29.5665 15.1524 29.5202C15.2404 29.4515 15.3245 29.3846 15.4089 29.3169C15.4627 29.2743 15.518 29.2311 15.5703 29.1889C15.6626 29.1144 15.7506 29.0419 15.8386 28.9695C15.8792 28.9361 15.9212 28.9018 15.9608 28.8692C16.2126 28.6594 16.447 28.4579 16.6636 28.2656C16.7025 28.2316 16.7381 28.199 16.7759 28.1653C16.8439 28.1042 16.9127 28.0431 16.9775 27.984C17.0185 27.9466 17.0566 27.9109 17.0958 27.8745C17.1528 27.822 17.2101 27.7695 17.2639 27.7186C17.3045 27.6805 17.3423 27.6445 17.3811 27.6074C17.4303 27.5604 17.4798 27.5133 17.5265 27.4683C17.5632 27.433 17.5977 27.399 17.633 27.3643C17.6779 27.3204 17.722 27.2771 17.7641 27.2352C17.7976 27.2019 17.8289 27.17 17.861 27.1384C17.9005 27.0986 17.939 27.0594 17.976 27.0216C18.006 26.9911 18.0348 26.9612 18.063 26.932C18.0975 26.896 18.131 26.8613 18.1631 26.8277C18.1894 26.7998 18.2151 26.7731 18.2397 26.7466C18.2707 26.7137 18.2995 26.6828 18.3277 26.6522C18.3494 26.6285 18.3708 26.6055 18.3911 26.5835C18.4174 26.5547 18.4417 26.5279 18.4652 26.5018C18.4844 26.4805 18.5036 26.4592 18.5211 26.4397C18.5421 26.416 18.5606 26.395 18.5792 26.3737C18.5948 26.3559 18.6102 26.3384 18.6241 26.3226C18.6422 26.3016 18.6575 26.2838 18.6732 26.2659C18.6835 26.2532 18.6946 26.2405 18.7042 26.2295C18.7195 26.211 18.7316 26.1966 18.7438 26.1822C18.7491 26.1756 18.7559 26.1677 18.7609 26.1619C18.7715 26.1485 18.7787 26.1399 18.7858 26.1313C18.789 26.1272 18.7929 26.1224 18.7954 26.1193C18.8025 26.1104 18.8065 26.1056 18.8065 26.1056C31.7731 33.6991 34.5635 52.999 34.5635 52.999C19.8025 34.4644 8.90426 34.598 5.87012 35.0883C6.18005 34.8531 6.5135 34.6436 6.8758 34.4778Z" fill="#FABA26"/>
<path d="M22.8714 29.1426C24.4816 30.6244 25.8892 32.2838 27.1043 34.0281C26.9554 34.1582 21.5939 38.8425 20.6616 39.6191C19.594 38.9074 18.5733 38.3031 17.5986 37.7857C17.9103 37.2298 22.2569 30.002 22.8714 29.1426Z" fill="#FBC138"/>
<path d="M24.2941 30.5687C25.039 31.3649 25.7391 32.1944 26.3864 33.0531C25.3347 34.0334 20.5639 37.827 19.1984 38.6943C19.1061 38.6387 19.0164 38.5886 18.9248 38.5347C20.9387 36.0145 22.9247 33.473 24.2941 30.5687Z" fill="#FBCA54"/>
<path d="M33.4995 109.332V62.6717L71.285 70.0691L65.9713 103.642L33.4995 109.332Z" fill="#EE2137"/>
<path d="M33.5013 109.332V62.6717L-4.28418 70.0691L1.02922 103.642L33.5013 109.332Z" fill="#EE2441"/>
<path d="M70.699 73.7754L71.285 70.0707L33.4995 62.6732V67.7946L70.699 73.7754Z" fill="#DC2126"/>
<path d="M33.5013 62.6724L-4.28418 70.0698L-3.82142 72.9941L33.5013 67.7938V62.6724Z" fill="#ED202B"/>
<path d="M33.4979 62.672V50.1535L-8.42041 60.396L-6.56722 70.5186L33.4979 62.672Z" fill="#EE2441"/>
<path d="M33.4995 62.672V50.1535L75.4178 60.396L73.5646 70.5186L33.4995 62.672Z" fill="#EE2137"/>
<path d="M25.7298 95.8929L16.6227 99.1022L8.98054 93.3257L-0.0976562 96.5257L0.356557 99.3954L8.45187 96.5418L16.0933 102.317L25.2378 99.0956L33.5009 105.078V101.501L33.4884 101.511L25.7298 95.8929Z" fill="white"/>
<path d="M33.4865 94.8105L25.7278 89.1927L16.6208 92.4016L8.97858 86.6251L-1.10352 90.1795L-0.649303 93.0485L8.44991 89.8409L16.0914 95.6167L25.2358 92.3951L33.4989 98.3779V94.8013L33.4865 94.8105Z" fill="white"/>
<path d="M41.2706 95.8929L50.3777 99.1022L58.0199 93.3257L67.0977 96.5257L66.6435 99.3954L58.5485 96.5418L50.9071 102.317L41.7623 99.0956L33.4995 105.078V101.501L33.512 101.511L41.2706 95.8929Z" fill="#E0DDDB"/>
<path d="M33.512 94.8105L41.2706 89.1927L50.3777 92.4016L58.0199 86.6251L68.1023 90.1795L67.6478 93.0485L58.5485 89.8409L50.9071 95.6167L41.7623 92.3951L33.4995 98.3779V94.8013L33.512 94.8105Z" fill="#E0DDDB"/>
<path d="M45.6255 89.9092L47.2207 86.0036L52.2395 87.5816C49.987 85.2208 48.5367 82.2144 48.2047 78.989C47.7818 74.8805 49.6147 71.1709 50.5619 67.2626C50.7176 66.6202 50.8469 65.963 50.9481 65.2966C52.0133 58.2429 46.5303 51.7951 39.1432 51.4535C39.104 51.4518 39.0652 51.4501 39.0264 51.4483C39.0374 51.458 39.0474 51.4676 39.0606 51.4755C41.9009 53.8264 43.3223 57.5713 43.7224 61.092C44.1916 65.2235 43.105 69.0075 41.8963 72.9213C40.8856 76.1945 40.3844 79.4494 41.3056 82.8015C42.0512 85.5147 43.5557 87.9603 45.6255 89.9092Z" fill="#F9A819"/>
<path d="M42.8303 74.6676C43.7897 70.922 44.9304 67.5737 45.1613 63.6691C45.6329 55.7028 40.6323 51.5225 39.1432 51.4535C39.104 51.4518 39.0652 51.4501 39.0264 51.4483C39.0374 51.458 39.0474 51.4676 39.0606 51.4755C41.9009 53.8264 43.3223 57.5713 43.7224 61.092C44.1916 65.2235 43.105 69.0075 41.8963 72.9213C40.8856 76.1945 40.3844 79.4494 41.3056 82.8015C42.0512 85.5147 43.5557 87.9603 45.6255 89.9092C45.6255 89.9092 40.389 84.2017 42.8303 74.6676Z" fill="#F8A015"/>
<path d="M4.14702 74.8076L4.92399 71.4727L0.792969 70.3259C3.43025 69.7267 5.83313 68.3389 7.58621 66.3111C9.81916 63.7281 10.3425 60.4206 11.5573 57.369C11.7571 56.8673 11.9812 56.3674 12.2295 55.874C14.8558 50.6503 21.6084 48.719 26.7494 51.7425C26.7946 51.7717 26.7946 51.7933 26.7946 51.7933C23.7658 52.1271 21.032 54.0251 19.0929 56.2222C16.818 58.8004 15.7563 61.8291 14.7154 64.9995C13.8447 67.6509 12.6392 70.0656 10.4287 71.9197C8.63998 73.4198 6.46653 74.4056 4.14702 74.8076Z" fill="#F9A819"/>
<path d="M13.4292 66.0873C14.929 63.2979 15.2065 60.0591 16.9022 57.3254C20.3614 51.7484 25.714 51.1331 26.7503 51.7425C26.7777 51.7583 26.8084 51.794 26.7955 51.7933C23.7243 52.5727 21.0329 54.0251 19.0939 56.2222C16.8189 58.8004 15.7573 61.8291 14.7163 64.9995C13.8457 67.6509 12.6401 70.0656 10.4296 71.9197C8.64091 73.4198 6.46746 74.4056 4.14795 74.8076C4.14795 74.8076 9.12256 74.0972 13.4292 66.0873Z" fill="#F8A015"/>
<path d="M33.5165 13.1731L33.6479 14.0596C33.8193 15.2153 34.7612 16.1235 35.9603 16.2883L36.8802 16.4153L35.9603 16.5417C34.7612 16.7068 33.8193 17.6147 33.6479 18.7707L33.5165 19.6572L33.385 18.7707C33.214 17.6147 32.2718 16.7068 31.0727 16.5417L30.1528 16.4153L31.0727 16.2883C32.2718 16.1235 33.214 15.2153 33.385 14.0596L33.5165 13.1731Z" fill="#FABA26"/>
<path d="M15.4737 19.6256L15.5354 20.0431C15.6162 20.5873 16.0601 21.0151 16.6248 21.0931L17.058 21.1528L16.6248 21.2122C16.0601 21.2902 15.6162 21.7176 15.5354 22.2618L15.4737 22.6797L15.4118 22.2618C15.3312 21.7176 14.8874 21.2902 14.3227 21.2122L13.8892 21.1528L14.3227 21.0931C14.8874 21.0151 15.3312 20.5873 15.4118 20.0431L15.4737 19.6256Z" fill="white"/>
<path d="M75.4246 6.52794L75.4865 6.94579C75.5671 7.49 76.0109 7.91781 76.5756 7.9954L77.0091 8.05515L76.5756 8.11455C76.0109 8.19249 75.5671 8.62031 75.4865 9.16451L75.4246 9.58203L75.3629 9.16451C75.2824 8.62031 74.8382 8.19249 74.2735 8.11455L73.8403 8.05515L74.2735 7.9954C74.8382 7.91781 75.2824 7.49 75.3629 6.94579L75.4246 6.52794Z" fill="white"/>
<path d="M69.8385 24.5797L69.9005 24.9976C69.9806 25.5418 70.4245 25.9692 70.9895 26.0472L71.4227 26.1066L70.9895 26.1663C70.4245 26.2443 69.9806 26.6717 69.9005 27.2163L69.8385 27.6338L69.7765 27.2163C69.696 26.6717 69.2517 26.2443 68.6875 26.1663L68.2539 26.1066L68.6875 26.0472C69.2517 25.9692 69.696 25.5418 69.7765 24.9976L69.8385 24.5797Z" fill="#FABA26"/>
<path d="M33.5006 26.9518L33.5626 27.3693C33.6431 27.9135 34.0866 28.3416 34.6516 28.4192L35.0848 28.4786L34.6516 28.5384C34.0866 28.616 33.6431 29.0438 33.5626 29.5883L33.5006 30.0059L33.4386 29.5883C33.3581 29.0438 32.9142 28.616 32.3496 28.5384L31.916 28.4786L32.3496 28.4192C32.9142 28.3416 33.3581 27.9135 33.4386 27.3693L33.5006 26.9518Z" fill="white"/>
<path d="M64.094 13.1731L64.2251 14.0596C64.3961 15.2153 65.3387 16.1235 66.5375 16.2883L67.4577 16.4153L66.5375 16.5417C65.3387 16.7068 64.3961 17.6147 64.2251 18.7707L64.094 19.6572L63.9625 18.7707C63.7912 17.6147 62.8493 16.7068 61.6498 16.5417L60.73 16.4153L61.6498 16.2883C62.8493 16.1235 63.7912 15.2153 63.9625 14.0596L64.094 13.1731Z" fill="#FABA26"/>
<path d="M-1.59531 21.1539L-1.46351 22.0404C-1.29251 23.1961 -0.350238 24.104 0.848883 24.2691L1.76871 24.3958L0.848883 24.5222C-0.350238 24.6873 -1.29251 25.5955 -1.46351 26.7512L-1.59531 27.6377L-1.72642 26.7512C-1.89777 25.5955 -2.83968 24.6873 -4.0388 24.5222L-4.95898 24.3958L-4.0388 24.2691C-2.83968 24.104 -1.89777 23.1961 -1.72642 22.0404L-1.59531 21.1539Z" fill="#FABA26"/>
<path d="M50.2582 5.00058L50.5678 7.08952C50.6333 7.53278 50.9946 7.88092 51.4545 7.9441L53.6219 8.24248L51.4545 8.54085C50.9946 8.60403 50.6333 8.95217 50.5678 9.39543L50.2582 11.4844L49.9486 9.39543C49.8831 8.95217 49.5218 8.60403 49.0619 8.54085L46.8945 8.24248L49.0619 7.9441C49.5218 7.88092 49.8831 7.53278 49.9486 7.08952L50.2582 5.00058Z" fill="#FABA26"/>
<path d="M10.4315 6.52759L10.7411 8.61651C10.807 9.05977 11.1683 9.40827 11.6282 9.47144L13.7956 9.76983L11.6282 10.0678C11.1683 10.1314 10.807 10.4795 10.7411 10.9228L10.4315 13.0117L10.1223 10.9228C10.0564 10.4795 9.69518 10.1314 9.23527 10.0678L7.06787 9.76983L9.23527 9.47144C9.69518 9.40827 10.0564 9.05977 10.1223 8.61651L10.4315 6.52759Z" fill="#FABA26"/>
<path d="M74.9711 50.0297C83.8266 41.5442 101.413 24.2556 101.476 24.3163C101.539 24.3775 84.3909 42.1451 75.5354 50.6306C75.3726 50.7868 74.8083 50.1859 74.9711 50.0297Z" fill="white"/>
<path d="M80.2814 56.1703C90.8658 49.7843 108.861 38.5579 108.909 38.6303C108.956 38.7031 91.2779 50.4906 80.6935 56.8765C80.499 56.994 80.0868 56.2877 80.2814 56.1703Z" fill="white"/>
<path d="M84.043 63.2901C95.8315 59.3207 109.97 54.4699 110 54.5509C110.029 54.6319 96.0713 60.0973 84.2824 64.0664C84.0658 64.1396 83.8257 63.3629 84.043 63.2901Z" fill="white"/>
</g>
<defs>
<clipPath id="clip0_3298_11252">
<rect width="110" height="100" fill="white" transform="matrix(1 0 0 -1 0 100)"/>
</clipPath>
</defs>
</svg>
