<svg width="88" height="81" viewBox="0 0 88 81" fill="none" xmlns="http://www.w3.org/2000/svg">
<g id="g8">
<g id="g10">
<path id="path36" d="M19.0035 59.9792L19.0785 60.6375C19.1762 61.4957 19.7135 62.1698 20.3971 62.2925L20.9218 62.3865L20.3971 62.4803C19.7135 62.6032 19.1762 63.2774 19.0785 64.1353L19.0035 64.7939L18.9288 64.1353C18.8311 63.2774 18.2937 62.6032 17.6102 62.4803L17.0854 62.3865L17.6102 62.2925C18.2937 62.1698 18.8311 61.4957 18.9288 60.6375L19.0035 59.9792Z" fill="#EE2441"/>
<path id="path38" d="M68.246 59.9792L68.3209 60.6375C68.4186 61.4957 68.9557 62.1698 69.6395 62.2925L70.164 62.3865L69.6395 62.4803C68.9557 62.6032 68.4186 63.2774 68.3209 64.1353L68.246 64.7939L68.1712 64.1353C68.0735 63.2774 67.5362 62.6032 66.8526 62.4803L66.3279 62.3865L66.8526 62.2925C67.5362 62.1698 68.0735 61.4957 68.1712 60.6375L68.246 59.9792Z" fill="#EE2441"/>
<path id="path40" d="M70.2265 74.3887C70.2265 77.764 58.3156 80.5 43.6231 80.5C28.9304 80.5 17.0198 77.764 17.0198 74.3887C17.0198 71.0135 28.9304 68.2775 43.6231 68.2775C58.3156 68.2775 70.2265 71.0135 70.2265 74.3887Z" fill="#5CCAE2"/>
<path id="path42" d="M64.3336 23.3168C64.2487 21.7302 63.4463 20.334 62.3016 19.652C56.5896 16.2489 54.1446 12.1978 54.1446 12.1978C53.7308 12.5135 53.3322 12.8521 52.9481 13.2103C53.8291 13.8982 54.8302 14.5973 55.9611 15.2712C57.1056 15.9532 57.9698 17.3461 57.9931 18.936C58.1427 29.1703 43.6035 34.5271 43.6035 34.5271C43.4378 35.5442 43.3713 36.1426 43.3713 36.1426C61.9652 33.7214 64.5402 27.1732 64.3336 23.3168Z" fill="#F9A819"/>
<path id="path44" d="M64.3348 23.3166C64.2498 21.73 63.4474 20.3338 62.3027 19.6518C56.5908 16.2487 54.1457 12.1976 54.1457 12.1976C53.7319 12.5133 53.3334 12.8518 52.9492 13.2101C53.8302 13.898 54.8313 14.5971 55.9622 15.271C57.1067 15.953 57.9709 17.3459 57.9943 18.9358C58.0123 20.177 57.8131 21.346 57.4511 22.4431C58.7049 22.5372 59.7512 23.3454 60.2743 25.0147C60.7731 26.6059 60.5303 28.2451 59.7151 29.5918C58.7317 31.2167 57.2418 32.3992 55.6396 33.2373C63.203 30.219 64.4826 26.0779 64.3348 23.3166Z" fill="#F8A015"/>
<path id="path46" d="M62.3016 19.652C62.188 19.5844 62.0779 19.5161 61.9668 19.4477C61.9089 19.4123 61.8498 19.3771 61.7925 19.3417C61.6137 19.23 61.438 19.1181 61.2662 19.0056C61.2593 19.0013 61.2532 18.997 61.2465 18.9926C61.0813 18.8848 60.9194 18.7762 60.7604 18.6675C60.7051 18.6298 60.6517 18.5918 60.597 18.5538C60.4887 18.4786 60.3803 18.4037 60.275 18.3284C60.2111 18.2828 60.1495 18.2372 60.0865 18.1915C59.9935 18.124 59.9004 18.0567 59.8098 17.9891C59.7444 17.9404 59.6813 17.8919 59.6171 17.8435C59.5317 17.7787 59.446 17.714 59.3627 17.6492C59.2991 17.5998 59.2372 17.5508 59.175 17.5016C59.0944 17.4381 59.0143 17.3749 58.9359 17.3114C58.8738 17.2614 58.813 17.2117 58.7525 17.162C58.6771 17.1 58.6022 17.0381 58.5288 16.9766C58.4689 16.9264 58.41 16.8764 58.3515 16.8264C58.28 16.7658 58.2097 16.7051 58.1402 16.6444C58.0835 16.5952 58.0271 16.5457 57.9716 16.4968C57.9031 16.4361 57.8359 16.3759 57.7695 16.3157C57.7163 16.2681 57.6636 16.2201 57.6118 16.1727C57.5458 16.1123 57.4812 16.0521 57.4172 15.9922C57.3677 15.9458 57.3183 15.8996 57.27 15.8538C57.2066 15.7936 57.1452 15.7339 57.0839 15.6748C57.0378 15.6301 56.9919 15.5858 56.947 15.5417C56.886 15.4818 56.8271 15.4229 56.7682 15.3637C56.7263 15.3219 56.6837 15.2793 56.6428 15.2378C56.5827 15.1768 56.5252 15.1169 56.4675 15.0572C56.4306 15.0193 56.3928 14.9805 56.357 14.943C56.2941 14.8767 56.2337 14.8122 56.1736 14.7477C56.1462 14.7179 56.1171 14.6875 56.0901 14.6582C55.918 14.4716 55.7578 14.2921 55.6095 14.121C55.5829 14.0907 55.5587 14.0616 55.5329 14.0318C55.4864 13.9775 55.4392 13.9229 55.3949 13.8701C55.3671 13.837 55.3411 13.8054 55.3141 13.7727C55.2751 13.7258 55.2361 13.6792 55.1991 13.634C55.1715 13.6001 55.1457 13.5677 55.1191 13.5348C55.0854 13.4933 55.0516 13.4512 55.0197 13.4112C54.9945 13.3796 54.9708 13.3492 54.9468 13.3186C54.9163 13.2796 54.8859 13.2409 54.857 13.2034C54.8343 13.1738 54.8127 13.1458 54.791 13.1172C54.764 13.0818 54.7376 13.0471 54.7124 13.0134C54.6917 12.9859 54.6724 12.9596 54.6529 12.9334C54.6291 12.9015 54.6061 12.8707 54.5844 12.8406C54.5663 12.8158 54.5489 12.7919 54.532 12.7684C54.5111 12.7391 54.4912 12.7116 54.4717 12.6843C54.4568 12.6634 54.4424 12.643 54.4284 12.6231C54.4107 12.5976 54.3941 12.5739 54.3776 12.5504C54.3646 12.5313 54.3518 12.5127 54.3396 12.4951C54.3254 12.4742 54.3124 12.4553 54.2998 12.4365C54.2892 12.4207 54.2785 12.4051 54.2691 12.3908C54.2567 12.3725 54.2462 12.3564 54.2356 12.3403C54.2285 12.3294 54.221 12.3179 54.2147 12.3082C54.2039 12.2919 54.1956 12.2789 54.1875 12.2659C54.1836 12.26 54.1791 12.2531 54.1757 12.2478C54.1684 12.2361 54.1635 12.2282 54.1586 12.2205C54.1566 12.2169 54.1537 12.2126 54.1521 12.21C54.1472 12.2021 54.1446 12.1978 54.1446 12.1978C45.279 18.9587 43.3713 36.1426 43.3713 36.1426C53.4633 19.6402 60.9147 19.7591 62.9892 20.1956C62.7774 19.9865 62.5494 19.7996 62.3016 19.652Z" fill="#FABA26"/>
<path id="path48" d="M51.3646 14.9028C50.2638 16.2223 49.3011 17.6993 48.4705 19.2523C48.5724 19.3685 52.2381 23.539 52.8756 24.2305C53.6053 23.5969 54.3033 23.0589 54.9698 22.5982C54.7567 22.1033 51.7847 15.6677 51.3646 14.9028Z" fill="#FBC138"/>
<path id="path50" d="M50.39 16.1726C49.8808 16.8817 49.402 17.62 48.9597 18.3847C49.6786 19.2574 52.9403 22.6352 53.8741 23.4072C53.9371 23.358 53.9985 23.3131 54.061 23.265C52.6841 21.0213 51.3263 18.7585 50.39 16.1726Z" fill="#FBCA54"/>
<path id="path52" d="M26.7454 25.4455C26.8163 24.1223 27.4857 22.9578 28.4402 22.389C33.2041 19.5505 35.2435 16.172 35.2435 16.172C35.5884 16.4353 35.921 16.7176 36.2413 17.0164C35.5064 17.5903 34.6716 18.1734 33.7284 18.7354C32.7737 19.3042 32.0531 20.4658 32.0336 21.7916C31.9091 30.3276 44.0349 34.7951 44.0349 34.7951C44.173 35.6436 44.2287 36.1426 44.2287 36.1426C28.721 34.1235 26.5732 28.6619 26.7454 25.4455Z" fill="#F9A819"/>
<path id="path54" d="M26.7454 25.4456C26.8163 24.1223 27.4857 22.9579 28.4402 22.3891C33.2041 19.5506 35.2435 16.172 35.2435 16.172C35.5884 16.4354 35.921 16.7177 36.2413 17.0165C35.5063 17.5904 34.6716 18.1735 33.7284 18.7354C32.7737 19.3043 32.0531 20.4659 32.0336 21.7917C32.0186 22.8271 32.1848 23.8021 32.4866 24.7172C31.4408 24.7954 30.5681 25.4696 30.132 26.8619C29.7162 28.189 29.9185 29.5562 30.5982 30.6793C31.4185 32.0344 32.6611 33.0209 33.9976 33.7197C27.6894 31.2025 26.6221 27.7485 26.7454 25.4456Z" fill="#F8A015"/>
<path id="path56" d="M28.4404 22.389C28.5353 22.3327 28.6271 22.2756 28.7197 22.2187C28.7679 22.1891 28.8174 22.1598 28.865 22.13C29.0141 22.0372 29.1606 21.9438 29.3042 21.85C29.3097 21.8464 29.3149 21.8426 29.3204 21.8391C29.4582 21.7491 29.5933 21.6585 29.7257 21.568C29.772 21.5364 29.8165 21.5048 29.862 21.4729C29.9524 21.4105 30.0428 21.3477 30.1306 21.285C30.184 21.247 30.2354 21.209 30.2878 21.171C30.3654 21.1147 30.4432 21.0584 30.5188 21.002C30.573 20.9615 30.6258 20.9212 30.6793 20.8806C30.7506 20.8266 30.8221 20.7725 30.8915 20.7185C30.9446 20.6774 30.9962 20.6366 31.0482 20.5956C31.1152 20.5426 31.182 20.4895 31.2476 20.4367C31.2992 20.3952 31.3498 20.3536 31.4004 20.3121C31.4634 20.2606 31.5257 20.2091 31.5871 20.1576C31.6371 20.1157 31.686 20.0742 31.735 20.0324C31.7945 19.9816 31.8532 19.9312 31.9111 19.8807C31.9586 19.8394 32.0054 19.7983 32.0517 19.7573C32.1088 19.7068 32.165 19.6566 32.2205 19.6066C32.2648 19.5666 32.3087 19.5268 32.3517 19.487C32.407 19.4368 32.4606 19.3866 32.5142 19.3366C32.5555 19.2981 32.5967 19.2593 32.6369 19.2211C32.6898 19.1708 32.7412 19.1214 32.7923 19.0717C32.8305 19.0347 32.8691 18.9975 32.9063 18.961C32.9573 18.911 33.0063 18.8618 33.0554 18.8126C33.0904 18.7774 33.1259 18.742 33.16 18.7076C33.2102 18.6566 33.2581 18.6069 33.3063 18.5566C33.337 18.525 33.3685 18.4929 33.3983 18.4615C33.4509 18.4062 33.5011 18.3524 33.5513 18.2986C33.5744 18.2739 33.5984 18.2484 33.621 18.2242C33.7646 18.0684 33.8983 17.9187 34.0218 17.7759C34.0439 17.7507 34.0642 17.7265 34.0858 17.7015C34.1246 17.6561 34.1638 17.6107 34.2007 17.5669C34.2241 17.5391 34.2458 17.5126 34.2682 17.4855C34.3007 17.4465 34.3334 17.4075 34.3641 17.3698C34.3872 17.3415 34.4087 17.3147 34.4309 17.2872C34.4589 17.2522 34.4872 17.2173 34.5138 17.1839C34.5347 17.1576 34.5544 17.1324 34.5745 17.1067C34.6001 17.074 34.6253 17.0419 34.6493 17.0108C34.6684 16.9861 34.6862 16.9623 34.7045 16.9389C34.7271 16.9093 34.749 16.8802 34.7701 16.8522C34.7872 16.8295 34.8037 16.8073 34.8197 16.7857C34.8394 16.7589 34.8585 16.7331 34.8768 16.7081C34.8918 16.6875 34.9064 16.6676 34.9205 16.648C34.9381 16.6235 34.9546 16.6005 34.9706 16.5779C34.983 16.5603 34.9952 16.5432 35.0068 16.5269C35.0218 16.5054 35.0356 16.4856 35.0491 16.4662C35.06 16.4504 35.071 16.4346 35.0809 16.42C35.0929 16.4024 35.1035 16.3869 35.1141 16.3711C35.123 16.3578 35.1317 16.3448 35.1397 16.3331C35.15 16.3175 35.1588 16.3043 35.1677 16.291C35.1736 16.2816 35.1799 16.2722 35.1854 16.264C35.1941 16.2502 35.201 16.2395 35.2079 16.2288C35.211 16.224 35.2148 16.2181 35.2177 16.2138C35.2238 16.2038 35.2278 16.1974 35.2319 16.1911C35.2337 16.188 35.2359 16.1844 35.2374 16.1821C35.2414 16.1755 35.2437 16.172 35.2437 16.172C42.6377 21.8108 44.2289 36.1426 44.2289 36.1426C35.8117 22.3791 29.5971 22.4783 27.8669 22.8423C28.0437 22.6677 28.2338 22.5122 28.4404 22.389Z" fill="#FABA26"/>
<path id="path58" d="M37.5616 18.4273C38.4799 19.5277 39.2825 20.76 39.9754 22.0552C39.8905 22.1518 36.8332 25.6303 36.3016 26.207C35.6927 25.6785 35.1107 25.2297 34.5549 24.8455C34.7327 24.4327 37.2112 19.0655 37.5616 18.4273Z" fill="#FBC138"/>
<path id="path60" d="M38.3735 19.4875C38.7983 20.0788 39.1975 20.6948 39.5666 21.3324C38.9669 22.0603 36.2464 24.8774 35.4678 25.5215C35.4152 25.4802 35.364 25.443 35.3118 25.4029C36.4601 23.5315 37.5927 21.6442 38.3735 19.4875Z" fill="#FBCA54"/>
<path id="path62" d="M43.6223 77.9746V43.3254L65.1688 48.8186L62.1388 73.7493L43.6223 77.9746Z" fill="#EE2137"/>
<path id="path64" d="M43.6234 77.9746V43.3254L22.0769 48.8186L25.1068 73.7493L43.6234 77.9746Z" fill="#EE2441"/>
<path id="path66" d="M64.8349 51.5713L65.1691 48.8202L43.6226 43.327V47.1301L64.8349 51.5713Z" fill="#DC2126"/>
<path id="path68" d="M43.6234 43.3265L22.0769 48.8197L22.3408 50.9912L43.6234 47.1295V43.3265Z" fill="#ED202B"/>
<path id="path70" d="M43.6217 43.3256V34.0296L19.7185 41.6355L20.7753 49.1523L43.6217 43.3256Z" fill="#EE2441"/>
<path id="path72" d="M43.6226 43.3256V34.0296L67.5257 41.6355L66.469 49.1523L43.6226 43.3256Z" fill="#EE2137"/>
<path id="path74" d="M39.192 67.9946L33.9989 70.3778L29.641 66.0882L24.4644 68.4645L24.7234 70.5955L29.3396 68.4765L33.697 72.7653L38.9115 70.3729L43.6234 74.8154V72.1595L43.6162 72.1666L39.192 67.9946Z" fill="white"/>
<path id="path76" d="M43.6152 67.1917L39.191 63.02L33.9978 65.4029L29.64 61.1134L23.8909 63.7528L24.1499 65.8833L29.3385 63.5014L33.696 67.7904L38.9104 65.3981L43.6223 69.8408V67.1849L43.6152 67.1917Z" fill="white"/>
<path id="path78" d="M48.0537 67.9946L53.2468 70.3778L57.6046 66.0882L62.7811 68.4645L62.5221 70.5955L57.9061 68.4765L53.5487 72.7653L48.334 70.3729L43.6223 74.8154V72.1595L43.6294 72.1666L48.0537 67.9946Z" fill="#E0DDDB"/>
<path id="path80" d="M43.6294 67.1917L48.0537 63.02L53.2468 65.4029L57.6046 61.1134L63.354 63.7528L63.0948 65.8833L57.9061 63.5014L53.5487 67.7904L48.334 65.3981L43.6223 69.8408V67.1849L43.6294 67.1917Z" fill="#E0DDDB"/>
<path id="path82" d="M50.5369 63.5518L51.4466 60.6515L54.3085 61.8234C53.024 60.0702 52.197 57.8377 52.0077 55.4426C51.7666 52.3917 52.8117 49.6371 53.3519 46.7348C53.4407 46.2577 53.5144 45.7697 53.5721 45.2749C54.1795 40.0369 51.0529 35.2489 46.8406 34.9952C46.8182 34.9939 46.7961 34.9926 46.7739 34.9914C46.7802 34.9985 46.7859 35.0056 46.7934 35.0115C48.4131 36.7573 49.2236 39.5382 49.4517 42.1526C49.7193 45.2206 49.0997 48.0305 48.4104 50.9369C47.8341 53.3674 47.5483 55.7845 48.0736 58.2737C48.4988 60.2885 49.3567 62.1046 50.5369 63.5518Z" fill="#F9A819"/>
<path id="path84" d="M48.9431 52.2336C49.4901 49.4522 50.1406 46.9658 50.2722 44.0663C50.5412 38.1506 47.6897 35.0464 46.8406 34.9952C46.8182 34.9939 46.7961 34.9926 46.7739 34.9914C46.7802 34.9985 46.7859 35.0056 46.7934 35.0115C48.4131 36.7573 49.2236 39.5382 49.4517 42.1526C49.7193 45.2206 49.0997 48.0305 48.4104 50.9369C47.8341 53.3674 47.5483 55.7845 48.0736 58.2737C48.4988 60.2885 49.3567 62.1046 50.5369 63.5518C50.5369 63.5518 47.5509 59.3135 48.9431 52.2336Z" fill="#F8A015"/>
<path id="path86" d="M26.8848 52.3369L27.3278 49.8604L24.9722 49.0089C26.476 48.5639 27.8462 47.5334 28.8459 46.0276C30.1192 44.1095 30.4176 41.6534 31.1103 39.3873C31.2243 39.0148 31.3521 38.6435 31.4937 38.2771C32.9912 34.3981 36.8418 32.9639 39.7733 35.2091C39.7991 35.2308 39.7991 35.2469 39.7991 35.2469C38.072 35.4947 36.5131 36.9042 35.4074 38.5357C34.1101 40.4502 33.5048 42.6992 32.9112 45.0536C32.4147 47.0224 31.7273 48.8156 30.4668 50.1924C29.4468 51.3063 28.2074 52.0384 26.8848 52.3369Z" fill="#F9A819"/>
<path id="path88" d="M32.178 45.8613C33.0332 43.79 33.1915 41.3849 34.1584 39.3549C36.1309 35.2135 39.1831 34.7566 39.7741 35.2091C39.7897 35.2209 39.8072 35.2474 39.7999 35.2469C38.0486 35.8257 36.5139 36.9042 35.4081 38.5357C34.1109 40.4502 33.5055 42.6992 32.9119 45.0536C32.4154 47.0224 31.728 48.8156 30.4675 50.1924C29.4475 51.3064 28.2082 52.0384 26.8855 52.3369C26.8855 52.3369 29.7222 51.8094 32.178 45.8613Z" fill="#F8A015"/>
<path id="path90" d="M43.6324 6.56975L43.7074 7.22808C43.8051 8.08629 44.3422 8.76067 45.026 8.88305L45.5505 8.97739L45.026 9.07122C44.3422 9.19386 43.8051 9.86798 43.7074 10.7265L43.6324 11.3848L43.5575 10.7265C43.46 9.86798 42.9226 9.19386 42.2389 9.07122L41.7144 8.97739L42.2389 8.88305C42.9226 8.76067 43.46 8.08629 43.5575 7.22808L43.6324 6.56975Z" fill="#FABA26"/>
<path id="path92" d="M33.3438 11.36L33.3789 11.6701C33.425 12.0742 33.6781 12.3919 34.0001 12.4497L34.2471 12.4941L34.0001 12.5382C33.6781 12.5961 33.425 12.9135 33.3789 13.3176L33.3438 13.6279L33.3084 13.3176C33.2625 12.9135 33.0094 12.5961 32.6874 12.5382L32.4402 12.4941L32.6874 12.4497C33.0094 12.3919 33.2625 12.0742 33.3084 11.6701L33.3438 11.36Z" fill="white"/>
<path id="path94" d="M67.5296 1.63345L67.5649 1.94374C67.6109 2.34786 67.864 2.66554 68.186 2.72316L68.4332 2.76753L68.186 2.81164C67.864 2.86952 67.6109 3.18721 67.5649 3.59133L67.5296 3.90137L67.4945 3.59133C67.4485 3.18721 67.1952 2.86952 66.8732 2.81164L66.6262 2.76753L66.8732 2.72316C67.1952 2.66554 67.4485 2.34786 67.4945 1.94374L67.5296 1.63345Z" fill="white"/>
<path id="path96" d="M64.344 15.0387L64.3794 15.349C64.4251 15.7531 64.6782 16.0706 65.0004 16.1284L65.2474 16.1726L65.0004 16.2169C64.6782 16.2748 64.4251 16.5922 64.3794 16.9966L64.344 17.3066L64.3087 16.9966C64.2628 16.5922 64.0094 16.2748 63.6877 16.2169L63.4404 16.1726L63.6877 16.1284C64.0094 16.0706 64.2628 15.7531 64.3087 15.349L64.344 15.0387Z" fill="#FABA26"/>
<path id="path98" d="M43.6231 16.8014L43.6584 17.1115C43.7043 17.5156 43.9572 17.8335 44.2794 17.8911L44.5264 17.9352L44.2794 17.9796C43.9572 18.0372 43.7043 18.3549 43.6584 18.7593L43.6231 19.0693L43.5877 18.7593C43.5418 18.3549 43.2887 18.0372 42.9667 17.9796L42.7195 17.9352L42.9667 17.8911C43.2887 17.8335 43.5418 17.5156 43.5877 17.1115L43.6231 16.8014Z" fill="white"/>
<path id="path100" d="M19.719 3.90176L19.7542 4.21205C19.8001 4.61642 20.0534 4.93385 20.3754 4.99173L20.6224 5.03584L20.3754 5.0802C20.0534 5.13807 19.8001 5.45551 19.7542 5.85988L19.719 6.16992L19.6837 5.85988C19.6378 5.45551 19.3846 5.13807 19.0625 5.0802L18.8154 5.03584L19.0625 4.99173C19.3846 4.93385 19.6378 4.61642 19.6837 4.21205L19.719 3.90176Z" fill="white"/>
<path id="path102" d="M61.0684 6.56975L61.1432 7.22808C61.2407 8.08629 61.7782 8.76067 62.4618 8.88305L62.9865 8.97739L62.4618 9.07122C61.7782 9.19386 61.2407 9.86798 61.1432 10.7265L61.0684 11.3848L60.9935 10.7265C60.8958 9.86798 60.3586 9.19386 59.6747 9.07122L59.1501 8.97739L59.6747 8.88305C60.3586 8.76067 60.8958 8.08629 60.9935 7.22808L61.0684 6.56975Z" fill="#FABA26"/>
<path id="path104" d="M23.6102 12.4958L23.6854 13.1541C23.7829 14.0123 24.3202 14.6865 25.004 14.8091L25.5285 14.9032L25.004 14.997C24.3202 15.1196 23.7829 15.794 23.6854 16.6522L23.6102 17.3105L23.5355 16.6522C23.4377 15.794 22.9006 15.1196 22.2169 14.997L21.6921 14.9032L22.2169 14.8091C22.9006 14.6865 23.4377 14.0123 23.5355 13.1541L23.6102 12.4958Z" fill="#FABA26"/>
<path id="path106" d="M53.1788 0.49969L53.3553 2.0509C53.3927 2.38006 53.5987 2.63859 53.861 2.6855L55.0969 2.90708L53.861 3.12864C53.5987 3.17555 53.3927 3.43408 53.3553 3.76324L53.1788 5.31445L53.0023 3.76324C52.9649 3.43408 52.7589 3.17555 52.4967 3.12864L51.2607 2.90708L52.4967 2.6855C52.7589 2.63859 52.9649 2.38006 53.0023 2.0509L53.1788 0.49969Z" fill="#FABA26"/>
<path id="path108" d="M30.4684 1.63421L30.6449 3.18541C30.6825 3.51457 30.8885 3.77335 31.1507 3.82027L32.3866 4.04184L31.1507 4.26315C30.8885 4.31031 30.6825 4.56885 30.6449 4.898L30.4684 6.44922L30.292 4.898C30.2545 4.56885 30.0485 4.31031 29.7862 4.26315L28.5503 4.04184L29.7862 3.82027C30.0485 3.77335 30.2545 3.51457 30.292 3.18541L30.4684 1.63421Z" fill="#FABA26"/>
<path id="path110" d="M19.9751 33.9381C14.9254 27.6369 4.89679 14.7986 4.86094 14.8437C4.82514 14.8891 14.6038 28.083 19.6534 34.3842C19.7462 34.5003 20.068 34.0541 19.9751 33.9381Z" fill="white"/>
<path id="path112" d="M16.9471 38.498C10.9115 33.7559 0.649915 25.4193 0.622857 25.4731C0.595879 25.5272 10.6764 34.2804 16.7121 39.0225C16.8232 39.1097 17.058 38.5852 16.9471 38.498Z" fill="white"/>
<path id="path114" d="M14.8015 43.7852C8.07907 40.8375 0.0168471 37.2354 2.68712e-05 37.2955C-0.0168746 37.3557 7.94252 41.4142 14.6648 44.3616C14.7883 44.4159 14.925 43.8392 14.8015 43.7852Z" fill="white"/>
<path id="path116" d="M67.271 33.9381C72.3208 27.6369 82.3493 14.7986 82.3852 14.8437C82.421 14.8891 72.6425 28.083 67.5928 34.3842C67.5 34.5003 67.1782 34.0541 67.271 33.9381Z" fill="white"/>
<path id="path118" d="M70.2988 38.498C76.3344 33.7559 86.5959 25.4193 86.6229 25.4731C86.6501 25.5272 76.5694 34.2804 70.5338 39.0225C70.4229 39.1097 70.1879 38.5852 70.2988 38.498Z" fill="white"/>
<path id="path120" d="M72.444 43.7852C79.1662 40.8375 87.2285 37.2354 87.2454 37.2955C87.2621 37.3557 79.3029 41.4142 72.5805 44.3616C72.457 44.4159 72.3201 43.8392 72.444 43.7852Z" fill="white"/>
</g>
</g>
</svg>
