<svg width="210" height="211" viewBox="0 0 210 211" fill="none" xmlns="http://www.w3.org/2000/svg">
<g clip-path="url(#clip0_1559_19962)">
<g opacity="0.4">
<path d="M185.968 105.26C185.968 150.121 149.601 186.488 104.74 186.488C59.8796 186.488 23.5127 150.121 23.5127 105.26C23.5127 60.3997 59.8796 24.0328 104.74 24.0328C149.601 24.0328 185.968 60.3997 185.968 105.26Z" stroke="url(#paint0_linear_1559_19962)" stroke-opacity="0.4"/>
<path d="M162.006 105.142C162.006 136.704 136.42 162.29 104.858 162.29C73.2961 162.29 47.71 136.704 47.71 105.142C47.71 73.5798 73.2961 47.9937 104.858 47.9937C136.42 47.9937 162.006 73.5798 162.006 105.142Z" stroke="url(#paint1_linear_1559_19962)" stroke-opacity="0.4"/>
<path d="M208.979 105.261C208.979 162.83 162.309 209.5 104.74 209.5C47.1696 209.5 0.5 162.83 0.5 105.261C0.5 47.6907 47.1696 1.02106 104.74 1.02106C162.309 1.02106 208.979 47.6907 208.979 105.261Z" stroke="url(#paint2_linear_1559_19962)" stroke-opacity="0.4"/>
<rect x="154.914" y="7.63797" width="15.1831" height="15.1831" rx="7.59154" fill="white"/>
<rect x="155.414" y="8.13797" width="14.1831" height="14.1831" rx="7.09154" stroke="black" stroke-opacity="0.1"/>
<rect x="155.414" y="8.13797" width="14.1831" height="14.1831" rx="7.09154" stroke="url(#paint3_linear_1559_19962)" stroke-opacity="0.6"/>
<g clip-path="url(#clip1_1559_19962)">
<path d="M164.627 16.4411C164.626 16.8105 164.479 17.1645 164.218 17.4257C163.957 17.6868 163.603 17.8338 163.234 17.8343H162.688V18.3794C162.688 18.4276 162.669 18.4738 162.635 18.5079C162.601 18.542 162.555 18.5611 162.507 18.5611C162.459 18.5611 162.412 18.542 162.378 18.5079C162.344 18.4738 162.325 18.4276 162.325 18.3794V17.8343H161.78C161.411 17.8338 161.056 17.6868 160.795 17.4257C160.534 17.1645 160.387 16.8105 160.387 16.4411C160.387 16.3929 160.406 16.3467 160.44 16.3126C160.474 16.2786 160.52 16.2594 160.568 16.2594C160.617 16.2594 160.663 16.2786 160.697 16.3126C160.731 16.3467 160.75 16.3929 160.75 16.4411C160.75 16.7142 160.859 16.9761 161.052 17.1692C161.245 17.3623 161.507 17.4708 161.78 17.4708H163.234C163.507 17.4708 163.769 17.3623 163.962 17.1692C164.155 16.9761 164.263 16.7142 164.263 16.4411C164.263 16.168 164.155 15.9061 163.962 15.713C163.769 15.5199 163.507 15.4114 163.234 15.4114H162.022C161.653 15.4114 161.298 15.2646 161.037 15.0034C160.776 14.7421 160.629 14.3878 160.629 14.0183C160.629 13.6488 160.776 13.2945 161.037 13.0332C161.298 12.7719 161.653 12.6252 162.022 12.6252H162.325V12.08C162.325 12.0318 162.344 11.9856 162.378 11.9515C162.412 11.9175 162.459 11.8983 162.507 11.8983C162.555 11.8983 162.601 11.9175 162.635 11.9515C162.669 11.9856 162.688 12.0318 162.688 12.08V12.6252H162.991C163.361 12.6256 163.715 12.7726 163.976 13.0337C164.237 13.2949 164.384 13.649 164.384 14.0183C164.384 14.0665 164.365 14.1127 164.331 14.1468C164.297 14.1809 164.251 14.2 164.203 14.2C164.154 14.2 164.108 14.1809 164.074 14.1468C164.04 14.1127 164.021 14.0665 164.021 14.0183C164.021 13.7452 163.912 13.4833 163.719 13.2902C163.526 13.0971 163.264 12.9886 162.991 12.9886H162.022C161.749 12.9886 161.487 13.0971 161.294 13.2902C161.101 13.4833 160.992 13.7452 160.992 14.0183C160.992 14.2914 161.101 14.5533 161.294 14.7464C161.487 14.9395 161.749 15.048 162.022 15.048H163.234C163.603 15.0485 163.957 15.1954 164.218 15.4566C164.479 15.7177 164.626 16.0718 164.627 16.4411Z" fill="#0E51A0" fill-opacity="0.6"/>
<path d="M164.627 16.4411C164.626 16.8105 164.479 17.1645 164.218 17.4257C163.957 17.6868 163.603 17.8338 163.234 17.8343H162.688V18.3794C162.688 18.4276 162.669 18.4738 162.635 18.5079C162.601 18.542 162.555 18.5611 162.507 18.5611C162.459 18.5611 162.412 18.542 162.378 18.5079C162.344 18.4738 162.325 18.4276 162.325 18.3794V17.8343H161.78C161.411 17.8338 161.056 17.6868 160.795 17.4257C160.534 17.1645 160.387 16.8105 160.387 16.4411C160.387 16.3929 160.406 16.3467 160.44 16.3126C160.474 16.2786 160.52 16.2594 160.568 16.2594C160.617 16.2594 160.663 16.2786 160.697 16.3126C160.731 16.3467 160.75 16.3929 160.75 16.4411C160.75 16.7142 160.859 16.9761 161.052 17.1692C161.245 17.3623 161.507 17.4708 161.78 17.4708H163.234C163.507 17.4708 163.769 17.3623 163.962 17.1692C164.155 16.9761 164.263 16.7142 164.263 16.4411C164.263 16.168 164.155 15.9061 163.962 15.713C163.769 15.5199 163.507 15.4114 163.234 15.4114H162.022C161.653 15.4114 161.298 15.2646 161.037 15.0034C160.776 14.7421 160.629 14.3878 160.629 14.0183C160.629 13.6488 160.776 13.2945 161.037 13.0332C161.298 12.7719 161.653 12.6252 162.022 12.6252H162.325V12.08C162.325 12.0318 162.344 11.9856 162.378 11.9515C162.412 11.9175 162.459 11.8983 162.507 11.8983C162.555 11.8983 162.601 11.9175 162.635 11.9515C162.669 11.9856 162.688 12.0318 162.688 12.08V12.6252H162.991C163.361 12.6256 163.715 12.7726 163.976 13.0337C164.237 13.2949 164.384 13.649 164.384 14.0183C164.384 14.0665 164.365 14.1127 164.331 14.1468C164.297 14.1809 164.251 14.2 164.203 14.2C164.154 14.2 164.108 14.1809 164.074 14.1468C164.04 14.1127 164.021 14.0665 164.021 14.0183C164.021 13.7452 163.912 13.4833 163.719 13.2902C163.526 13.0971 163.264 12.9886 162.991 12.9886H162.022C161.749 12.9886 161.487 13.0971 161.294 13.2902C161.101 13.4833 160.992 13.7452 160.992 14.0183C160.992 14.2914 161.101 14.5533 161.294 14.7464C161.487 14.9395 161.749 15.048 162.022 15.048H163.234C163.603 15.0485 163.957 15.1954 164.218 15.4566C164.479 15.7177 164.626 16.0718 164.627 16.4411Z" fill="url(#paint4_linear_1559_19962)" fill-opacity="0.6"/>
</g>
<rect x="44.6006" y="5.7403" width="15.1831" height="15.1831" rx="7.59154" fill="white"/>
<rect x="45.1006" y="6.2403" width="14.1831" height="14.1831" rx="7.09154" stroke="url(#paint5_linear_1559_19962)" stroke-opacity="0.6"/>
<path d="M54.3936 11.7165C54.3936 11.7647 54.3745 11.8109 54.3404 11.845C54.3063 11.8791 54.2601 11.8982 54.2119 11.8982H53.1728C53.179 11.9586 53.1822 12.0193 53.1822 12.0799C53.1817 12.5456 52.9964 12.9921 52.6671 13.3214C52.3378 13.6507 51.8914 13.8359 51.4257 13.8365H50.8054L53.1217 15.9432C53.1573 15.9756 53.1786 16.0209 53.1809 16.0691C53.1832 16.1172 53.1662 16.1643 53.1338 16.2C53.1013 16.2356 53.056 16.2569 53.0079 16.2592C52.9597 16.2615 52.9126 16.2445 52.877 16.2121L50.2118 13.7893C50.1846 13.7645 50.1655 13.7321 50.1571 13.6963C50.1487 13.6604 50.1514 13.6229 50.1648 13.5886C50.1782 13.5544 50.2017 13.525 50.2321 13.5043C50.2626 13.4837 50.2986 13.4728 50.3354 13.4731H51.4257C51.795 13.4726 52.1491 13.3257 52.4102 13.0645C52.6714 12.8033 52.8183 12.4493 52.8188 12.0799C52.8186 12.0192 52.8146 11.9585 52.8067 11.8982H50.3354C50.2872 11.8982 50.241 11.8791 50.2069 11.845C50.1728 11.8109 50.1537 11.7647 50.1537 11.7165C50.1537 11.6683 50.1728 11.6221 50.2069 11.588C50.241 11.554 50.2872 11.5348 50.3354 11.5348H52.7077C52.6005 11.2835 52.4218 11.0692 52.1939 10.9184C51.966 10.7677 51.6989 10.6871 51.4257 10.6868H50.3354C50.2872 10.6868 50.241 10.6677 50.2069 10.6336C50.1728 10.5995 50.1537 10.5533 50.1537 10.5051C50.1537 10.4569 50.1728 10.4107 50.2069 10.3766C50.241 10.3425 50.2872 10.3234 50.3354 10.3234H54.2119C54.2601 10.3234 54.3063 10.3425 54.3404 10.3766C54.3745 10.4107 54.3936 10.4569 54.3936 10.5051C54.3936 10.5533 54.3745 10.5995 54.3404 10.6336C54.3063 10.6677 54.2601 10.6868 54.2119 10.6868H52.4938C52.775 10.9026 52.9846 11.1981 53.0953 11.5348H54.2119C54.2601 11.5348 54.3063 11.554 54.3404 11.588C54.3745 11.6221 54.3936 11.6683 54.3936 11.7165Z" fill="#0E51A0" fill-opacity="0.6"/>
<path d="M54.3936 11.7165C54.3936 11.7647 54.3745 11.8109 54.3404 11.845C54.3063 11.8791 54.2601 11.8982 54.2119 11.8982H53.1728C53.179 11.9586 53.1822 12.0193 53.1822 12.0799C53.1817 12.5456 52.9964 12.9921 52.6671 13.3214C52.3378 13.6507 51.8914 13.8359 51.4257 13.8365H50.8054L53.1217 15.9432C53.1573 15.9756 53.1786 16.0209 53.1809 16.0691C53.1832 16.1172 53.1662 16.1643 53.1338 16.2C53.1013 16.2356 53.056 16.2569 53.0079 16.2592C52.9597 16.2615 52.9126 16.2445 52.877 16.2121L50.2118 13.7893C50.1846 13.7645 50.1655 13.7321 50.1571 13.6963C50.1487 13.6604 50.1514 13.6229 50.1648 13.5886C50.1782 13.5544 50.2017 13.525 50.2321 13.5043C50.2626 13.4837 50.2986 13.4728 50.3354 13.4731H51.4257C51.795 13.4726 52.1491 13.3257 52.4102 13.0645C52.6714 12.8033 52.8183 12.4493 52.8188 12.0799C52.8186 12.0192 52.8146 11.9585 52.8067 11.8982H50.3354C50.2872 11.8982 50.241 11.8791 50.2069 11.845C50.1728 11.8109 50.1537 11.7647 50.1537 11.7165C50.1537 11.6683 50.1728 11.6221 50.2069 11.588C50.241 11.554 50.2872 11.5348 50.3354 11.5348H52.7077C52.6005 11.2835 52.4218 11.0692 52.1939 10.9184C51.966 10.7677 51.6989 10.6871 51.4257 10.6868H50.3354C50.2872 10.6868 50.241 10.6677 50.2069 10.6336C50.1728 10.5995 50.1537 10.5533 50.1537 10.5051C50.1537 10.4569 50.1728 10.4107 50.2069 10.3766C50.241 10.3425 50.2872 10.3234 50.3354 10.3234H54.2119C54.2601 10.3234 54.3063 10.3425 54.3404 10.3766C54.3745 10.4107 54.3936 10.4569 54.3936 10.5051C54.3936 10.5533 54.3745 10.5995 54.3404 10.6336C54.3063 10.6677 54.2601 10.6868 54.2119 10.6868H52.4938C52.775 10.9026 52.9846 11.1981 53.0953 11.5348H54.2119C54.2601 11.5348 54.3063 11.554 54.3404 11.588C54.3745 11.6221 54.3936 11.6683 54.3936 11.7165Z" fill="url(#paint6_linear_1559_19962)" fill-opacity="0.6"/>
<rect x="145.188" y="190.547" width="15.1831" height="15.1831" rx="7.59154" fill="white"/>
<rect x="145.688" y="191.047" width="14.1831" height="14.1831" rx="7.09154" stroke="black" stroke-opacity="0.1"/>
<rect x="145.688" y="191.047" width="14.1831" height="14.1831" rx="7.09154" stroke="url(#paint7_linear_1559_19962)" stroke-opacity="0.6"/>
<path d="M154.449 199.965C154.465 199.983 154.477 200.004 154.485 200.026C154.493 200.049 154.496 200.073 154.495 200.097C154.494 200.121 154.487 200.144 154.477 200.165C154.467 200.187 154.452 200.206 154.434 200.222C154.106 200.516 153.702 200.712 153.268 200.788C152.835 200.864 152.388 200.817 151.979 200.653C151.571 200.489 151.216 200.213 150.955 199.858C150.695 199.503 150.539 199.082 150.505 198.643H149.952C149.904 198.643 149.858 198.624 149.824 198.59C149.79 198.556 149.771 198.51 149.771 198.461C149.771 198.413 149.79 198.367 149.824 198.333C149.858 198.299 149.904 198.28 149.952 198.28H150.497V197.674H149.952C149.904 197.674 149.858 197.655 149.824 197.621C149.79 197.587 149.771 197.54 149.771 197.492C149.771 197.444 149.79 197.398 149.824 197.364C149.858 197.33 149.904 197.31 149.952 197.31H150.505C150.539 196.871 150.695 196.45 150.955 196.095C151.216 195.74 151.571 195.465 151.979 195.301C152.388 195.136 152.835 195.09 153.268 195.166C153.702 195.242 154.106 195.438 154.434 195.731C154.471 195.764 154.493 195.809 154.495 195.857C154.498 195.905 154.482 195.953 154.45 195.989C154.417 196.025 154.372 196.047 154.324 196.05C154.276 196.053 154.228 196.036 154.192 196.004C153.916 195.757 153.577 195.592 153.213 195.527C152.848 195.461 152.473 195.498 152.128 195.634C151.784 195.769 151.484 195.998 151.262 196.294C151.039 196.59 150.904 196.942 150.87 197.31H152.86C152.908 197.31 152.954 197.33 152.988 197.364C153.022 197.398 153.041 197.444 153.041 197.492C153.041 197.54 153.022 197.587 152.988 197.621C152.954 197.655 152.908 197.674 152.86 197.674H150.861V198.28H152.375C152.423 198.28 152.469 198.299 152.504 198.333C152.538 198.367 152.557 198.413 152.557 198.461C152.557 198.51 152.538 198.556 152.504 198.59C152.469 198.624 152.423 198.643 152.375 198.643H150.87C150.903 199.012 151.039 199.364 151.261 199.66C151.483 199.957 151.783 200.185 152.128 200.321C152.472 200.457 152.848 200.494 153.212 200.429C153.577 200.363 153.916 200.198 154.192 199.951C154.228 199.919 154.275 199.903 154.323 199.905C154.371 199.908 154.417 199.929 154.449 199.965Z" fill="#0E51A0" fill-opacity="0.6"/>
<path d="M154.449 199.965C154.465 199.983 154.477 200.004 154.485 200.026C154.493 200.049 154.496 200.073 154.495 200.097C154.494 200.121 154.487 200.144 154.477 200.165C154.467 200.187 154.452 200.206 154.434 200.222C154.106 200.516 153.702 200.712 153.268 200.788C152.835 200.864 152.388 200.817 151.979 200.653C151.571 200.489 151.216 200.213 150.955 199.858C150.695 199.503 150.539 199.082 150.505 198.643H149.952C149.904 198.643 149.858 198.624 149.824 198.59C149.79 198.556 149.771 198.51 149.771 198.461C149.771 198.413 149.79 198.367 149.824 198.333C149.858 198.299 149.904 198.28 149.952 198.28H150.497V197.674H149.952C149.904 197.674 149.858 197.655 149.824 197.621C149.79 197.587 149.771 197.54 149.771 197.492C149.771 197.444 149.79 197.398 149.824 197.364C149.858 197.33 149.904 197.31 149.952 197.31H150.505C150.539 196.871 150.695 196.45 150.955 196.095C151.216 195.74 151.571 195.465 151.979 195.301C152.388 195.136 152.835 195.09 153.268 195.166C153.702 195.242 154.106 195.438 154.434 195.731C154.471 195.764 154.493 195.809 154.495 195.857C154.498 195.905 154.482 195.953 154.45 195.989C154.417 196.025 154.372 196.047 154.324 196.05C154.276 196.053 154.228 196.036 154.192 196.004C153.916 195.757 153.577 195.592 153.213 195.527C152.848 195.461 152.473 195.498 152.128 195.634C151.784 195.769 151.484 195.998 151.262 196.294C151.039 196.59 150.904 196.942 150.87 197.31H152.86C152.908 197.31 152.954 197.33 152.988 197.364C153.022 197.398 153.041 197.444 153.041 197.492C153.041 197.54 153.022 197.587 152.988 197.621C152.954 197.655 152.908 197.674 152.86 197.674H150.861V198.28H152.375C152.423 198.28 152.469 198.299 152.504 198.333C152.538 198.367 152.557 198.413 152.557 198.461C152.557 198.51 152.538 198.556 152.504 198.59C152.469 198.624 152.423 198.643 152.375 198.643H150.87C150.903 199.012 151.039 199.364 151.261 199.66C151.483 199.957 151.783 200.185 152.128 200.321C152.472 200.457 152.848 200.494 153.212 200.429C153.577 200.363 153.916 200.198 154.192 199.951C154.228 199.919 154.275 199.903 154.323 199.905C154.371 199.908 154.417 199.929 154.449 199.965Z" fill="url(#paint8_linear_1559_19962)" fill-opacity="0.6"/>
</g>
<g clip-path="url(#clip2_1559_19962)">
<path d="M61.7552 62.7041C59.9052 68.8491 54.3202 79.0891 52.8252 84.0141C50.5702 91.4441 37.8252 120.599 37.3852 131.274C37.0452 139.274 37.9452 144.819 35.5852 146.939C31.4102 150.694 12.5352 168.174 12.5352 168.174L41.4052 205.349C41.4052 205.349 61.8052 189.604 63.0502 189.564C72.3552 189.264 96.6652 184.834 105.685 170.099C114.705 155.364 141.65 162.959 141.65 162.959C141.65 162.959 148.04 161.934 147.94 157.429C147.84 152.819 141.855 150.929 141.855 150.929L128.775 139.654L141.65 148.654C141.65 148.654 148.57 150.324 149.22 143.844C149.52 140.844 148.015 138.884 145.31 135.274C143.15 132.444 136.405 125.849 136.405 125.849C136.405 125.849 136.25 123.689 141.65 127.054C145.76 129.609 152.855 128.499 152.65 123.594C152.57 121.769 152.06 119.979 149.65 116.789C147.475 113.939 143.49 108.089 141.195 107.659C134.695 106.454 137.16 103.959 141.245 103.754C143.86 103.624 149.16 100.784 149.815 96.8391C150.745 91.1941 145.555 91.1241 141.045 90.8391C140.155 90.7791 136.02 90.5241 129.22 92.6441C116.765 96.5241 97.2802 105.934 84.7202 107.379C69.4002 109.139 68.1952 101.474 67.1352 96.1041C66.3352 92.0641 68.0352 84.2291 69.0852 81.2191C71.4552 74.4541 71.9602 60.4241 67.7352 57.8091C65.2102 56.2441 63.2702 57.6191 61.7552 62.7041Z" fill="#FFCBAF"/>
<g style="mix-blend-mode:multiply" opacity="0.3">
<path d="M135.305 154.689C131.605 150.094 128.765 139.689 128.765 139.689L141.64 148.689C141.64 148.689 146.78 149.919 148.61 146.099C139.88 144.129 130.495 122.189 130.495 122.189C134.411 123.299 138.16 124.932 141.64 127.044C145.055 129.164 150.51 128.754 152.14 125.744C148.14 124.579 144.045 120.574 141 115.589C137.08 109.164 128.905 105.124 128.905 105.124C128.905 105.124 138.405 103.884 141.215 103.744C143.83 103.614 149.13 100.774 149.78 96.8292C149.921 96.0824 149.921 95.3159 149.78 94.5692C144.515 97.0242 135.35 97.0692 120.145 95.8242C108.535 100.239 94.505 106.229 84.695 107.354C69.375 109.114 68.17 101.449 67.11 96.0792C66.31 92.0392 68.01 84.2042 69.06 81.1942C70.71 76.4892 71.45 68.2842 70.33 62.8342C70.065 70.1092 66.21 74.4292 61.83 88.7392C57.3 103.569 60.525 118.629 63.79 130.369C74.73 169.744 46.185 185.369 33.04 194.599L41.405 205.349C41.405 205.349 61.805 189.604 63.05 189.564C72.355 189.264 96.665 184.834 105.685 170.099C114.705 155.364 141.65 162.959 141.65 162.959C141.65 162.959 146.005 162.254 147.465 159.459C143.21 159.114 137.615 157.559 135.305 154.689Z" fill="#FFCDB1"/>
</g>
<path d="M62.5251 60.2092C61.9901 61.5142 60.2501 66.6392 59.8851 67.6692C59.7751 67.9742 60.4901 67.1992 61.7451 63.5942C62.8651 60.3492 63.6151 58.8492 63.7951 58.3492C63.7951 58.3492 63.3051 58.2942 62.5251 60.2092Z" fill="#F29C6D"/>
<path d="M128.735 31.4442H81.3302C74.446 31.4442 68.8652 37.0249 68.8652 43.9092V166.534C68.8652 173.418 74.446 178.999 81.3302 178.999H128.735C135.619 178.999 141.2 173.418 141.2 166.534V43.9092C141.2 37.0249 135.619 31.4442 128.735 31.4442Z" fill="#353535"/>
<path d="M81.8655 33.9641H128.221C130.996 33.9655 133.658 35.0691 135.621 37.0325C137.583 38.9959 138.686 41.6582 138.686 44.4341V166.009C138.684 168.785 137.581 171.447 135.617 173.409C133.654 175.372 130.991 176.474 128.216 176.474H81.8655C79.0887 176.474 76.4256 175.371 74.4621 173.408C72.4986 171.444 71.3955 168.781 71.3955 166.004V44.4291C71.3968 41.6532 72.5005 38.9914 74.4639 37.029C76.4272 35.0665 79.0896 33.9641 81.8655 33.9641Z" fill="#9DA8E0"/>
<path d="M81.8655 33.9641H128.221C130.996 33.9655 133.658 35.0691 135.621 37.0325C137.583 38.9959 138.686 41.6582 138.686 44.4341V166.009C138.684 168.785 137.581 171.447 135.617 173.409C133.654 175.372 130.991 176.474 128.216 176.474H81.8655C79.0887 176.474 76.4256 175.371 74.4621 173.408C72.4986 171.444 71.3955 168.781 71.3955 166.004V44.4291C71.3968 41.6532 72.5005 38.9914 74.4639 37.029C76.4272 35.0665 79.0896 33.9641 81.8655 33.9641Z" fill="white"/>
<g clip-path="url(#clip3_1559_19962)">
<path d="M94.2367 103.235L100.656 112.628H93.169L91.0293 108.883" fill="#2C5AA2"/>
<path d="M86.8565 101.672L79.3691 112.628H86.8565L93.1168 101.672L87.1131 90.9026H79.6768L86.8565 101.672Z" fill="#E3373A"/>
<path d="M115.958 90.4441C108.957 90.4441 104.349 94.9192 104.349 101.92C104.349 108.922 109.222 113.087 115.559 113.087H115.603C121.364 113.087 126.992 109.454 126.992 101.566C126.992 95.0078 122.56 90.4441 115.958 90.4441Z" fill="#E3373A"/>
<path d="M121.207 98.3376L121.205 98.3382C121.023 98.3702 120.865 98.4084 120.759 98.4502L119.474 98.9505L118.519 99.3228L113.622 101.232L112.989 101.479L110.837 102.319L108.957 100.714L107.504 101.281L110.332 105.195L113.89 103.906V103.813L113.892 108.255L115.493 107.598L119.185 100.867L119.868 100.487L119.291 101.752L120.131 101.379L121.407 100.88L121.514 100.838L124.536 99.6373C124.536 99.6373 123.118 97.6551 121.207 98.3376Z" fill="white"/>
</g>
<path d="M111.62 36.2691H98.5253C98.1926 36.2685 97.8631 36.3334 97.5556 36.4603C97.248 36.5871 96.9685 36.7734 96.7331 37.0084C96.4976 37.2434 96.3108 37.5225 96.1833 37.8298C96.0559 38.1371 95.9903 38.4665 95.9903 38.7991C95.9883 39.1333 96.0524 39.4646 96.1789 39.7738C96.3054 40.0831 96.4918 40.3644 96.7274 40.6014C96.963 40.8383 97.2432 41.0264 97.5517 41.1547C97.8602 41.2831 98.1911 41.3491 98.5253 41.3491H111.62C111.953 41.3498 112.282 41.2848 112.59 41.158C112.898 41.0311 113.177 40.8449 113.412 40.6099C113.648 40.3749 113.835 40.0958 113.962 39.7885C114.09 39.4812 114.155 39.1518 114.155 38.8191C114.157 38.485 114.093 38.1537 113.967 37.8444C113.84 37.5351 113.654 37.2539 113.418 37.0169C113.183 36.7799 112.902 36.5919 112.594 36.4635C112.285 36.3352 111.954 36.2691 111.62 36.2691Z" fill="#353535"/>
<path d="M111.531 40.5642C111.039 40.5642 110.567 40.3687 110.219 40.0208C109.871 39.673 109.676 39.2011 109.676 38.7092C109.675 38.4651 109.723 38.2234 109.816 37.9977C109.908 37.7721 110.045 37.567 110.217 37.3942C110.39 37.2215 110.594 37.0844 110.82 36.9908C111.045 36.8973 111.287 36.8492 111.531 36.8492C111.776 36.8472 112.02 36.8938 112.247 36.9864C112.475 37.079 112.681 37.2157 112.856 37.3886C113.03 37.5615 113.168 37.7672 113.263 37.9939C113.357 38.2205 113.406 38.4636 113.406 38.7092C113.406 38.9544 113.357 39.1973 113.263 39.4237C113.168 39.6501 113.03 39.8554 112.855 40.028C112.681 40.2005 112.474 40.3367 112.247 40.4287C112.019 40.5208 111.776 40.5668 111.531 40.5642Z" fill="#282828"/>
<path d="M62.6687 192.364L36.6912 147.37C35.9816 146.141 34.4098 145.72 33.1806 146.429L6.22551 161.992C4.9963 162.701 4.57515 164.273 5.28484 165.502L31.2623 210.497C31.972 211.726 33.5438 212.147 34.773 211.437L61.7281 195.875C62.9573 195.165 63.3784 193.594 62.6687 192.364Z" fill="#9DA8E0"/>
<path d="M62.6687 192.364L36.6912 147.37C35.9816 146.141 34.4098 145.72 33.1806 146.429L6.22551 161.992C4.9963 162.701 4.57515 164.273 5.28484 165.502L31.2623 210.497C31.972 211.726 33.5438 212.147 34.773 211.437L61.7281 195.875C62.9573 195.165 63.3784 193.594 62.6687 192.364Z" fill="#0E51A0"/>
<g style="mix-blend-mode:multiply" opacity="0.3">
<path d="M54.0457 177.429C40.8157 188.099 30.3057 194.664 24.1357 198.149L31.2607 210.494C31.6026 211.08 32.1617 211.508 32.8168 211.685C33.4719 211.862 34.1703 211.774 34.7607 211.439L61.7157 195.874C62.303 195.533 62.7315 194.974 62.9077 194.318C63.0838 193.662 62.9932 192.963 62.6557 192.374L54.0457 177.429Z" fill="#9DA8E0"/>
</g>
</g>
</g>
<defs>
<linearGradient id="paint0_linear_1559_19962" x1="9.09531" y1="-36.0159" x2="212.02" y2="251.39" gradientUnits="userSpaceOnUse">
<stop stop-color="#0E51A0"/>
<stop offset="1" stop-color="#E31D1C"/>
</linearGradient>
<linearGradient id="paint1_linear_1559_19962" x1="37.3931" y1="5.48973" x2="180.53" y2="208.217" gradientUnits="userSpaceOnUse">
<stop stop-color="#0E51A0"/>
<stop offset="1" stop-color="#E31D1C"/>
</linearGradient>
<linearGradient id="paint2_linear_1559_19962" x1="-17.8361" y1="-75.7947" x2="242.226" y2="292.535" gradientUnits="userSpaceOnUse">
<stop stop-color="#0E51A0"/>
<stop offset="1" stop-color="#E31D1C"/>
</linearGradient>
<linearGradient id="paint3_linear_1559_19962" x1="153.621" y1="2.10659" x2="172.471" y2="28.8032" gradientUnits="userSpaceOnUse">
<stop stop-color="#0E51A0"/>
<stop offset="1" stop-color="#E31D1C"/>
</linearGradient>
<linearGradient id="paint4_linear_1559_19962" x1="160.026" y1="9.47098" x2="168.756" y2="17.3398" gradientUnits="userSpaceOnUse">
<stop stop-color="#0E51A0"/>
<stop offset="1" stop-color="#E31D1C"/>
</linearGradient>
<linearGradient id="paint5_linear_1559_19962" x1="43.3078" y1="0.208915" x2="62.1571" y2="26.9055" gradientUnits="userSpaceOnUse">
<stop stop-color="#0E51A0"/>
<stop offset="1" stop-color="#E31D1C"/>
</linearGradient>
<linearGradient id="paint6_linear_1559_19962" x1="49.7912" y1="8.16083" x2="57.611" y2="16.0741" gradientUnits="userSpaceOnUse">
<stop stop-color="#0E51A0"/>
<stop offset="1" stop-color="#E31D1C"/>
</linearGradient>
<linearGradient id="paint7_linear_1559_19962" x1="143.896" y1="185.015" x2="162.745" y2="211.712" gradientUnits="userSpaceOnUse">
<stop stop-color="#0E51A0"/>
<stop offset="1" stop-color="#E31D1C"/>
</linearGradient>
<linearGradient id="paint8_linear_1559_19962" x1="149.368" y1="193.056" x2="156.771" y2="201.759" gradientUnits="userSpaceOnUse">
<stop stop-color="#0E51A0"/>
<stop offset="1" stop-color="#E31D1C"/>
</linearGradient>
<clipPath id="clip0_1559_19962">
<rect width="210" height="210" fill="white" transform="translate(0 0.521057)"/>
</clipPath>
<clipPath id="clip1_1559_19962">
<rect width="7.75306" height="7.75306" fill="white" transform="translate(158.63 11.3531)"/>
</clipPath>
<clipPath id="clip2_1559_19962">
<rect width="149" height="181.278" fill="white" transform="translate(4 31.4442)"/>
</clipPath>
<clipPath id="clip3_1559_19962">
<rect width="48" height="23.0769" fill="white" transform="translate(79 90.4442)"/>
</clipPath>
</defs>
</svg>
