<svg width="51" height="24" viewBox="0 0 51 24" fill="none" xmlns="http://www.w3.org/2000/svg">
<path d="M15.7591 13.5575L22.5636 23.5139H14.6274L12.3594 19.5448" fill="#0E51A0"/>
<path d="M7.93629 11.9009L0 23.5134H7.93629L14.5719 11.9009L8.2083 0.485973H0.32614L7.93629 11.9009Z" fill="#E31D1C"/>
<path d="M38.7818 0C31.3608 0 26.4766 4.74338 26.4766 12.1644C26.4766 19.5854 31.6426 24 38.3592 24H38.4061C44.5121 24 50.4772 20.1496 50.4772 11.7887C50.4772 4.83731 45.7801 0 38.7818 0Z" fill="#E31D1C"/>
<path d="M44.3485 8.36692L44.3472 8.36757C44.1542 8.40149 43.9865 8.44193 43.8743 8.48629L42.5124 9.01659L41.5 9.41122L36.3092 11.4352L35.638 11.6962L33.3576 12.5872L31.3649 10.886L29.8242 11.4868L32.8214 15.6353L36.5929 14.2688V14.1703L36.5955 18.8784L38.2928 18.1824L42.2058 11.0478L42.9298 10.6447L42.318 11.9858L43.2084 11.5905L44.5612 11.0615L44.674 11.0171L47.8774 9.74454C47.8774 9.74454 46.3745 7.64354 44.3485 8.36692Z" fill="white"/>
</svg>
