<svg width="24" height="24" viewBox="0 0 16 16" fill="none" xmlns="http://www.w3.org/2000/svg">
<g clip-path="url(#clip0_2458_9696)">
<g clip-path="url(#clip1_2458_9696)">
<path opacity="0.998" d="M1.75 6.39062H4.65622V13.3437H1.75V6.39062Z" fill="url(#paint0_linear_2458_9696)"/>
<path opacity="0.998" d="M11.3436 6.39062H14.2498V13.3437H11.3436V6.39062Z" fill="url(#paint1_linear_2458_9696)"/>
<path opacity="0.998" d="M6.54675 6.39062H9.45297V13.3437H6.54675V6.39062Z" fill="url(#paint2_linear_2458_9696)"/>
<path opacity="0.998" d="M8.00072 0.5C7.80096 0.5 7.48041 0.563295 7.08583 0.816647L0.91509 5.07124C0.162726 5.55539 0.527181 6.73822 1.24518 6.73822H14.7563C15.4743 6.73822 15.8387 5.55539 15.0864 5.07124L8.91562 0.816647C8.52103 0.563295 8.20048 0.5 8.00072 0.5Z" fill="url(#paint3_linear_2458_9696)"/>
<path opacity="0.998" d="M1.37499 12.9375H14.6249C15.1096 12.9375 15.4999 13.3277 15.4999 13.8125V14.625C15.4999 15.1097 15.1096 15.5 14.6249 15.5H1.37499C0.890246 15.5 0.5 15.1097 0.5 14.625V13.8125C0.5 13.3277 0.890246 12.9375 1.37499 12.9375Z" fill="url(#paint4_linear_2458_9696)"/>
<path d="M9.41409 3.17397C9.41409 2.98825 9.37751 2.80435 9.30644 2.63277C9.23537 2.4612 9.1312 2.3053 8.99988 2.17398C8.86856 2.04265 8.71266 1.93849 8.54108 1.86742C8.36951 1.79634 8.18561 1.75977 7.99989 1.75977C7.81418 1.75977 7.63028 1.79634 7.4587 1.86742C7.28712 1.93849 7.13122 2.04265 6.9999 2.17398C6.86858 2.3053 6.76441 2.4612 6.69334 2.63277C6.62227 2.80435 6.58569 2.98825 6.58569 3.17397C6.58569 3.35968 6.62227 3.54358 6.69334 3.71516C6.76441 3.88674 6.86858 4.04264 6.9999 4.17396C7.13122 4.30528 7.28712 4.40945 7.4587 4.48052C7.63028 4.55159 7.81418 4.58817 7.99989 4.58817C8.18561 4.58817 8.36951 4.55159 8.54108 4.48052C8.71266 4.40945 8.86856 4.30528 8.99988 4.17396C9.1312 4.04264 9.23537 3.88674 9.30644 3.71516C9.37751 3.54358 9.41409 3.35968 9.41409 3.17397Z" fill="url(#paint5_linear_2458_9696)"/>
<path d="M1.00024 5.65625V5.78077H1.25024V5.65625H1.00024ZM1.62499 5.65625V5.78077H1.87499V5.65625H1.62499ZM2.25048 5.65625V5.78077H2.50047V5.65625H2.25048ZM2.87522 5.65625V5.78077H3.12522V5.65625H2.87522ZM3.49997 5.65625V5.78077H3.74997V5.65625H3.49997ZM4.12546 5.65625V5.78077H4.37545V5.65625H4.12546ZM4.75021 5.65625V5.78077H5.0002V5.65625H4.75021ZM5.37495 5.65625V5.78077H5.62495V5.65625H5.37495ZM6.00044 5.65625V5.78077H6.25043V5.65625H6.00044ZM6.62519 5.65625V5.78077H6.87518V5.65625H6.62519ZM7.24994 5.65625V5.78077H7.49993V5.65625H7.24994ZM7.87542 5.65625V5.78077H8.12541V5.65625H7.87542ZM8.50017 5.65625V5.78077H8.75016V5.65625H8.50017ZM9.12492 5.65625V5.78077H9.37491V5.65625H9.12492ZM9.7504 5.65625V5.78077H10.0004V5.65625H9.7504ZM10.3751 5.65625V5.78077H10.6251V5.65625H10.3751ZM10.9999 5.65625V5.78077H11.2499V5.65625H10.9999ZM11.6254 5.65625V5.78077H11.8746V5.65625H11.6254ZM12.2501 5.65625V5.78077H12.5001V5.65625H12.2501ZM12.8749 5.65625V5.78077H13.1249V5.65625H12.8749ZM13.5004 5.65625V5.78077H13.7496V5.65625H13.5004ZM14.1249 5.65625V5.78077H14.3749V5.65625H14.1249ZM14.7496 5.65625V5.78077H14.9996V5.65625H14.7496Z" fill="#024292"/>
</g>
</g>
<defs>
<linearGradient id="paint0_linear_2458_9696" x1="3.48187" y1="14.2502" x2="3.48187" y2="6.05481" gradientUnits="userSpaceOnUse">
<stop stop-color="#EAF2FF"/>
<stop offset="1" stop-color="#73A9FF"/>
</linearGradient>
<linearGradient id="paint1_linear_2458_9696" x1="13.0755" y1="14.2502" x2="13.0755" y2="6.05481" gradientUnits="userSpaceOnUse">
<stop stop-color="#EAF2FF"/>
<stop offset="1" stop-color="#73A9FF"/>
</linearGradient>
<linearGradient id="paint2_linear_2458_9696" x1="8.27863" y1="14.2502" x2="8.27863" y2="6.05481" gradientUnits="userSpaceOnUse">
<stop stop-color="#EAF2FF"/>
<stop offset="1" stop-color="#73A9FF"/>
</linearGradient>
<linearGradient id="paint3_linear_2458_9696" x1="8.0009" y1="0.617007" x2="8.0009" y2="6.33774" gradientUnits="userSpaceOnUse">
<stop stop-color="#AACBFF"/>
<stop offset="1" stop-color="#2C5AA2"/>
</linearGradient>
<linearGradient id="paint4_linear_2458_9696" x1="7.99977" y1="12.7186" x2="7.99977" y2="15.4998" gradientUnits="userSpaceOnUse">
<stop stop-color="#6FA5FA"/>
<stop offset="1" stop-color="#0E51A0"/>
</linearGradient>
<linearGradient id="paint5_linear_2458_9696" x1="7.85889" y1="1.83069" x2="7.85889" y2="4.69427" gradientUnits="userSpaceOnUse">
<stop stop-color="#EAF2FF"/>
<stop offset="1" stop-color="#9BBAFF"/>
</linearGradient>
<clipPath id="clip0_2458_9696">
<rect width="16" height="16" fill="white"/>
</clipPath>
<clipPath id="clip1_2458_9696">
<rect width="16" height="16" fill="white"/>
</clipPath>
</defs>
</svg>
