<svg width="17" height="16" viewBox="0 0 17 16" fill="none" xmlns="http://www.w3.org/2000/svg">
<g clip-path="url(#clip0_3203_33212)">
<path d="M16.0089 7.84812C15.9877 7.79938 15.4677 6.64625 14.3064 5.485C13.2289 4.40875 11.3777 3.125 8.66641 3.125C5.95516 3.125 4.10391 4.40875 3.02641 5.485C1.86516 6.64625 1.34516 7.7975 1.32391 7.84812C1.30255 7.89613 1.2915 7.94808 1.2915 8.00062C1.2915 8.05317 1.30255 8.10512 1.32391 8.15312C1.34516 8.20125 1.86516 9.35437 3.02641 10.5156C4.10391 11.5919 5.95516 12.875 8.66641 12.875C11.3777 12.875 13.2289 11.5919 14.3064 10.5156C15.4677 9.35437 15.9877 8.20312 16.0089 8.15312C16.0303 8.10512 16.0413 8.05317 16.0413 8.00062C16.0413 7.94808 16.0303 7.89613 16.0089 7.84812ZM8.66641 12.125C6.70516 12.125 4.99266 11.4113 3.57579 10.0044C2.98184 9.41409 2.47922 8.73854 2.08454 8C2.47911 7.26158 2.98174 6.58622 3.57579 5.99625C4.99266 4.58875 6.70516 3.875 8.66641 3.875C10.6277 3.875 12.3402 4.58875 13.757 5.99625C14.3511 6.58622 14.8537 7.26158 15.2483 8C14.8502 8.76312 12.8539 12.125 8.66641 12.125ZM8.66641 5.125C8.09779 5.125 7.54194 5.29362 7.06915 5.60952C6.59636 5.92543 6.22786 6.37445 6.01026 6.89979C5.79266 7.42512 5.73572 8.00319 5.84666 8.56088C5.95759 9.11858 6.23141 9.63086 6.63348 10.0329C7.03556 10.435 7.54783 10.7088 8.10553 10.8198C8.66322 10.9307 9.24129 10.8738 9.76663 10.6562C10.292 10.4386 10.741 10.0701 11.0569 9.59726C11.3728 9.12447 11.5414 8.56862 11.5414 8C11.5404 7.23781 11.2372 6.50712 10.6982 5.96816C10.1593 5.42921 9.42861 5.12599 8.66641 5.125ZM8.66641 10.125C8.24613 10.125 7.83528 10.0004 7.48583 9.76687C7.13637 9.53338 6.86401 9.20149 6.70317 8.8132C6.54233 8.42491 6.50025 7.99764 6.58224 7.58543C6.66424 7.17322 6.86662 6.79458 7.16381 6.4974C7.461 6.20021 7.83964 5.99782 8.25185 5.91583C8.66406 5.83384 9.09132 5.87592 9.47961 6.03676C9.86791 6.19759 10.1998 6.46996 10.4333 6.81941C10.6668 7.16887 10.7914 7.57971 10.7914 8C10.7914 8.56359 10.5675 9.10409 10.169 9.5026C9.7705 9.90112 9.23 10.125 8.66641 10.125Z" fill="#0E51A0"/>
</g>
<defs>
<clipPath id="clip0_3203_33212">
<rect width="16" height="16" fill="white" transform="translate(0.666504)"/>
</clipPath>
</defs>
</svg>
