<svg width="240" height="48" viewBox="0 0 240 48" fill="none" xmlns="http://www.w3.org/2000/svg">
<g clip-path="url(#clip0_1947_23083)">
<path d="M44.5371 47.1333H52.5865L58.8967 23.6161H50.9301L44.5371 47.1333Z" fill="#004A7F"/>
<path d="M85.8066 47.1333H93.856L100.166 23.6161H92.1168L85.8066 47.1333Z" fill="#004A7F"/>
<path d="M127.15 47.1333H135.121L141.356 23.6161H133.307L127.15 47.1333Z" fill="#004A7F"/>
<path d="M78.3097 31.6655H86.3591C87.4633 26.3808 84.0717 23.699 76.18 23.699C67.0263 23.699 60.8739 28.195 58.7442 35.85C56.9261 42.9489 60.6373 47.2122 69.2348 47.2122C77.9153 47.2122 83.0423 44.5304 85.1759 38.4529H77.1265C75.9433 41.1347 73.8926 42.4756 71.053 42.4756C67.184 42.4756 65.6065 40.1093 66.7897 35.6133C68.0517 30.9556 71.053 28.3527 74.9179 28.3527C77.442 28.3527 78.5463 29.457 78.3097 31.6655Z" fill="#004A7F"/>
<path d="M119.656 31.6655H127.706C128.81 26.3808 125.335 23.699 117.444 23.699C108.369 23.699 102.138 28.195 100.087 35.85C98.1939 42.9489 101.901 47.2122 110.503 47.2122C119.104 47.2122 124.231 44.5304 126.44 38.4529H118.394C117.286 41.1347 115.156 42.4756 112.317 42.4756C108.452 42.4756 106.874 40.1093 108.132 35.6133C109.319 30.9556 112.317 28.3527 116.182 28.3527C118.71 28.3527 119.893 29.457 119.656 31.6655Z" fill="#004A7F"/>
<path d="M13.5272 10.6014C24.2584 -0.0508935 37.2771 -2.81553 42.4869 4.4451C47.6967 11.7057 43.1179 26.3808 32.3867 37.0331C21.6555 47.7643 8.63684 50.525 3.34814 43.1855C-1.77887 35.8499 2.79993 21.2498 13.5272 10.6014Z" fill="#F06321"/>
<path d="M20.6299 4.91836C19.4467 5.78601 18.2636 6.81141 17.0804 7.91963C7.69014 17.2271 3.74232 30.0091 8.40002 36.4021C13.2115 42.7911 24.7315 40.4248 34.3584 31.0345C39.5682 25.9864 43.0388 20.1456 44.4586 14.703C44.853 10.6803 44.3009 7.12692 42.4867 4.4451C38.3851 -1.23404 29.547 -0.764724 20.6299 4.91836Z" fill="#AE282E"/>
<path d="M34.2007 6.10147V6.3381C34.122 7.67901 33.3331 9.33542 31.9133 10.7552C29.7836 12.806 26.944 13.5948 25.7569 12.4156C24.416 11.1535 25.2088 8.3889 27.3384 6.18035C29.547 4.05067 32.3865 3.34077 33.5697 4.6028C33.9641 4.99719 34.2007 5.47045 34.2007 6.10147ZM25.9975 42.3178C20.9454 46.1039 15.7395 48.0009 10.6875 47.2121C12.8172 47.291 14.5564 44.9207 15.9762 41.7657C17.396 38.5317 18.1847 35.5344 18.8946 32.6909C19.92 28.1949 19.9989 25.0398 19.4468 24.3299C18.5791 23.2217 16.6861 23.4623 14.4736 24.7243C13.3693 25.3553 11.9495 24.9609 13.6099 22.9101C15.3452 20.8593 22.0497 15.965 24.416 15.1763C27.1018 14.4664 30.0991 15.4918 29.0737 18.4102C28.3599 20.5399 19.0524 44.8419 25.9975 42.3178Z" fill="white"/>
<path d="M153.426 43.4221L155.24 36.6387H159.658V33.0104H156.266L157.843 27.2484H159.658V23.695H153.659L147.428 47.2122H159.658V43.4221H153.426ZM159.658 36.6387H160.525C164.552 36.6387 166.445 37.3486 165.656 40.1093C165.025 42.5545 163.053 43.4221 159.658 43.4221V47.2122C162.974 47.2122 165.42 46.8967 167.865 45.2363C169.521 44.132 170.708 42.4756 171.182 40.5826C172.045 37.3486 170.625 35.1361 166.918 34.6668C170.389 34.0358 172.601 32.2177 173.307 29.3781C173.938 27.2484 173.386 25.6709 171.887 24.6455C170.625 23.7778 168.496 23.695 165.656 23.695H159.658V27.2484H162.738C166.524 27.2484 168.259 27.7217 167.707 30.088C166.997 32.3754 164.946 33.0104 161.081 33.0104H159.658V36.6387Z" fill="#004A7F"/>
<path d="M181.752 30.723V33.6375C181.121 33.9569 180.569 34.5091 180.332 35.2978H175.6C176.384 33.0104 178.518 31.4289 181.752 30.723ZM181.752 44.5304C181.2 44.6881 180.569 44.767 179.938 44.767C177.808 44.767 176.862 43.8954 177.335 42.3179C177.808 40.5037 179.228 39.8727 181.752 39.636V36.8754C176.305 37.2697 173.308 38.6895 172.362 42.239C171.494 45.4729 173.549 47.6066 177.808 47.6066C179.228 47.6066 180.569 47.3699 181.752 46.8967V44.5304ZM186.331 39.6361L186.252 39.8727C185.621 42.3179 183.96 43.9782 181.752 44.5304V46.8967C182.935 46.4195 183.96 45.7924 184.907 44.9247L184.513 47.2122H189.249C189.486 46.104 189.722 44.8419 190.038 43.5799L191.852 36.9542C192.01 36.4021 192.089 35.85 192.089 35.2978V34.509C191.931 31.8233 189.644 30.4035 185.384 30.4035C184.039 30.4035 182.856 30.5613 181.752 30.723V33.6375C182.462 33.247 183.329 33.0893 184.438 33.0893C186.879 33.0893 187.829 34.1896 187.116 36.5599L187.041 36.7965H184.513C183.57 36.7965 182.62 36.8754 181.752 36.8754V39.636L186.331 39.6361Z" fill="#004A7F"/>
<path d="M193.508 47.2122H198.323L200.611 38.7684C201.399 35.7711 204.16 33.6375 207.079 33.6375C209.918 33.6375 210.948 35.2978 210.001 38.6106L207.71 47.2122H212.525L215.207 37.1909C216.311 32.9315 214.181 30.4035 209.449 30.4035C206.369 30.4035 203.924 31.5078 201.794 33.7163L202.346 30.7979H197.534C197.061 33.4008 196.746 34.9823 196.584 35.6133L193.508 47.2122Z" fill="#004A7F"/>
<path d="M216.785 47.2122H221.522L223.888 38.374L230.281 47.2122H236.828L229.567 37.8219L239.352 30.7979H233.278L224.204 37.3486L227.832 23.699H223.099L216.785 47.2122Z" fill="#004A7F"/>
</g>
<defs>
<clipPath id="clip0_1947_23083">
<rect width="238.893" height="48" fill="white" transform="translate(0.853516)"/>
</clipPath>
</defs>
</svg>
