<?xml version="1.0" encoding="UTF-8" standalone="no"?>
<svg
   xmlns:dc="http://purl.org/dc/elements/1.1/"
   xmlns:cc="http://creativecommons.org/ns#"
   xmlns:rdf="http://www.w3.org/1999/02/22-rdf-syntax-ns#"
   xmlns:svg="http://www.w3.org/2000/svg"
   xmlns="http://www.w3.org/2000/svg"
   viewBox="0 0 1333.3333 158.66667"
   height="158.66667"
   width="1333.3333"
   xml:space="preserve"
   id="svg2"
   version="1.1"><metadata
     id="metadata8"><rdf:RDF><cc:Work
         rdf:about=""><dc:format>image/svg+xml</dc:format><dc:type
           rdf:resource="http://purl.org/dc/dcmitype/StillImage" /></cc:Work></rdf:RDF></metadata><defs
     id="defs6" /><g
     transform="matrix(1.3333333,0,0,-1.3333333,0,158.66667)"
     id="g10"><g
       transform="scale(0.1)"
       id="g12"><path
         id="path14"
         style="fill:#000000;fill-opacity:1;fill-rule:nonzero;stroke:none"
         d="M 467.77,1175 C 242.77,1123.98 59.7695,938.012 11.7617,710 -49.2188,420 132.77,118.012 422.77,26.9883 c 97,-30.00002 243.011,-30.00002 340,1.0234 245,75.9683 425,315.0003 425,566.9883 0,248.98 -180,491.02 -419.02,566.02 -86.988,25.97 -217.969,32.96 -300.98,13.98 z m 237,-390 c 28,-13.98 58,-36.02 66.992,-48.98 20,-32.04 58.008,-29.032 66.008,3.98 5,23.012 10,25 65,25 53.992,0 60,-1.988 65,-23.98 5,-21.02 7,-22.04 18.992,-7.04 6.988,9.032 19.998,16.02 26.988,16.02 8.01,0 14.02,5 14.02,10 0,6.02 5,10 10,10 5.98,0 10,-11.988 10,-26.02 0,-16.992 -6.01,-27.96 -20,-30.968 -18,-5 -16.01,-6.992 12,-26.992 50,-34.032 56.01,-50 30,-85 -27,-37.04 -28.01,-51.02 -2,-51.02 17,0 18.99,-3.012 10,-20 -16.01,-30 -21.01,-110 -6.99,-110 6.99,-1.02 -1.01,-8.012 -18.01,-16.988 -25,-14.032 -38,-14.032 -91.008,-3.012 -35,6.02 -68.012,8.98 -73.992,5 -6.989,-3.98 -23,-1.02 -36.008,6.02 -20.981,10.968 -38.012,10 -113.012,-9.032 C 629.77,375 562.77,373.98 466.762,400 c -83.992,21.988 -125,25 -135,8.98 -3.012,-5.968 -16.992,-7.96 -31.992,-3.98 -13.008,3.012 -47,0 -73.989,-6.02 -63.011,-16.992 -100,-5 -104.019,34.032 -1.992,23.976 0,26.988 16.988,21.988 10,-3.98 19.02,-1.988 19.02,3.98 0,5 -6.989,11.02 -16.008,13.008 -8.992,1.992 -21.992,20 -28.992,41.024 -11.989,33.976 -11.008,36.988 5.98,36.988 24.02,0 24.02,13.98 -0.98,48.012 -26.0083,33.976 -19.02,55 27,85.968 31.011,22.04 31.992,24.032 13,29.032 -14.02,3.976 -20,11.988 -18,23.976 3.98,21.024 36.992,19.032 53.98,-3.008 16.02,-20 22.031,-17.96 26.02,9.032 3,20 8.98,21.988 61.011,23.976 55.981,1.992 58.989,1.024 68.989,-26.988 11.992,-36.02 36.992,-35 71.992,3.98 64.019,69.032 190,87.04 283.008,41.02 z" /><path
         id="path16"
         style="fill:#000000;fill-opacity:1;fill-rule:nonzero;stroke:none"
         d="m 534.77,741.02 c -3.989,-15 -15,-20 -48.008,-23.008 -36.992,-1.992 -45,-6.992 -46.992,-25 -3.989,-24.032 13,-31.992 21.011,-10 1.989,6.988 20,11.988 42.969,11.988 36.02,0 39.02,1.988 41.02,33.012 3,35.968 -2,41.988 -10,13.008 z" /><path
         id="path18"
         style="fill:#000000;fill-opacity:1;fill-rule:nonzero;stroke:none"
         d="m 640.781,730 c 1.989,-33.98 3.989,-35 40.981,-35 23.008,0 41.008,-5 43.008,-11.988 8,-21.992 25,-14.032 21.011,10 C 743.75,711.02 734.77,716.02 698.75,720 c -31.988,3.98 -45.98,10 -51.988,25 -5.981,15 -6.992,11.02 -5.981,-15 z" /><path
         id="path20"
         style="fill:#000000;fill-opacity:1;fill-rule:nonzero;stroke:none"
         d="m 263.75,735 c -15,-11.988 -15.98,-18.012 -6.988,-41.988 L 267.77,665 l -5,28.012 c -5,23.976 8.992,38.976 17,18.008 1.992,-5 8,-3.008 15,3.98 18.98,21.02 -7,36.988 -31.02,20 z" /><path
         id="path22"
         style="fill:#000000;fill-opacity:1;fill-rule:nonzero;stroke:none"
         d="m 884.77,733.012 c -3.008,-5 1.011,-14.032 8.98,-21.024 8.012,-6.988 14.02,-8.008 14.02,-1.988 0,5 8.011,10 18.011,10 13.989,0 15,1.988 1.989,10 -18,11.988 -36.989,13.012 -43,3.012 z" /><path
         id="path24"
         style="fill:#000000;fill-opacity:1;fill-rule:nonzero;stroke:none"
         d="m 300.781,695 c -3.011,-8.98 -3.011,-18.012 -1.011,-21.02 3,-2.96 8,4.032 11.011,16.02 5.981,23.012 -1.011,26.988 -10,5 z" /><path
         id="path26"
         style="fill:#000000;fill-opacity:1;fill-rule:nonzero;stroke:none"
         d="m 874.77,690 c 3,-11.02 8.98,-20 15,-20 5,0 3.98,8.98 -2,20 -6.008,11.02 -11.989,20 -14.02,20 -1.988,0 -1.988,-8.98 1.02,-20 z" /><path
         id="path28"
         style="fill:#000000;fill-opacity:1;fill-rule:nonzero;stroke:none"
         d="m 920.781,695 c -3.011,-8.98 -3.011,-18.012 -1.011,-21.02 3,-2.96 8,4.032 11.011,16.02 5.981,23.012 -1.011,26.988 -10,5 z" /><path
         id="path30"
         style="fill:#000000;fill-opacity:1;fill-rule:nonzero;stroke:none"
         d="m 197.77,691.988 c 0,-5.968 -13,-18.008 -30,-26.988 -19.02,-10 -30,-23.012 -30,-36.988 0,-19.032 2,-20 18.011,-6.024 8.989,8.012 25,18.012 35,21.024 22.969,8.008 32.969,35 17.969,50 -7.969,8.008 -10.98,8.008 -10.98,-1.024 z" /><path
         id="path32"
         style="fill:#000000;fill-opacity:1;fill-rule:nonzero;stroke:none"
         d="m 971.762,685 c -6.992,-16.02 11.988,-45 29.018,-45 5.98,0 17.97,-6.988 27.97,-16.02 11.02,-10 19.02,-11.992 23.01,-5 4.02,6.02 -1.99,18.008 -13.99,28.008 -65,56.992 -60,55 -66.008,38.012 z" /><path
         id="path34"
         style="fill:#000000;fill-opacity:1;fill-rule:nonzero;stroke:none"
         d="m 322.77,680 c -3,-5 -1.008,-10 3.992,-10 6.008,0 11.008,5 11.008,10 0,6.02 -1.989,10 -4.02,10 -2.969,0 -7.969,-3.98 -10.98,-10 z" /><path
         id="path36"
         style="fill:#000000;fill-opacity:1;fill-rule:nonzero;stroke:none"
         d="m 847.77,681.02 c 0,-5 5,-13.008 10,-16.02 5.98,-3.012 10,-1.988 10,3.98 0,5 -4.02,13.008 -10,16.02 -5,3.012 -10,1.988 -10,-3.98 z" /><path
         id="path38"
         style="fill:#000000;fill-opacity:1;fill-rule:nonzero;stroke:none"
         d="m 227.77,666.02 c 0,-2.04 7,-7.04 15.98,-10 8.012,-3.008 12.031,-2.04 9.02,3.98 -6.008,10 -25,13.98 -25,6.02 z" /><path
         id="path40"
         style="fill:#000000;fill-opacity:1;fill-rule:nonzero;stroke:none"
         d="m 364.77,663.012 c -11.02,-10 -8.008,-20 8,-26.992 10,-4.032 15,0.968 15,13.98 0,20 -11.008,26.02 -23,13.012 z" /><path
         id="path42"
         style="fill:#000000;fill-opacity:1;fill-rule:nonzero;stroke:none"
         d="m 517.77,661.988 c -41.989,-3.976 -61.008,-18.008 -53,-38.976 3.98,-11.024 8,-11.992 13.98,-1.992 4.02,6.992 27.031,15 51.02,17.96 23,3.008 41.992,10 41.011,16.02 -2.031,11.988 -9.019,13.012 -53.011,6.988 z" /><path
         id="path44"
         style="fill:#000000;fill-opacity:1;fill-rule:nonzero;stroke:none"
         d="m 617.77,653.98 c 0,-8.98 10.98,-13.98 30.98,-13.98 17.031,0 39.02,-5 49.02,-10 22,-11.988 35.98,3.012 17,18.012 -6.02,5 -31.02,11.988 -53.989,15 C 627.77,666.988 617.77,665 617.77,653.98 Z" /><path
         id="path46"
         style="fill:#000000;fill-opacity:1;fill-rule:nonzero;stroke:none"
         d="m 797.77,651.02 c 0,-14.032 5,-19.032 15,-14.032 17,6.024 15,25 -3,31.024 -7,1.988 -12,-5 -12,-16.992 z" /><path
         id="path48"
         style="fill:#000000;fill-opacity:1;fill-rule:nonzero;stroke:none"
         d="m 932.77,660 c -3,-6.02 0.98,-6.988 8.992,-3.98 18.008,6.992 21.008,13.98 6.988,13.98 -5.98,0 -12.969,-3.98 -15.98,-10 z" /><path
         id="path50"
         style="fill:#000000;fill-opacity:1;fill-rule:nonzero;stroke:none"
         d="m 223.75,623.012 c -3.98,-10 -15,-14.032 -30.98,-11.024 -29.02,6.024 -48,-11.988 -39.02,-35.968 4.02,-10 -0.98,-25 -10.98,-36.02 -10,-11.02 -13,-20 -6.989,-20 6.989,0 23.989,18.012 37.969,40 25,36.988 42.031,46.02 82.031,41.02 17.969,-3.008 15,12.96 -7.031,25.968 -15.98,10 -20,9.032 -25,-3.976 z" /><path
         id="path52"
         style="fill:#000000;fill-opacity:1;fill-rule:nonzero;stroke:none"
         d="m 273.75,628.012 c 3.012,-4.032 11.02,-5 19.02,-1.024 20.98,6.992 18.992,11.992 -4.02,10 -10.98,0 -17.969,-5 -15,-8.976 z" /><path
         id="path54"
         style="fill:#000000;fill-opacity:1;fill-rule:nonzero;stroke:none"
         d="m 934.77,625 c -22,-16.02 -22,-25 1.011,-23.012 37.969,3.012 50.981,-3.008 70.979,-35.968 11.99,-19.032 29.02,-37.04 38.01,-40 15,-6.02 15,-5 -1.02,12.96 -8.98,10 -15.98,25 -15,33.008 4.02,26.024 -11.99,46.024 -32.969,40 -13.011,-3.008 -26.011,1.024 -32.031,10 -10,13.012 -15,14.032 -28.98,3.012 z" /><path
         id="path56"
         style="fill:#000000;fill-opacity:1;fill-rule:nonzero;stroke:none"
         d="m 307.77,620 c -11.989,-8.012 -11.008,-10 8.011,-10 11.989,0 21.989,5 21.989,10 0,13.012 -11.008,13.012 -30,0 z" /><path
         id="path58"
         style="fill:#000000;fill-opacity:1;fill-rule:nonzero;stroke:none"
         d="m 847.77,620 c 0,-5 10,-10 23.011,-10 17.969,0 18.989,1.988 6.989,10 -19.02,13.012 -30,13.012 -30,0 z" /><path
         id="path60"
         style="fill:#000000;fill-opacity:1;fill-rule:nonzero;stroke:none"
         d="m 367.77,608.98 c 0,-5 5,-6.992 10,-3.98 5.98,3.012 10,8.012 10,11.02 0,1.992 -4.02,3.98 -10,3.98 -5,0 -10,-5 -10,-11.02 z" /><path
         id="path62"
         style="fill:#000000;fill-opacity:1;fill-rule:nonzero;stroke:none"
         d="m 802.77,610 c 3.011,-5 8.011,-10 10.98,-10 2.031,0 4.02,5 4.02,10 0,6.02 -5,10 -11.008,10 -5,0 -6.992,-3.98 -3.992,-10 z" /><path
         id="path64"
         style="fill:#000000;fill-opacity:1;fill-rule:nonzero;stroke:none"
         d="m 331.762,591.988 c 3.008,-3.976 23.008,-13.976 45,-21.988 23.008,-6.988 41.008,-16.02 41.008,-20 0,-3.98 7,-6.988 15.98,-6.988 11.02,0 10,5.968 -7.969,23.008 -22.031,20.968 -106.011,45 -94.019,25.968 z" /><path
         id="path66"
         style="fill:#000000;fill-opacity:1;fill-rule:nonzero;stroke:none"
         d="m 806.762,593.012 c -15,-1.992 -36.992,-16.024 -50,-30 l -23.992,-26.024 23.011,11.992 c 11.989,7.04 26.989,9.032 31.989,6.02 5.98,-3.012 10,-1.988 10,3.012 0,5.968 13.992,15 30,20.968 17,5 30,12.04 30,15 0,6.02 -6.008,6.02 -51.008,-0.968 z" /><path
         id="path68"
         style="fill:#000000;fill-opacity:1;fill-rule:nonzero;stroke:none"
         d="m 229.77,578.98 c 1.992,-6.992 10,-15 16.992,-16.992 8.008,-3.008 11.988,1.024 9.019,9.032 -2.031,6.992 -10,15 -17.031,16.992 -7.969,3.008 -11.988,-1.024 -8.98,-9.032 z" /><path
         id="path70"
         style="fill:#000000;fill-opacity:1;fill-rule:nonzero;stroke:none"
         d="m 273.75,575 c 4.02,-8.012 1.02,-21.988 -5.98,-30 -11.989,-13.98 -6.989,-18.98 13.992,-16.02 4.019,1.02 14.019,-3.98 21.988,-10 10,-7.96 14.02,-7.96 14.02,0 0,6.02 10,9.032 23.011,7.04 11.989,-3.008 27.969,-5 35.981,-5 9.019,-1.02 11.008,-9.032 8.008,-23.008 -5,-20 -3.989,-21.024 6.011,-6.992 6.989,8.98 20.981,18.98 31.989,20.968 13.992,3.012 3.992,9.032 -33,21.992 -28.008,10 -50,22.04 -47,27.04 3.992,5 -1.008,5.968 -9.02,2.96 -10.98,-3.98 -15.98,0 -15.98,10 0,10 -9.02,16.02 -25,16.02 -18,0 -23,-3.98 -19.02,-15 z" /><path
         id="path72"
         style="fill:#000000;fill-opacity:1;fill-rule:nonzero;stroke:none"
         d="m 867.77,576.02 c 0,-9.032 -24.02,-24.032 -60,-37.04 -69.02,-25 -76.989,-32.96 -21.989,-22.96 20,2.96 60,6.992 86.989,8.98 38.011,1.02 48.992,5 45.98,16.02 -1.988,7.96 -3.98,21.992 -5,31.992 0,20.968 -45.98,23.976 -45.98,3.008 z" /><path
         id="path74"
         style="fill:#000000;fill-opacity:1;fill-rule:nonzero;stroke:none"
         d="m 932.77,578.98 c -10,-15 -1.989,-18.98 23.992,-11.992 16.988,4.032 19.019,8.012 9.019,14.032 -18.011,11.992 -26.011,10.968 -33.011,-2.04 z" /><path
         id="path76"
         style="fill:#000000;fill-opacity:1;fill-rule:nonzero;stroke:none"
         d="m 202.77,550 c -3,-5 -1.008,-10 3.992,-10 6.008,0 11.008,5 11.008,10 0,6.02 -1.989,10 -4.02,10 -2.969,0 -7.969,-3.98 -10.98,-10 z" /><path
         id="path78"
         style="fill:#000000;fill-opacity:1;fill-rule:nonzero;stroke:none"
         d="m 967.77,550 c 0,-5 5,-10 10.98,-10 5,0 7.031,5 4.02,10 -3,6.02 -8,10 -11.008,10 -1.992,0 -3.992,-3.98 -3.992,-10 z" /><path
         id="path80"
         style="fill:#000000;fill-opacity:1;fill-rule:nonzero;stroke:none"
         d="m 988.75,513.98 c 0,-10.968 3.012,-13.98 6.02,-5.968 3,6.988 1.992,15.968 -1.02,18.976 -2.969,4.032 -5.98,-1.988 -5,-13.008 z" /><path
         id="path82"
         style="fill:#000000;fill-opacity:1;fill-rule:nonzero;stroke:none"
         d="m 224.77,511.02 c 6.011,-7.04 8.98,-20 6.011,-27.04 -3.011,-7.96 -3.011,-13.98 0,-13.98 13.989,0 13.989,30 -1.011,41.02 -13.989,10.968 -15,10.968 -5,0 z" /><path
         id="path84"
         style="fill:#000000;fill-opacity:1;fill-rule:nonzero;stroke:none"
         d="m 669.77,511.02 c -11.02,-6.02 -8.989,-9.032 6.011,-13.008 15,-4.032 18.989,-1.992 15,8.008 -6.011,15.968 -4.019,15.968 -21.011,5 z" /><path
         id="path86"
         style="fill:#000000;fill-opacity:1;fill-rule:nonzero;stroke:none"
         d="m 949.77,506.988 c -8.008,-8.976 -8.008,-16.988 0,-26.988 8,-13.012 8.98,-11.988 5,1.02 -3.008,8.98 0,21.992 6.011,27.96 5.981,6.02 7.969,11.02 5,11.02 -3.011,0 -10,-6.02 -16.011,-13.012 z" /><path
         id="path88"
         style="fill:#000000;fill-opacity:1;fill-rule:nonzero;stroke:none"
         d="M 510.781,503.012 C 538.75,496.02 526.762,465 497.77,466.988 c -23,1.992 -23,1.992 -5,-5.968 38.992,-18.008 52,-13.008 47,18.98 -3.008,23.012 -8.989,30 -26.02,28.98 -16.988,-0.968 -17.969,-1.992 -2.969,-5.968 z" /><path
         id="path90"
         style="fill:#000000;fill-opacity:1;fill-rule:nonzero;stroke:none"
         d="m 847.77,501.02 c 0,-11.02 48.992,-36.02 57,-28.008 3,3.976 -1.02,6.988 -10,6.988 -8.989,0 -17,3.98 -17,8.98 0,5 -6.989,11.02 -15,15 -8,3.008 -15,2.04 -15,-2.96 z" /><path
         id="path92"
         style="fill:#000000;fill-opacity:1;fill-rule:nonzero;stroke:none"
         d="m 183.75,483.98 c -8.98,-7.96 -15.98,-20.968 -15.98,-26.992 0,-8.008 3.011,-8.008 8.011,1.024 5,8.008 15.981,10 27.969,5 16.02,-6.024 17.031,-5 6.02,8.976 -10,13.012 -10,16.992 0,21.024 8.98,3.976 8.98,5.968 1.011,5.968 -6.011,1.02 -19.019,-5.968 -27.031,-15 z" /><path
         id="path94"
         style="fill:#000000;fill-opacity:1;fill-rule:nonzero;stroke:none"
         d="m 299.77,485 c -16.02,-18.98 -3.008,-18.98 21.992,0 14.019,11.02 16.008,15 5,15 -8.012,-1.02 -20,-6.988 -26.992,-15 z" /><path
         id="path96"
         style="fill:#000000;fill-opacity:1;fill-rule:nonzero;stroke:none"
         d="m 583.75,485 c -2.969,-8.98 -1.988,-23.98 3.012,-33.012 9.019,-15.968 10,-15.968 16.008,0 3.992,9.032 2,24.032 -3,33.012 -8.008,16.02 -8.989,16.02 -16.02,0 z" /><path
         id="path98"
         style="fill:#000000;fill-opacity:1;fill-rule:nonzero;stroke:none"
         d="m 651.762,476.988 c 5,-15 1.988,-16.988 -16.992,-13.008 l -22,6.02 22,-11.02 c 16.011,-7.96 28.98,-7.96 50,0 18.98,8.008 21.011,10 5,7.04 -13.008,-2.04 -26.02,1.992 -33.008,11.992 -8.992,15 -10,15 -5,-1.024 z" /><path
         id="path100"
         style="fill:#000000;fill-opacity:1;fill-rule:nonzero;stroke:none"
         d="m 984.77,476.02 c -3.989,-10 -1.02,-13.008 8.98,-9.032 7.03,3.012 14.02,0 14.02,-5.968 0,-6.02 8.99,-11.02 20,-11.02 10.98,0 20,3.98 20,10 0,5 -6.99,6.988 -15,3.98 -8,-3.98 -16.99,1.02 -21.01,10 -8.01,20 -19.998,21.02 -26.99,2.04 z" /><path
         id="path102"
         style="fill:#000000;fill-opacity:1;fill-rule:nonzero;stroke:none"
         d="m 614.77,443.012 c -3.989,-3.012 -7,-13.012 -7,-21.992 0.98,-13.008 3.011,-13.008 10.98,1.992 11.02,18.976 8.012,33.008 -3.98,20 z" /><path
         id="path104"
         style="fill:#000000;fill-opacity:1;fill-rule:nonzero;stroke:none"
         d="m 567.77,425 c 7,-8.98 15,-13.012 17,-11.02 6.992,7.04 -7,26.02 -18.989,26.02 -6.011,0 -6.011,-6.02 1.989,-15 z" /><path
         id="path106"
         style="fill:#000000;fill-opacity:1;fill-rule:nonzero;stroke:none"
         d="m 1307.77,1148.01 c 0.98,-41.02 0.98,-41.99 15.98,-23.01 8.01,11.02 24.02,30 34.02,43.01 l 20,21.99 h -35 c -35,0 -35,-1.02 -35,-41.99 z" /><path
         id="path108"
         style="fill:#000000;fill-opacity:1;fill-rule:nonzero;stroke:none"
         d="M 1402.77,1020 V 850 h 85 v 340 h -85 z" /><path
         id="path110"
         style="fill:#000000;fill-opacity:1;fill-rule:nonzero;stroke:none"
         d="m 1513.75,1180 c 11.02,-3.98 28.01,-20 37.03,-33.98 23.99,-36.02 33.99,-33.01 28.99,8.98 -3.99,33.98 -6.02,35 -46.02,33.98 -31.99,0 -36.99,-1.99 -20,-8.98 z" /><path
         id="path112"
         style="fill:#000000;fill-opacity:1;fill-rule:nonzero;stroke:none"
         d="M 1632.77,1020 V 850 h 85 v 171.02 l 68.01,-3.01 66.99,-3.01 -3,-81.988 -3.99,-83.012 h 86.99 v 340 h -85 v -160 h -131.99 l 3.99,80 3,80 h -90 z" /><path
         id="path114"
         style="fill:#000000;fill-opacity:1;fill-rule:nonzero;stroke:none"
         d="m 2017.77,1026.02 c 0,-122.04 -3,-166.02 -11.99,-169.032 -7.03,-3.008 10,-5.968 38.99,-5.968 l 51.99,-1.02 3.01,88.012 c 1.99,48.008 1.99,123.978 0,169.998 l -3.01,81.99 h -78.99 z" /><path
         id="path116"
         style="fill:#000000;fill-opacity:1;fill-rule:nonzero;stroke:none"
         d="m 2213.75,1150 c 15,-21.99 28.01,-40 30,-40 2.03,0 4.02,18.01 4.02,40 0,38.01 -1.99,40 -30,40 h -30 z" /><path
         id="path118"
         style="fill:#000000;fill-opacity:1;fill-rule:nonzero;stroke:none"
         d="m 2447.77,1160 c 0,-18.98 5,-30 13.99,-30 8.01,0 16.01,-5 18.01,-11.02 6.01,-18.98 183,-267.96 191.01,-267.96 3.99,-1.02 6.99,25.968 6.99,57.96 0,56.02 -3,64.032 -51.99,133.01 -29.02,41.02 -64.02,90 -78.01,111.02 -21.01,30.97 -30,36.99 -61.99,36.99 -36.01,0 -38.01,-1.99 -38.01,-30 z" /><path
         id="path120"
         style="fill:#000000;fill-opacity:1;fill-rule:nonzero;stroke:none"
         d="m 2642.77,1176.02 c 17,-7.04 37,-10 45,-6.02 8.01,3.98 22,10 30,13.01 8.01,3.01 -11.99,5.97 -45,5.97 -58,0 -59.02,0 -30,-12.96 z" /><path
         id="path122"
         style="fill:#000000;fill-opacity:1;fill-rule:nonzero;stroke:none"
         d="m 2785.78,1028.01 c 1.99,-124.03 0,-163.01 -10,-169.03 -8.01,-5 7.97,-8.98 40,-8.98 h 51.99 v 340 h -85 z" /><path
         id="path124"
         style="fill:#000000;fill-opacity:1;fill-rule:nonzero;stroke:none"
         d="m 2978.75,1150 c 18.01,-21.99 34.02,-40 36.02,-40 1.99,0 1.99,11.99 -1.02,28.01 -1.99,15 -5,33.01 -5,40 -0.98,6.99 -13.98,11.99 -30.98,11.99 h -31.01 z" /><path
         id="path126"
         style="fill:#000000;fill-opacity:1;fill-rule:nonzero;stroke:none"
         d="m 3054.77,1178.01 c 6.01,-6.99 33.98,-84.03 63,-170 47,-139.998 55,-158.01 75,-158.01 18.01,0 25.98,13.012 50,83.012 15,45 30.98,85.968 35,89.998 3.99,5 20.98,-31.022 37,-79.998 26.01,-78.012 33,-88.012 55,-91.024 21.99,-3.008 26.01,1.992 31.99,33.012 4.02,20 10,43.98 13.01,53.012 3.98,13.976 3,13.976 -5,3.008 -10,-13.008 -35,55.968 -73.99,201.99 l -12.03,46.99 h -93.98 l 23.98,-66.02 24.02,-65.97 -23,-64.998 c -13.01,-36.024 -26.02,-61.992 -28.99,-56.992 -3.01,5 -22.03,63.98 -43.01,131.99 l -38,121.99 h -50 c -38.01,0 -47,-3.01 -40,-11.99 z" /><path
         id="path128"
         style="fill:#000000;fill-opacity:1;fill-rule:nonzero;stroke:none"
         d="m 3439.77,1175 c 23,-13.01 31.01,-13.01 60,0 l 33,13.98 h -60 c -58,0 -59.02,0 -33,-13.98 z" /><path
         id="path130"
         style="fill:#000000;fill-opacity:1;fill-rule:nonzero;stroke:none"
         d="m 2668.75,1133.98 c 0,-10.97 3.01,-13.98 6.02,-5.97 3,6.99 1.99,15.97 -1.02,18.98 -2.97,4.03 -5.98,-1.99 -5,-13.01 z" /><path
         id="path132"
         style="fill:#000000;fill-opacity:1;fill-rule:nonzero;stroke:none"
         d="m 3458.75,1133.98 c 0,-10.97 3.01,-13.98 6.02,-5.97 3,6.99 1.99,15.97 -1.02,18.98 -2.97,4.03 -5.98,-1.99 -5,-13.01 z" /><path
         id="path134"
         style="fill:#000000;fill-opacity:1;fill-rule:nonzero;stroke:none"
         d="m 2670.78,1060 c 0,-30 1.99,-43.01 3.99,-26.99 1.99,15 1.99,38.98 0,55 -2,15 -3.99,1.99 -3.99,-28.01 z" /><path
         id="path136"
         style="fill:#000000;fill-opacity:1;fill-rule:nonzero;stroke:none"
         d="m 3448.75,1093.98 c 0,-10.97 3.01,-13.98 6.02,-5.97 3,6.99 1.99,15.97 -1.02,18.98 -2.97,4.03 -5.98,-1.99 -5,-13.01 z" /><path
         id="path138"
         style="fill:#000000;fill-opacity:1;fill-rule:nonzero;stroke:none"
         d="m 2180.78,1058.01 c -8.01,-16.99 -22.03,-28.01 -40,-31.02 l -28.01,-3.98 28.01,-1.99 c 20,-1.02 30.98,-9.03 38.99,-28.008 l 11.99,-28.012 4.02,33.012 c 1.99,18.008 1.99,44.998 0,58.978 l -3.01,28.01 z" /><path
         id="path140"
         style="fill:#000000;fill-opacity:1;fill-rule:nonzero;stroke:none"
         d="m 2945.78,1055 c -8.01,-18.01 -20,-25 -42.03,-26.02 l -30.98,-1.99 28.01,-3.98 c 17.97,-3.01 31.99,-14.03 38.99,-29.03 18,-38.98 28,-27.96 26.99,31.02 -0.98,30 -3.01,55 -5.98,55 -2.03,0 -9.02,-11.02 -15,-25 z" /><path
         id="path142"
         style="fill:#000000;fill-opacity:1;fill-rule:nonzero;stroke:none"
         d="m 3428.75,1013.98 c 0,-10.97 3.01,-13.98 6.02,-5.97 3,6.99 1.99,15.97 -1.02,18.98 -2.97,4.03 -5.98,-1.99 -5,-13.01 z" /><path
         id="path144"
         style="fill:#000000;fill-opacity:1;fill-rule:nonzero;stroke:none"
         d="m 2449.77,948.98 c -2,-70 -3.99,-76.992 -23.99,-83.98 -22.03,-8.012 -22.03,-8.012 5,-11.988 15,-1.992 38.99,-3.012 55,-1.024 l 26.99,4.032 -26.99,11.992 c -25,10 -27.03,15.968 -31.01,83.976 l -3.01,73.012 z" /><path
         id="path146"
         style="fill:#000000;fill-opacity:1;fill-rule:nonzero;stroke:none"
         d="m 3418.75,973.98 c 0,-10.968 3.01,-13.98 6.02,-5.968 3,6.988 1.99,15.968 -1.02,18.976 -2.97,4.032 -5.98,-1.988 -5,-13.008 z" /><path
         id="path148"
         style="fill:#000000;fill-opacity:1;fill-rule:nonzero;stroke:none"
         d="m 2222.77,896.02 c -15,-20 -36.99,-37.04 -53,-39.032 -15,-1.988 -3.99,-5 25,-5.968 l 51.99,-1.02 6.99,35 c 9.02,48.98 1.02,51.988 -30.98,11.02 z" /><path
         id="path150"
         style="fill:#000000;fill-opacity:1;fill-rule:nonzero;stroke:none"
         d="m 2987.77,896.02 c -13,-23.008 -30,-36.02 -48,-39.032 -15,-1.988 -3.01,-5 26.01,-5.968 l 51.99,-1.02 v 40 c 0,21.988 -1.99,40 -4.02,40 -1.99,0 -13.98,-15 -25.98,-33.98 z" /><path
         id="path152"
         style="fill:#000000;fill-opacity:1;fill-rule:nonzero;stroke:none"
         d="M 3975.78,743.012 C 3923.75,705 3937.77,741.02 3798.75,303.98 3759.77,181.988 3721.76,78.0117 3714.77,73.0117 3708.75,66.9883 3681.76,55 3655.78,45 c -27.03,-10 -48.01,-21.0195 -48.01,-25 0,-3.9805 55.98,-8.0117 125,-8.9805 72,-1.0195 125,1.9922 125,7.961 0,5 -23,17.039 -51.01,27.039 -28.01,10.9688 -53.99,23.9805 -55.98,30.9688 -2.03,6.0234 8.99,53.0117 25,104.9997 l 30,93.012 115,3.012 113.99,3.008 38.98,-123.008 40,-123.012 -32.97,-3.0117 C 4062.77,30 4047.77,25 4047.77,18.9805 c 0,-5 65,-8.9805 155,-8.9805 85,0 155,1.9883 155,5 0,3.0117 -10,8.9805 -23,13.9805 -18.99,8.0078 -45,68.0078 -162,376.0195 -76.01,201.02 -141.01,366.988 -144.02,368.98 -2.97,2.04 -26.99,-11.992 -52.97,-30.968 z m -4.02,-270 c 24.02,-76.024 46.99,-146.024 51.01,-155 7,-16.992 -1.99,-18.012 -99.02,-18.012 -57.97,0 -105.98,3.012 -105.98,6.02 0,18.98 95,303.98 102,303.98 3.98,0 26.99,-61.988 51.99,-136.988 z" /><path
         id="path154"
         style="fill:#000000;fill-opacity:1;fill-rule:nonzero;stroke:none"
         d="m 9049.77,765 c -101.02,-31.02 -153.99,-93.98 -160,-190 -7,-111.988 33.98,-163.012 201.99,-246.988 143.01,-71.024 176.01,-106.024 176.01,-188.012 0,-70 -33,-116.0195 -93,-130 l -32,-8.01172 40,-0.96875 c 48.99,-1.01953 130,35.96877 167,74.99997 61.01,65.0005 73.98,167.9605 31.99,251.9925 -31.99,65 -65,90.968 -213.01,166.988 -100,51.988 -118.98,65 -135,98.012 -48.98,100.968 50,201.988 164.02,168.008 47,-14.032 78.99,-51.02 128.01,-145 l 36.99,-71.02 3.01,93.98 c 2.97,103.008 -3.01,138.008 -19.02,110 -8.01,-15 -15,-13.98 -73.99,7.04 -74.02,26.992 -155,30 -223,8.98 z" /><path
         id="path156"
         style="fill:#000000;fill-opacity:1;fill-rule:nonzero;stroke:none"
         d="m 9640.78,766.02 c -125,-39.032 -186.01,-134.032 -161.01,-250 15,-71.02 76.01,-127.04 210,-194.032 C 9803.75,265 9842.77,231.02 9853.75,175 9867.77,98.0117 9837.77,38.0117 9772.77,15 l -40,-13.98047 h 40 C 9817.77,0 9890.78,30 9925.78,63.0117 9969.77,103.98 9991.76,160 9991.76,230 c 0,113.98 -48.99,170 -226.99,261.02 -123.99,62.96 -146.02,83.98 -153.99,145.968 -13.01,104.032 130.98,171.992 220,103.012 12.97,-11.02 42.97,-55 65.98,-98.98 23.01,-44.032 46.01,-83.008 51.01,-86.02 10.98,-6.988 12,141.988 0.98,190 -5.98,26.988 -6.99,28.012 -12.97,8.98 l -5,-20.968 -69.02,23.008 c -76.99,25.968 -155.98,30 -220.98,10 z" /><path
         id="path158"
         style="fill:#000000;fill-opacity:1;fill-rule:nonzero;stroke:none"
         d="m 1322.77,760 c 3.01,-5 15,-10 25.98,-10 18.01,0 19.02,-10 19.02,-360 V 30 h -25 c -14.02,0 -25,-3.9805 -25,-10 0,-6.0195 53.99,-10 142,-10 85,0 138,3.9805 133,8.9805 -6.01,5 -19.02,11.0195 -30,13.0078 -19.02,3.0117 -20,11.9922 -23,341.0237 -2,350 0,376.988 38,376.988 10.98,0 20,5 20,10 0,6.02 -54.02,10 -141.01,10 -90.98,0 -138.01,-3.98 -133.99,-10 z" /><path
         id="path160"
         style="fill:#000000;fill-opacity:1;fill-rule:nonzero;stroke:none"
         d="m 1682.77,760 c 3.01,-5 28.01,-10 55.98,-10 h 49.02 V 68.9805 L 1730.78,41.9883 1672.77,15 l 68.01,-3.0117 c 36.99,-1.9883 95.98,-1.9883 130,0 66.99,3.0117 67.97,1.9922 -25,41.0234 l -38.01,15.9688 V 353.98 c 0,158.008 3.01,286.02 8.01,286.02 3.99,0 107.97,-143.98 230.98,-320 123.01,-176.02 226.99,-320 231.99,-320 5,0 9.02,150 9.02,348.98 0,267.04 3.01,351.02 13.01,358.008 5.98,6.024 32.97,18.012 58.99,29.032 26.99,10 48,21.992 48,26.992 0,8.008 -181.99,6.988 -225,-1.992 -30,-6.02 -30,-6.02 20,-25 28.01,-10 55.98,-23.008 63.01,-29.032 8.99,-6.988 11.99,-60.968 11.99,-208.008 0,-110 -3,-198.98 -6.99,-198.98 -5,0 -51.01,63.98 -103.01,141.02 -51.99,76.992 -124.02,181.992 -160,231.992 l -65,91.988 -133,3.012 c -90,1.988 -131.02,-1.024 -127,-8.012 z" /><path
         id="path162"
         style="fill:#000000;fill-opacity:1;fill-rule:nonzero;stroke:none"
         d="m 2481.76,761.02 c 4.02,-6.02 16.01,-11.02 26.01,-11.02 12,0 22,-8.98 25,-21.988 3.01,-13.012 3.99,-176.024 3.01,-363.012 l -3.01,-340 -30,-6.9883 c -16.01,-3.0117 70.98,-6.0234 195,-5 C 2920.78,15 2923.75,15 2980.78,41.9883 3094.77,95 3159.77,168.98 3191.76,278.98 3235.78,430 3178.75,610 3059.77,691.988 c -90,61.992 -135,71.024 -371.02,76.024 -155,3.008 -211.99,0.968 -206.99,-6.992 z m 423.01,-39.032 C 2985.78,665 3021.76,545 3015.78,360 c -5,-141.02 -25,-206.988 -80,-273.9805 C 2894.77,36.9883 2854.77,20 2772.77,20 h -65 v 731.988 l 83.01,-3.008 c 65.98,-2.96 87.97,-7.96 113.99,-26.992 z" /><path
         id="path164"
         style="fill:#000000;fill-opacity:1;fill-rule:nonzero;stroke:none"
         d="m 3277.77,760 c 0,-5 10.98,-10 25,-10 h 25 V 30 h -25 c -14.02,0 -25,-3.9805 -25,-10 0,-6.0195 53.99,-10 142,-10 85,0 138,3.9805 133,8.9805 -6.01,5 -19.02,11.0195 -30,13.0078 -19.02,3.0117 -20,11.9922 -23,338.0117 -1.02,183.98 0,345 3,358.012 3.01,13.008 13.01,21.988 25,21.988 10,0 22,5 25,10 3.99,6.02 -43,10 -134.02,10 -86.99,0 -140.98,-3.98 -140.98,-10 z" /><path
         id="path166"
         style="fill:#000000;fill-opacity:1;fill-rule:nonzero;stroke:none"
         d="m 4397.77,760 c 0,-6.02 23.99,-10 55,-10 h 55 V 68.9805 L 4452.77,45 c -30,-13.9805 -55,-26.9883 -55,-30 0,-3.0117 57,-5 127,-5 71.99,0 123,3.9805 118,8.9805 -6.01,4.0312 -31.99,16.0195 -58,26.0195 -27,10 -50,23.0117 -52,28.9805 -1.99,6.0195 -6.01,136.0195 -10,289.9995 -5,213.008 -3,277.04 5.98,274.032 6.02,-1.992 111.02,-145 233.01,-318.012 121.99,-171.988 226.99,-315 234.02,-318.01172 8.99,-3.00781 11.99,79.03122 13.99,349.03172 l 3,353.98 55,26.02 55,26.992 -123,3.976 c -67,1.024 -122,0 -122,-3.008 0,-2.96 27,-16.992 58.99,-30.968 l 60,-26.024 1.01,-201.988 c 0,-131.988 -3,-201.02 -10,-198.012 -5,1.024 -81.01,106.992 -166.99,233.012 l -158.01,230 -133,3.012 c -85,1.988 -132,-1.024 -132,-8.012 z" /><path
         id="path168"
         style="fill:#000000;fill-opacity:1;fill-rule:nonzero;stroke:none"
         d="m 5442.77,760 c 3.01,-5 17,-10 30.98,-10 h 24.02 L 5495.78,388.012 5492.77,25 l -30,-6.0195 c -16.01,-3.9805 98.99,-6.9922 257,-7.961 L 6005.78,10 l 6.99,85 c 3.99,46.988 5,88.012 2,91.02 -2,2.96 -33.99,-32.04 -68.99,-78.008 L 5881.76,25 5779.77,21.9883 c -56.02,-0.9688 -102,1.0234 -102,5 0,4.0312 -1.01,84.0317 -1.99,178.0117 l -1.01,170 h 148 l 25,-51.988 c 13.99,-28.012 28.01,-55 33.01,-59.032 3.99,-3.98 6.99,53.008 5.98,127.04 l -0.98,133.98 -29.02,-61.02 -28.99,-60.968 -71.99,-6.024 c -46.01,-3.976 -75,-1.988 -79.02,4.032 -3.01,5.968 -5.98,85.968 -5,176.992 l 1.01,166.988 100,3.012 100.98,3.008 52.03,-75 c 28.99,-41.02 56.99,-78.008 62.97,-81.02 6.02,-5 9.02,23.98 7.03,81.988 l -3.01,88.012 -278,3.012 c -187,0.968 -276.02,-1.024 -272,-8.012 z" /><path
         id="path170"
         style="fill:#000000;fill-opacity:1;fill-rule:nonzero;stroke:none"
         d="m 6097.77,760 c 8.01,-5 22,-10 30.98,-10 11.02,0 55,-68.98 128.01,-201.02 61.01,-110.968 111.01,-205.968 111.01,-210.968 0,-6.024 -41.01,-68.012 -91.01,-138.012 -85,-120 -95,-130 -145,-150 -30,-11.9883 -53.99,-26.0195 -53.99,-31.0195 0,-5 58.99,-8.9805 130,-8.9805 72,0 130,3.0117 130,8.0117 0,3.9766 -29.02,18.0078 -65,30 l -65,23.9766 70,101.0237 c 38.99,55.968 78.99,111.988 88.01,125 17.97,23.008 17.97,21.988 98.99,-123.012 l 81.99,-145 h -28.99 c -16.01,0 -31.99,-5 -35,-10 -4.02,-6.9883 48.01,-10 153.99,-8.9805 91.99,0 161.01,3.9805 161.01,10 0,5 -10,8.9805 -23,8.9805 -20,0 -41.02,31.9883 -142,211.988 -65,116.992 -118,216.992 -118,223.012 0,13.012 146.99,228.012 165,241.988 6.99,5 33.98,18.012 60,29.032 26.99,10 48,21.992 48,26.992 0,3.976 -56.01,6.988 -125,6.988 -69.02,0 -125,-3.98 -125,-8.012 0,-3.976 23.01,-15.968 50,-25.968 28.01,-10 53.01,-22.04 55.98,-27.04 4.02,-7.96 -81.99,-148.98 -126.99,-206.992 -16.99,-23.008 -16.99,-21.988 -91.99,110 -61.02,108.012 -72,134.032 -58.99,136.024 8.99,1.988 20.98,8.008 26.99,13.008 5,5 -55,8.98 -150,8.98 -106.99,0 -155,-3.98 -145,-10 z" /><path
         id="path172"
         style="fill:#000000;fill-opacity:1;fill-rule:nonzero;stroke:none"
         d="M 6861.76,761.02 C 6865.78,755 6879.77,750 6893.75,750 h 24.02 V 30 h -25 c -14.02,0 -25,-3.9805 -25,-10 0,-6.0195 53.01,-10 140,-10 87,0 140,3.9805 140,10 0,6.0195 -11.01,10 -25,10 h -25 v 286.988 l 73.01,6.992 c 163.99,15 252.97,70 282.97,173.008 32.03,109.032 -7.97,199.032 -106.99,243.012 -50,23.012 -68.01,25 -273.01,28.012 -156.99,3.008 -216.99,0.968 -211.99,-6.992 z M 7228.75,740 c 30,-16.988 47.03,-61.02 55,-141.02 9.02,-105 -8.98,-183.98 -50.98,-225.968 C 7203.75,343.98 7192.77,340 7148.75,340 h -50.98 v 410 h 55.98 c 30,0 64.02,-5 75,-10 z" /><path
         id="path174"
         style="fill:#000000;fill-opacity:1;fill-rule:nonzero;stroke:none"
         d="m 7517.77,761.02 c 0,-6.02 10.98,-11.02 25,-11.02 17,0 25.98,-6.988 30,-21.988 3.01,-13.012 3.99,-176.024 3.01,-363.012 l -3.01,-340 -30,-6.0195 c -16.01,-3.9805 38.01,-6.9922 120,-6.9922 83.01,0 137,3.0117 120,6.9922 l -30,6.0195 -3,163.012 c -2,135.968 0,161.988 11.99,161.988 8.01,0 53.01,-71.02 106.99,-170 l 92.03,-170 115.98,1.0195 c 64.02,0.9688 109.02,2.961 99.02,5.9688 -9.02,1.9922 -50,61.0234 -91.01,131.0237 -80,135 -113.99,175 -173.99,201.988 l -38.01,16.988 30,8.012 c 17,3.98 48.01,11.02 70,16.988 50.98,13.012 110,71.992 123.99,125 24.02,88.012 -18.99,176.992 -105.98,220 -57.03,28.012 -61.01,28.012 -265,31.992 -147.03,2.04 -208.01,0 -208.01,-7.96 z m 358.01,-33.008 C 7918.75,681.02 7937.77,570 7917.77,476.988 7902.77,401.988 7866.76,370 7796.76,370 h -48.99 v 380 h 53.01 c 42.97,0 57.97,-5 75,-21.988 z" /><path
         id="path176"
         style="fill:#000000;fill-opacity:1;fill-rule:nonzero;stroke:none"
         d="m 8247.77,761.02 c 0,-5 12,-11.02 28.01,-13.008 l 26.99,-3.012 3.01,-340 c 0.98,-186.988 0,-350 -3.01,-361.9883 -4.02,-16.0234 -14.02,-23.0117 -38,-26.0234 -17,-1.9883 96.99,-5 255,-5 L 8806.76,10 l 6.01,41.9883 c 3.99,24.0312 5,64.9997 3.01,91.9917 l -3.01,50 -59.02,-80 c -32.97,-42.9605 -63.98,-81.9917 -70,-85.9683 C 8677.77,23.9805 8628.75,20 8575.78,20 h -98.01 v 361.02 l 73.01,-3.008 71.99,-3.012 30,-56.988 c 17,-31.992 33.01,-58.012 38.01,-58.012 3.99,0 6.99,58.98 6.99,130 0,71.988 -4.02,130 -9.02,130 -3.98,0 -20,-26.988 -33.98,-60 -23.99,-53.012 -30,-60 -55,-60 -16.02,0 -50,-3.012 -76.02,-6.02 l -45.98,-6.992 V 750 h 198.99 l 56.01,-80 c 30.98,-43.98 60.98,-80 67,-80 6.99,0 8.98,18.012 3.98,53.012 -2.97,28.008 -5.98,68.976 -5.98,90 V 770 h -275 c -164.02,0 -275,-3.98 -275,-8.98 z" /><path
         id="path178"
         style="fill:#000000;fill-opacity:1;fill-rule:nonzero;stroke:none"
         d="m 8897.77,125 c 0,-70 3.99,-115 10,-115 5.98,0 10,8.9805 10,20 0,25 10.98,25 60.98,-1.0195 22.03,-10.9688 64.02,-21.99222 92.03,-25.00003 50,-3.98047 50,-2.96094 16.99,7.03903 -63,18.9805 -98,55 -140,143.9805 -21.99,46.988 -43,85 -45,85 -3,0 -5,-51.988 -5,-115 z" /><path
         id="path180"
         style="fill:#000000;fill-opacity:1;fill-rule:nonzero;stroke:none"
         d="m 9488.75,118.98 c 1.02,-99.9995 3.01,-118.98 12.03,-95.9683 5.98,15 13.99,26.9883 17.97,26.9883 4.02,0 31.02,-11.0195 61.02,-25 28.98,-13.9805 68.98,-23.98047 88,-23.98047 35,0.96875 35,0.96875 7,8.98047 -55,16.9883 -95,58.0117 -137,141.988 -23,45 -43,84.032 -46.01,86.992 -1.99,2.04 -3.99,-51.992 -3.01,-120 z" /></g></g></svg>