<svg width="160" height="48" viewBox="0 0 160 48" fill="none" xmlns="http://www.w3.org/2000/svg">
<g clip-path="url(#clip0_2092_8858)">
<mask id="mask0_2092_8858" style="mask-type:luminance" maskUnits="userSpaceOnUse" x="0" y="-543" width="980" height="591">
<path d="M0.746094 48H979.946V-542.4H0.746094V48Z" fill="white"/>
</mask>
<g mask="url(#mask0_2092_8858)">
</g>
<mask id="mask1_2092_8858" style="mask-type:luminance" maskUnits="userSpaceOnUse" x="0" y="-543" width="980" height="591">
<path d="M0.746094 48H979.946V-542.4H0.746094V48Z" fill="white"/>
</mask>
<g mask="url(#mask1_2092_8858)">
</g>
<mask id="mask2_2092_8858" style="mask-type:luminance" maskUnits="userSpaceOnUse" x="0" y="-543" width="980" height="591">
<path d="M0.746094 48H979.946V-542.4H0.746094V48Z" fill="white"/>
</mask>
<g mask="url(#mask2_2092_8858)">
</g>
<mask id="mask3_2092_8858" style="mask-type:luminance" maskUnits="userSpaceOnUse" x="0" y="-543" width="980" height="591">
<path d="M0.746094 48H979.946V-542.4H0.746094V48Z" fill="white"/>
</mask>
<g mask="url(#mask3_2092_8858)">
</g>
<mask id="mask4_2092_8858" style="mask-type:luminance" maskUnits="userSpaceOnUse" x="0" y="-543" width="980" height="591">
<path d="M0.746094 48H979.946V-542.4H0.746094V48Z" fill="white"/>
</mask>
<g mask="url(#mask4_2092_8858)">
</g>
<mask id="mask5_2092_8858" style="mask-type:luminance" maskUnits="userSpaceOnUse" x="0" y="-543" width="980" height="591">
<path d="M0.746094 48H979.946V-542.4H0.746094V48Z" fill="white"/>
</mask>
<g mask="url(#mask5_2092_8858)">
</g>
<mask id="mask6_2092_8858" style="mask-type:luminance" maskUnits="userSpaceOnUse" x="0" y="-543" width="980" height="591">
<path d="M0.746094 48H979.946V-542.4H0.746094V48Z" fill="white"/>
</mask>
<g mask="url(#mask6_2092_8858)">
</g>
<mask id="mask7_2092_8858" style="mask-type:luminance" maskUnits="userSpaceOnUse" x="0" y="-543" width="980" height="591">
<path d="M0.746094 48H979.946V-542.4H0.746094V48Z" fill="white"/>
</mask>
<g mask="url(#mask7_2092_8858)">
</g>
<mask id="mask8_2092_8858" style="mask-type:luminance" maskUnits="userSpaceOnUse" x="0" y="-543" width="980" height="591">
<path d="M0.746094 48H979.946V-542.4H0.746094V48Z" fill="white"/>
</mask>
<g mask="url(#mask8_2092_8858)">
</g>
<mask id="mask9_2092_8858" style="mask-type:luminance" maskUnits="userSpaceOnUse" x="0" y="-543" width="980" height="591">
<path d="M0.746094 48H979.946V-542.4H0.746094V48Z" fill="white"/>
</mask>
<g mask="url(#mask9_2092_8858)">
</g>
<mask id="mask10_2092_8858" style="mask-type:luminance" maskUnits="userSpaceOnUse" x="0" y="-543" width="980" height="591">
<path d="M0.746094 48H979.946V-542.4H0.746094V48Z" fill="white"/>
</mask>
<g mask="url(#mask10_2092_8858)">
</g>
<mask id="mask11_2092_8858" style="mask-type:luminance" maskUnits="userSpaceOnUse" x="0" y="-543" width="980" height="591">
<path d="M0.746094 48H979.946V-542.4H0.746094V48Z" fill="white"/>
</mask>
<g mask="url(#mask11_2092_8858)">
</g>
<mask id="mask12_2092_8858" style="mask-type:luminance" maskUnits="userSpaceOnUse" x="0" y="-543" width="980" height="591">
<path d="M0.746094 48H979.946V-542.4H0.746094V48Z" fill="white"/>
</mask>
<g mask="url(#mask12_2092_8858)">
</g>
<mask id="mask13_2092_8858" style="mask-type:luminance" maskUnits="userSpaceOnUse" x="0" y="-543" width="980" height="591">
<path d="M0.746094 48H979.946V-542.4H0.746094V48Z" fill="white"/>
</mask>
<g mask="url(#mask13_2092_8858)">
</g>
<mask id="mask14_2092_8858" style="mask-type:luminance" maskUnits="userSpaceOnUse" x="0" y="-543" width="980" height="591">
<path d="M0.746094 48H979.946V-542.4H0.746094V48Z" fill="white"/>
</mask>
<g mask="url(#mask14_2092_8858)">
</g>
<mask id="mask15_2092_8858" style="mask-type:luminance" maskUnits="userSpaceOnUse" x="0" y="-543" width="980" height="591">
<path d="M0.746094 48H979.946V-542.4H0.746094V48Z" fill="white"/>
</mask>
<g mask="url(#mask15_2092_8858)">
</g>
<mask id="mask16_2092_8858" style="mask-type:luminance" maskUnits="userSpaceOnUse" x="0" y="-543" width="980" height="591">
<path d="M0.746094 48H979.946V-542.4H0.746094V48Z" fill="white"/>
</mask>
<g mask="url(#mask16_2092_8858)">
</g>
<mask id="mask17_2092_8858" style="mask-type:luminance" maskUnits="userSpaceOnUse" x="0" y="-543" width="980" height="591">
<path d="M0.746094 48H979.946V-542.4H0.746094V48Z" fill="white"/>
</mask>
<g mask="url(#mask17_2092_8858)">
</g>
<mask id="mask18_2092_8858" style="mask-type:luminance" maskUnits="userSpaceOnUse" x="0" y="-543" width="980" height="591">
<path d="M0.746094 48H979.946V-542.4H0.746094V48Z" fill="white"/>
</mask>
<g mask="url(#mask18_2092_8858)">
</g>
<mask id="mask19_2092_8858" style="mask-type:luminance" maskUnits="userSpaceOnUse" x="0" y="-543" width="980" height="591">
<path d="M0.746094 48H979.946V-542.4H0.746094V48Z" fill="white"/>
</mask>
<g mask="url(#mask19_2092_8858)">
</g>
<mask id="mask20_2092_8858" style="mask-type:luminance" maskUnits="userSpaceOnUse" x="0" y="-543" width="980" height="591">
<path d="M0.746094 48H979.946V-542.4H0.746094V48Z" fill="white"/>
</mask>
<g mask="url(#mask20_2092_8858)">
</g>
<mask id="mask21_2092_8858" style="mask-type:luminance" maskUnits="userSpaceOnUse" x="0" y="-543" width="980" height="591">
<path d="M0.746094 48H979.946V-542.4H0.746094V48Z" fill="white"/>
</mask>
<g mask="url(#mask21_2092_8858)">
</g>
<mask id="mask22_2092_8858" style="mask-type:luminance" maskUnits="userSpaceOnUse" x="0" y="-543" width="980" height="591">
<path d="M0.746094 48H979.946V-542.4H0.746094V48Z" fill="white"/>
</mask>
<g mask="url(#mask22_2092_8858)">
</g>
<mask id="mask23_2092_8858" style="mask-type:luminance" maskUnits="userSpaceOnUse" x="0" y="-543" width="980" height="591">
<path d="M0.746094 48H979.946V-542.4H0.746094V48Z" fill="white"/>
</mask>
<g mask="url(#mask23_2092_8858)">
</g>
<mask id="mask24_2092_8858" style="mask-type:luminance" maskUnits="userSpaceOnUse" x="0" y="-543" width="980" height="591">
<path d="M0.746094 48H979.946V-542.4H0.746094V48Z" fill="white"/>
</mask>
<g mask="url(#mask24_2092_8858)">
</g>
<mask id="mask25_2092_8858" style="mask-type:luminance" maskUnits="userSpaceOnUse" x="0" y="-543" width="980" height="591">
<path d="M0.746094 48H979.946V-542.4H0.746094V48Z" fill="white"/>
</mask>
<g mask="url(#mask25_2092_8858)">
</g>
<mask id="mask26_2092_8858" style="mask-type:luminance" maskUnits="userSpaceOnUse" x="0" y="-543" width="980" height="591">
<path d="M0.746094 48H979.946V-542.4H0.746094V48Z" fill="white"/>
</mask>
<g mask="url(#mask26_2092_8858)">
</g>
<mask id="mask27_2092_8858" style="mask-type:luminance" maskUnits="userSpaceOnUse" x="0" y="-543" width="980" height="591">
<path d="M0.746094 48H979.946V-542.4H0.746094V48Z" fill="white"/>
</mask>
<g mask="url(#mask27_2092_8858)">
</g>
<mask id="mask28_2092_8858" style="mask-type:luminance" maskUnits="userSpaceOnUse" x="0" y="-543" width="980" height="591">
<path d="M0.746094 48H979.946V-542.4H0.746094V48Z" fill="white"/>
</mask>
<g mask="url(#mask28_2092_8858)">
</g>
<mask id="mask29_2092_8858" style="mask-type:luminance" maskUnits="userSpaceOnUse" x="0" y="-543" width="980" height="591">
<path d="M0.746094 48H979.946V-542.4H0.746094V48Z" fill="white"/>
</mask>
<g mask="url(#mask29_2092_8858)">
</g>
<mask id="mask30_2092_8858" style="mask-type:luminance" maskUnits="userSpaceOnUse" x="0" y="-543" width="980" height="591">
<path d="M0.746094 48H979.946V-542.4H0.746094V48Z" fill="white"/>
</mask>
<g mask="url(#mask30_2092_8858)">
<path d="M60.573 44.5571C60.573 44.5571 59.9218 44.7963 58.3794 44.7963C52.5938 44.7963 54.5402 38.6987 51.0386 38.6987H50.2266V44.6555H45.7402V27.3499H52.201C56.8514 27.3499 59.1858 28.9419 59.1858 33.0099C59.1858 35.5859 57.4562 36.8507 56.501 37.3803C57.8762 39.0363 57.7746 41.0819 59.8074 41.0819H60.573V44.5571ZM51.7266 35.3363C53.5314 35.3363 54.8218 34.5931 54.8218 33.1667C54.8218 31.7203 53.7482 30.9323 52.0186 30.9323H50.2266V35.3363H51.7266Z" fill="#21317D"/>
<path d="M74.955 36.4259C75.7958 37.1043 76.483 38.1627 76.483 39.7003C76.483 43.3587 73.7862 44.6555 70.5958 44.6555H62.4014V27.3499H69.7158C73.2518 27.3499 75.3206 28.6563 75.3206 32.0339C75.3206 34.9811 73.4718 35.4211 72.5302 35.4211V35.4899C73.1222 35.4899 74.1078 35.7571 74.955 36.4259ZM68.6518 34.2187C70.1374 34.2187 70.711 33.6435 70.711 32.5427C70.711 31.4755 69.9326 30.9323 68.327 30.9323H66.9126V34.2187H68.6518ZM69.183 41.0811C70.6534 41.0811 71.3158 40.5755 71.3158 39.2131C71.3158 37.8451 70.3814 37.3003 69.0862 37.3003H66.9126V41.0811H69.183Z" fill="#21317D"/>
<path d="M78.6191 44.6555V27.3499H83.1239V41.0819H90.0751V44.6555H78.6191Z" fill="#21317D"/>
<path d="M94.3877 44.6555V27.3499H100.706C104.253 27.3499 106.312 28.7155 106.312 31.8923C106.312 35.0147 104.463 35.5435 103.628 35.5435V35.5859C104.756 35.5859 107.463 36.5427 107.463 39.8475C107.463 43.4507 104.597 44.6555 101.396 44.6555H94.3877ZM100.527 34.6355C102.476 34.6355 103.12 33.6795 103.12 32.2435C103.12 30.7667 102.15 29.8747 100.022 29.8747H97.5061V34.6355H100.527ZM100.812 42.1347C102.599 42.1347 104.097 41.5659 104.097 39.4987C104.097 37.5779 102.673 36.8507 100.792 36.8507H97.5061V42.1347H100.812Z" fill="#ED1C24"/>
<path d="M119.497 40.2019H113.178L111.642 44.6555H108.401L114.772 27.3499H117.921L124.28 44.6555H121.049L119.497 40.2019ZM114.006 37.7963H118.691L116.33 31.1755L114.006 37.7963Z" fill="#ED1C24"/>
<path d="M136.392 44.6555L129.612 33.0099V44.6555H126.487V27.3499H129.751L136.578 39.3499V27.3499H139.661V44.6555H136.392Z" fill="#ED1C24"/>
<path d="M157.677 42.3076C155.45 42.3076 155.394 38.5692 153.544 36.71C153.375 36.5428 152.521 35.5196 151.091 35.1284L157.703 27.35H153.727L147.103 35.0556V35.0148V27.35H143.986V36.0644V40.5748V44.6556H147.103V40.5748V39.8084L149.046 37.538H149.229C152.883 37.538 151.706 44.7772 156.736 44.7772C157.754 44.7772 158.399 44.6204 158.399 44.6204V42.3076H157.677Z" fill="#ED1C24"/>
<path d="M11.084 12.3339V1.34668H2.43359V27.3323C2.43359 20.9355 5.91679 15.3219 11.084 12.3339Z" fill="#21317D"/>
<path d="M20.8312 10.0467V18.7371C25.104 19.2691 28.4184 22.9099 28.4184 27.3219C28.4184 32.1195 24.5448 35.9955 19.7528 35.9955C14.976 35.9955 11.0936 32.1195 11.0936 27.3219H11.084V42.3299C13.6368 43.8011 16.5984 44.6619 19.7528 44.6619C29.32 44.6619 37.0728 36.9075 37.0728 27.3323C37.0728 18.1339 29.8952 10.5995 20.8312 10.0467Z" fill="#21317D"/>
<path d="M11.084 12.3339C5.91679 15.3219 2.43359 20.9355 2.43359 27.3323V43.3411V46.8115H11.084V44.5427V42.3291V27.3219H11.0936C11.0936 22.9099 14.3984 19.2699 18.6728 18.7371V10.0467C15.92 10.2107 13.3336 11.0259 11.084 12.3339Z" fill="#ED1C24"/>
</g>
</g>
<defs>
<clipPath id="clip0_2092_8858">
<rect width="158.4" height="48" fill="white" transform="translate(0.746094)"/>
</clipPath>
</defs>
</svg>
