<svg width="51" height="24" viewBox="0 0 51 24" fill="none" xmlns="http://www.w3.org/2000/svg">
<path d="M15.7591 13.5575L22.5636 23.5139H14.6274L12.3594 19.5448" fill="#0E51A0" fill-opacity="0.1"/>
<path d="M7.93629 11.9009L0 23.5134H7.93629L14.5719 11.9009L8.2083 0.485973H0.32614L7.93629 11.9009Z" fill="#0E51A0" fill-opacity="0.1"/>
<path d="M38.7818 0C31.3608 0 26.4766 4.74338 26.4766 12.1644C26.4766 19.5854 31.6426 24 38.3592 24H38.4061C44.5121 24 50.4772 20.1496 50.4772 11.7887C50.4772 4.83731 45.7801 0 38.7818 0Z" fill="#0E51A0" fill-opacity="0.1"/>
<path d="M44.3466 8.36717L44.3453 8.36782C44.1522 8.40174 43.9846 8.44218 43.8724 8.48653L42.5104 9.01684L41.4981 9.41147L36.3072 11.4355L35.636 11.6964L33.3557 12.5874L31.363 10.8863L29.8223 11.487L32.8195 15.6355L36.591 14.269V14.1705L36.5936 18.8787L38.2908 18.1827L42.2038 11.048L42.9279 10.6449L42.316 11.986L43.2064 11.5907L44.5592 11.0617L44.6721 11.0174L47.8754 9.74478C47.8754 9.74478 46.3726 7.64379 44.3466 8.36717Z" fill="#0E51A0" fill-opacity="0.1"/>
</svg>
