<svg xmlns="http://www.w3.org/2000/svg" width="21" height="21"
                                            viewBox="0 0 21 21" fill="none">
                                            <path
                                                d="M16.9806 5.5332H3.9857C3.42585 5.53385 2.88911 5.75653 2.49323 6.15241C2.09735 6.54829 1.87467 7.08503 1.87402 7.64488V14.9545C1.87402 16.1192 2.82184 17.0662 3.9857 17.0662H16.9806C18.1453 17.0662 19.0923 16.1184 19.0923 14.9545V7.64488C19.0923 6.48021 18.1453 5.5332 16.9806 5.5332ZM18.1177 14.9545C18.1177 15.5815 17.6068 16.0916 16.9806 16.0916H3.9857C3.35869 16.0916 2.84864 15.5815 2.84864 14.9545V9.62173H18.1177V14.9545ZM18.1177 8.6463H2.84864V7.64488C2.84864 7.01787 3.35869 6.50782 3.9857 6.50782H16.9806C17.6068 6.50782 18.1177 7.01787 18.1177 7.64488V8.6463ZM13.2446 14.092C13.2446 13.9627 13.2959 13.8388 13.3873 13.7474C13.4787 13.656 13.6026 13.6047 13.7319 13.6047H15.3563C15.4855 13.6047 15.6095 13.656 15.7008 13.7474C15.7922 13.8388 15.8436 13.9627 15.8436 14.092C15.8436 14.2212 15.7922 14.3452 15.7008 14.4366C15.6095 14.528 15.4855 14.5793 15.3563 14.5793H13.7319C13.6679 14.5793 13.6045 14.5667 13.5454 14.5422C13.4863 14.5177 13.4326 14.4818 13.3873 14.4366C13.3421 14.3913 13.3062 14.3376 13.2817 14.2785C13.2572 14.2193 13.2446 14.156 13.2446 14.092Z"
                                                fill="black" />
                                        </svg>