<svg xmlns="http://www.w3.org/2000/svg" width="21" height="20"
                                            viewBox="0 0 21 20" fill="none">
                                            <path
                                                d="M18.1643 4.46094H2.80257C1.82222 4.46094 1.02246 5.2607 1.02246 6.24105V13.4676C1.02246 14.4479 1.82222 15.2448 2.80257 15.2448H18.1643C19.1446 15.2448 19.9415 14.4479 19.9415 13.4676V6.24105C19.9415 5.2607 19.1446 4.46094 18.1643 4.46094ZM19.3682 13.4676C19.3682 13.6257 19.3371 13.7822 19.2766 13.9283C19.2161 14.0744 19.1274 14.2071 19.0156 14.3189C18.9038 14.4307 18.7711 14.5194 18.625 14.5799C18.479 14.6404 18.3224 14.6715 18.1643 14.6715H2.80257C2.13754 14.6715 1.59577 14.1326 1.59577 13.4676V6.24105C1.59577 5.57602 2.13754 5.03424 2.80257 5.03424H18.1643C18.8293 5.03424 19.3682 5.57602 19.3682 6.24105V13.4676Z"
                                                fill="black" />
                                            <path
                                                d="M18.3159 7.28437C18.003 7.2836 17.7032 7.15721 17.482 6.93285C17.2607 6.70849 17.1361 6.40442 17.1353 6.08713C17.1353 5.92534 17.0048 5.79297 16.8453 5.79297H4.123C3.96346 5.79297 3.83294 5.92534 3.83294 6.08713C3.83217 6.40442 3.70754 6.70849 3.48631 6.93285C3.26508 7.15721 2.96524 7.2836 2.65237 7.28437C2.49283 7.28437 2.3623 7.41675 2.3623 7.57854V12.1292C2.3623 12.291 2.49283 12.4234 2.65237 12.4234C3.30212 12.4234 3.83294 12.9588 3.83294 13.6206C3.83294 13.7824 3.96346 13.9148 4.123 13.9148H16.8453C17.0048 13.9148 17.1353 13.7824 17.1353 13.6206C17.1353 12.9588 17.6661 12.4234 18.3159 12.4234C18.4754 12.4234 18.606 12.291 18.606 12.1292V7.57854C18.606 7.41675 18.4754 7.28437 18.3159 7.28437ZM18.0258 11.8586C17.2862 11.9821 16.7031 12.5764 16.5784 13.3265H4.38986C4.32837 12.9598 4.15605 12.6216 3.89675 12.3587C3.63744 12.0957 3.30396 11.921 2.94244 11.8586V7.84916C3.30396 7.78681 3.63744 7.61206 3.89675 7.34909C4.15605 7.08612 4.32837 6.74792 4.38986 6.38129H16.5784C16.6399 6.74792 16.8122 7.08612 17.0715 7.34909C17.3308 7.61206 17.6643 7.78681 18.0258 7.84916V11.8586Z"
                                                fill="black" />
                                            <path
                                                d="M5.88424 8.72544C5.5853 8.72581 5.29872 8.84476 5.08736 9.05617C4.87601 9.26757 4.75714 9.55419 4.75684 9.85313C4.75691 10.1523 4.87565 10.4392 5.08701 10.6509C5.29836 10.8627 5.58507 10.9819 5.88424 10.9825C6.18366 10.9822 6.47071 10.863 6.68244 10.6513C6.89416 10.4396 7.01327 10.1525 7.01365 9.85313C7.01312 9.55391 6.8939 9.26713 6.68216 9.05571C6.47042 8.84429 6.18346 8.72551 5.88424 8.72544ZM5.88424 10.4092C5.73708 10.4088 5.5961 10.35 5.49223 10.2457C5.38835 10.1415 5.33007 10.0003 5.33014 9.85313C5.33014 9.54727 5.57867 9.29874 5.88424 9.29874C6.19096 9.29874 6.44035 9.54727 6.44035 9.85313C6.44035 10.1598 6.19096 10.4092 5.88424 10.4092ZM15.0439 8.72544C14.745 8.72581 14.4584 8.84476 14.2471 9.05617C14.0357 9.26757 13.9168 9.55419 13.9165 9.85313C13.9166 10.1523 14.0354 10.4392 14.2467 10.6509C14.4581 10.8627 14.7448 10.9819 15.0439 10.9825C15.3434 10.9822 15.6304 10.863 15.8421 10.6513C16.0539 10.4396 16.173 10.1525 16.1734 9.85313C16.1728 9.55391 16.0536 9.26713 15.8419 9.05571C15.6301 8.84429 15.3432 8.72551 15.0439 8.72544ZM15.0439 10.4092C14.8968 10.4088 14.7558 10.35 14.6519 10.2457C14.5481 10.1415 14.4898 10.0003 14.4898 9.85313C14.4898 9.54727 14.7384 9.29874 15.0439 9.29874C15.3507 9.29874 15.6 9.54727 15.6 9.85313C15.6 10.1598 15.3507 10.4092 15.0439 10.4092ZM12.2757 8.85844C12.2757 9.0161 12.1496 9.1451 11.9891 9.1451H11.4473C11.3799 9.4872 11.1958 9.79532 10.9267 10.0169C10.6575 10.2386 10.3197 10.36 9.97105 10.3605H9.5554L10.7421 11.8941C10.8367 12.0174 10.8138 12.1979 10.6905 12.2954C10.6607 12.3187 10.6265 12.3358 10.59 12.3458C10.5534 12.3558 10.5153 12.3585 10.4777 12.3537C10.4402 12.3489 10.4039 12.3367 10.3711 12.3179C10.3382 12.299 10.3094 12.2738 10.2864 12.2438L8.74418 10.2516C8.64958 10.1254 8.67251 9.94486 8.79577 9.84739C8.84737 9.80726 8.90757 9.7872 8.96776 9.7872H9.97105C10.3838 9.7872 10.7307 9.51774 10.8539 9.1451H8.9735C8.81297 9.1451 8.68684 9.0161 8.68684 8.85844C8.68684 8.69792 8.81297 8.57179 8.9735 8.57179H10.8539C10.7307 8.19627 10.3838 7.92682 9.97105 7.92682H8.9735C8.93733 7.92691 8.90149 7.91987 8.86805 7.90609C8.8346 7.89232 8.80419 7.87209 8.77857 7.84656C8.74944 7.8207 8.72618 7.7889 8.71036 7.7533C8.69453 7.7177 8.68652 7.67912 8.68684 7.64017C8.68684 7.48251 8.81297 7.35352 8.9735 7.35352H11.9891C12.1496 7.35352 12.2757 7.48251 12.2757 7.64017C12.2757 7.79783 12.1496 7.92682 11.9891 7.92682H11.1435C11.2925 8.11028 11.3986 8.32813 11.4473 8.57179H11.9891C12.1496 8.57179 12.2757 8.69792 12.2757 8.85844Z"
                                                fill="black" />
                                        </svg>