<svg width="80" height="80" viewBox="0 0 80 80" fill="none" xmlns="http://www.w3.org/2000/svg">
<g id="India (IN)" clip-path="url(#clip0_1285_16122)">
<path id="Vector" d="M-13 0H93V26.6667H-13V0Z" fill="#FF9933"/>
<path id="Vector_2" d="M-13 26.6667H93V53.3334H-13V26.6667Z" fill="white"/>
<path id="Vector_3" d="M-13 53.3333H93V79.9999H-13V53.3333Z" fill="#128807"/>
<g id="Group">
<path id="Vector_4" d="M40.0004 50.6666C45.8546 50.6666 50.6004 45.891 50.6004 39.9999C50.6004 34.1089 45.8546 29.3333 40.0004 29.3333C34.1462 29.3333 29.4004 34.1089 29.4004 39.9999C29.4004 45.891 34.1462 50.6666 40.0004 50.6666Z" fill="#000088"/>
<path id="Vector_5" d="M39.9996 49.3334C45.122 49.3334 49.2746 45.1547 49.2746 40.0001C49.2746 34.8454 45.122 30.6667 39.9996 30.6667C34.8772 30.6667 30.7246 34.8454 30.7246 40.0001C30.7246 45.1547 34.8772 49.3334 39.9996 49.3334Z" fill="white"/>
<path id="Vector_6" d="M39.9995 41.8666C41.024 41.8666 41.8545 41.0309 41.8545 40C41.8545 38.969 41.024 38.1333 39.9995 38.1333C38.975 38.1333 38.1445 38.969 38.1445 40C38.1445 41.0309 38.975 41.8666 39.9995 41.8666Z" fill="#000088"/>
<g id="d">
<g id="c">
<g id="b">
<g id="a">
<path id="Vector_7" d="M49.1336 41.6975C49.3947 41.7321 49.6343 41.5471 49.6687 41.2843C49.7031 41.0215 49.5193 40.7804 49.2581 40.7458C48.9969 40.7112 48.7573 40.8962 48.7229 41.159C48.6885 41.4218 48.8724 41.6629 49.1336 41.6975Z" fill="#000088"/>
<path id="Vector_8" d="M39.9996 49.3333L40.3176 43.7333L39.9996 41.0667L39.6816 43.7333L39.9996 49.3333Z" fill="#000088"/>
</g>
<g id="a_2">
<path id="Vector_9" d="M48.3857 44.0179C48.6293 44.1196 48.9084 44.0037 49.0089 43.7591C49.1095 43.5144 48.9934 43.2337 48.7498 43.1319C48.5061 43.0302 48.2271 43.1461 48.1265 43.3907C48.026 43.6354 48.142 43.9161 48.3857 44.0179Z" fill="#000088"/>
<path id="Vector_10" d="M37.5989 49.0149L39.3459 43.6896L39.7225 41.0308L38.729 43.523L37.5989 49.0149Z" fill="#000088"/>
</g>
</g>
<g id="b_2">
<g id="a_3">
<path id="Vector_11" d="M47.0649 46.065C47.2742 46.2267 47.5736 46.1875 47.7337 45.9775C47.8938 45.7674 47.8539 45.4661 47.6446 45.3045C47.4353 45.1428 47.1359 45.182 46.9758 45.392C46.8157 45.602 46.8556 45.9033 47.0649 46.065Z" fill="#000088"/>
<path id="Vector_12" d="M35.3599 48.0825L38.4175 43.3941L39.4657 40.9245L37.865 43.073L35.3599 48.0825Z" fill="#000088"/>
</g>
<g id="a_4">
<path id="Vector_13" d="M45.2634 47.6986C45.424 47.9092 45.7235 47.9493 45.9322 47.7882C46.141 47.6271 46.18 47.3257 46.0194 47.1152C45.8587 46.9046 45.5593 46.8645 45.3505 47.0256C45.1418 47.1868 45.1028 47.4881 45.2634 47.6986Z" fill="#000088"/>
<path id="Vector_14" d="M33.4392 46.599L37.5989 42.8668L39.2469 40.7547L37.148 42.4131L33.4392 46.599Z" fill="#000088"/>
</g>
</g>
</g>
<g id="c_2">
<g id="b_3">
<g id="a_5">
<path id="Vector_15" d="M43.1022 48.8087C43.2027 49.0533 43.4817 49.1691 43.7254 49.0674C43.9691 48.9656 44.0852 48.6848 43.9847 48.4402C43.8842 48.1956 43.6052 48.0798 43.3615 48.1816C43.1178 48.2833 43.0017 48.5641 43.1022 48.8087Z" fill="#000088"/>
<path id="Vector_16" d="M31.9648 44.6674L36.9435 42.1425L39.0803 40.5324L36.6266 41.59L31.9648 44.6674Z" fill="#000088"/>
</g>
<g id="a_6">
<path id="Vector_17" d="M40.7338 49.3174C40.7679 49.5799 41.0075 49.7644 41.269 49.7294C41.5305 49.6945 41.7149 49.4534 41.6808 49.1909C41.6468 48.9284 41.4071 48.7439 41.1456 48.7788C40.8841 48.8137 40.6998 49.0548 40.7338 49.3174Z" fill="#000088"/>
<path id="Vector_18" d="M31.0404 42.417L36.4983 41.2737L38.9764 40.2748L36.3345 40.6581L31.0404 42.417Z" fill="#000088"/>
</g>
</g>
<g id="b_4">
<g id="a_7">
<path id="Vector_19" d="M38.3128 49.1914C38.2781 49.4546 38.4614 49.6957 38.7223 49.73C38.9832 49.7643 39.2228 49.5787 39.2575 49.3156C39.2922 49.0524 39.1088 48.8113 38.848 48.777C38.5871 48.7428 38.3475 48.9283 38.3128 49.1914Z" fill="#000088"/>
<path id="Vector_20" d="M30.7249 40.0057L36.2889 40.3126L38.939 39.9946L36.2897 39.6838L30.7249 40.0057Z" fill="#000088"/>
</g>
<g id="a_8">
<path id="Vector_21" d="M36.0027 48.4382C35.9018 48.6832 36.0171 48.964 36.2604 49.0653C36.5036 49.1666 36.7827 49.0501 36.8836 48.805C36.9846 48.56 36.8692 48.2792 36.626 48.1779C36.3827 48.0766 36.1037 48.1931 36.0027 48.4382Z" fill="#000088"/>
<path id="Vector_22" d="M31.0375 37.5848L36.3301 39.3431L38.9722 39.7231L36.4951 38.7236L31.0375 37.5848Z" fill="#000088"/>
</g>
</g>
</g>
</g>
<g id="d_2">
<g id="c_3">
<g id="b_5">
<g id="a_9">
<path id="Vector_23" d="M33.9698 47.1102C33.8097 47.3202 33.8496 47.6216 34.0589 47.7832C34.2682 47.9449 34.5677 47.9057 34.7277 47.6957C34.8878 47.4857 34.8479 47.1844 34.6386 47.0227C34.4293 46.861 34.1299 46.9002 33.9698 47.1102Z" fill="#000088"/>
<path id="Vector_24" d="M31.9643 35.3328L36.6261 38.4102L39.0798 39.4679L36.943 37.8577L31.9643 35.3328Z" fill="#000088"/>
</g>
<g id="a_10">
<path id="Vector_25" d="M32.345 45.298C32.1363 45.4591 32.0973 45.7604 32.258 45.971C32.4186 46.1816 32.7181 46.2218 32.9268 46.0607C33.1355 45.8996 33.1744 45.5983 33.0138 45.3877C32.8531 45.1771 32.5537 45.1369 32.345 45.298Z" fill="#000088"/>
<path id="Vector_26" d="M33.4383 33.3999L37.15 37.5862L39.2484 39.2466L37.5984 37.135L33.4383 33.3999Z" fill="#000088"/>
</g>
</g>
<g id="b_6">
<g id="a_11">
<path id="Vector_27" d="M31.2427 43.1249C30.9995 43.2261 30.8843 43.5069 30.9853 43.752C31.0863 43.9972 31.3654 44.1139 31.6085 44.0126C31.8517 43.9114 31.9669 43.6306 31.8659 43.3855C31.7648 43.1403 31.4858 43.0237 31.2427 43.1249Z" fill="#000088"/>
<path id="Vector_28" d="M35.3587 31.9169L37.8672 36.9268L39.4674 39.0768L38.4168 36.6076L35.3587 31.9169Z" fill="#000088"/>
</g>
<g id="a_12">
<path id="Vector_29" d="M30.7361 40.7383C30.4752 40.7727 30.2917 41.0138 30.3263 41.2769C30.3609 41.5399 30.6005 41.7253 30.8615 41.6909C31.1224 41.6565 31.3059 41.4154 31.2713 41.1524C31.2367 40.8893 30.9971 40.7039 30.7361 40.7383Z" fill="#000088"/>
<path id="Vector_30" d="M37.595 30.9841L38.7303 36.4762L39.723 38.9697L39.3428 36.3112L37.595 30.9841Z" fill="#000088"/>
</g>
</g>
</g>
<g id="c_4">
<g id="b_7">
<g id="a_13">
<path id="Vector_31" d="M30.8667 38.3028C30.6052 38.2679 30.3656 38.4524 30.3315 38.7149C30.2974 38.9774 30.4818 39.2185 30.7433 39.2534C31.0048 39.2883 31.2444 39.1038 31.2785 38.8413C31.3126 38.5788 31.1282 38.3377 30.8667 38.3028Z" fill="#000088"/>
<path id="Vector_32" d="M39.9949 30.6669L39.6898 36.2659L40.0058 38.9327L40.3148 36.2667L39.9949 30.6669Z" fill="#000088"/>
</g>
<g id="a_14">
<path id="Vector_33" d="M31.6143 35.9819C31.3707 35.8802 31.0916 35.996 30.9911 36.2407C30.8905 36.4853 31.0066 36.7661 31.2502 36.8678C31.4939 36.9695 31.7729 36.8537 31.8735 36.609C31.974 36.3644 31.858 36.0836 31.6143 35.9819Z" fill="#000088"/>
<path id="Vector_34" d="M42.3991 30.9851L40.6521 36.3104L40.2755 38.9692L41.269 36.477L42.3991 30.9851Z" fill="#000088"/>
</g>
</g>
<g id="b_8">
<g id="a_15">
<path id="Vector_35" d="M32.9332 33.9347C32.7239 33.7731 32.4244 33.8123 32.2643 34.0223C32.1043 34.2323 32.1442 34.5336 32.3535 34.6953C32.5628 34.857 32.8622 34.8178 33.0223 34.6078C33.1823 34.3977 33.1425 34.0964 32.9332 33.9347Z" fill="#000088"/>
<path id="Vector_36" d="M44.6361 31.9175L41.5785 36.6059L40.5304 39.0755L42.1311 36.927L44.6361 31.9175Z" fill="#000088"/>
</g>
<g id="a_16">
<path id="Vector_37" d="M34.7344 32.3012C34.5738 32.0906 34.2743 32.0504 34.0656 32.2115C33.8569 32.3726 33.818 32.6739 33.9786 32.8845C34.1393 33.0951 34.4387 33.1353 34.6474 32.9742C34.8562 32.8131 34.8951 32.5118 34.7344 32.3012Z" fill="#000088"/>
<path id="Vector_38" d="M46.5587 33.4009L42.399 37.1329L40.7511 39.245L42.85 37.5867L46.5587 33.4009Z" fill="#000088"/>
</g>
</g>
</g>
</g>
<g id="d_3">
<g id="c_5">
<g id="b_9">
<g id="a_17">
<path id="Vector_39" d="M36.8959 31.191C36.7954 30.9464 36.5163 30.8306 36.2726 30.9324C36.0289 31.0342 35.9128 31.315 36.0133 31.5596C36.1138 31.8042 36.3929 31.9199 36.6366 31.8182C36.8803 31.7164 36.9964 31.4356 36.8959 31.191Z" fill="#000088"/>
<path id="Vector_40" d="M48.0332 35.3321L43.0546 37.857L40.9177 39.4672L43.3715 38.4095L48.0332 35.3321Z" fill="#000088"/>
</g>
<g id="a_18">
<path id="Vector_41" d="M39.2662 30.6826C39.2321 30.4201 38.9925 30.2356 38.731 30.2706C38.4695 30.3055 38.2851 30.5466 38.3192 30.8091C38.3532 31.0716 38.5929 31.2561 38.8544 31.2212C39.1159 31.1863 39.3002 30.9452 39.2662 30.6826Z" fill="#000088"/>
<path id="Vector_42" d="M48.9596 37.5832L43.5017 38.7266L41.0236 39.7254L43.6655 39.3422L48.9596 37.5832Z" fill="#000088"/>
</g>
</g>
<g id="b_10">
<g id="a_19">
<path id="Vector_43" d="M41.6852 30.8088C41.7199 30.5456 41.5367 30.3045 41.2758 30.2703C41.015 30.236 40.7754 30.4216 40.7406 30.6848C40.7059 30.948 40.8892 31.1891 41.15 31.2234C41.4108 31.2576 41.6504 31.072 41.6852 30.8088Z" fill="#000088"/>
<path id="Vector_44" d="M49.2731 39.9938L43.7093 39.6886L41.0591 40.0063L43.7083 40.316L49.2731 39.9938Z" fill="#000088"/>
</g>
<g id="a_20">
<path id="Vector_45" d="M43.9933 31.5615C44.0943 31.3164 43.979 31.0356 43.7358 30.9344C43.4926 30.8331 43.2136 30.9497 43.1126 31.1949C43.0116 31.44 43.1268 31.7208 43.37 31.822C43.6132 31.9233 43.8923 31.8066 43.9933 31.5615Z" fill="#000088"/>
<path id="Vector_46" d="M48.9585 42.4146L43.6661 40.6565L41.024 40.2769L43.5009 41.2765L48.9585 42.4146Z" fill="#000088"/>
</g>
</g>
</g>
<g id="c_6">
<g id="b_11">
<g id="a_21">
<path id="Vector_47" d="M46.0313 32.8893C46.1919 32.6789 46.1527 32.3775 45.9438 32.2163C45.735 32.0551 45.4355 32.095 45.275 32.3054C45.1145 32.5159 45.1537 32.8172 45.3625 32.9785C45.5714 33.1397 45.8708 33.0998 46.0313 32.8893Z" fill="#000088"/>
<path id="Vector_48" d="M48.0348 44.6664L43.3751 41.5894L40.921 40.534L43.0565 42.1446L48.0348 44.6664Z" fill="#000088"/>
</g>
<g id="a_22">
<path id="Vector_49" d="M47.6542 34.7013C47.8634 34.5397 47.903 34.2384 47.7428 34.0282C47.5826 33.8181 47.2832 33.7787 47.074 33.9402C46.8649 34.1017 46.8252 34.403 46.9854 34.6132C47.1456 34.8234 47.4451 34.8628 47.6542 34.7013Z" fill="#000088"/>
<path id="Vector_50" d="M46.5608 46.5993L42.8513 42.4134L40.7525 40.7546L42.401 42.8666L46.5608 46.5993Z" fill="#000088"/>
</g>
</g>
<g id="b_12">
<g id="a_23">
<path id="Vector_51" d="M48.7567 36.8746C49.0002 36.773 49.116 36.4922 49.0154 36.2474C48.9147 36.0027 48.6356 35.8866 48.3921 35.9882C48.1486 36.0898 48.0328 36.3705 48.1335 36.6153C48.2341 36.8601 48.5132 36.9762 48.7567 36.8746Z" fill="#000088"/>
<path id="Vector_52" d="M44.6403 48.0826L42.1341 43.073L40.5336 40.924L41.5826 43.3935L44.6403 48.0826Z" fill="#000088"/>
</g>
<g id="a_24">
<path id="Vector_53" d="M49.2612 39.2607C49.5226 39.2259 49.7067 38.9848 49.6724 38.7221C49.6382 38.4594 49.3986 38.2747 49.1372 38.3094C48.8759 38.3441 48.6918 38.5853 48.7261 38.8479C48.7603 39.1106 48.9999 39.2954 49.2612 39.2607Z" fill="#000088"/>
<path id="Vector_54" d="M42.4035 49.0151L41.2717 43.5232L40.2784 41.0305L40.6562 43.6892L42.4035 49.0151Z" fill="#000088"/>
</g>
</g>
</g>
</g>
</g>
</g>
<defs>
<clipPath id="clip0_1285_16122">
<rect width="106" height="80" fill="white" transform="translate(-13)"/>
</clipPath>
</defs>
</svg>
